<svg id="Layer_1" data-name="Layer 1" xmlns="http://www.w3.org/2000/svg" xmlns:xlink="http://www.w3.org/1999/xlink" viewBox="0 0 547 536.7"><defs><style>.cls-1{fill:none;}.cls-2{fill:#7692cb;opacity:0.36;}.cls-3{fill:#1d2f5e;}.cls-4{fill:#7483b2;}.cls-5{fill:#e9e9e9;}.cls-6{fill:#b0bfdc;}.cls-7{clip-path:url(#clip-path);}.cls-10,.cls-11,.cls-34,.cls-8{fill:#c6d0e0;}.cls-13,.cls-16,.cls-8{opacity:0.21;}.cls-9{opacity:0.86;}.cls-11,.cls-26{opacity:0.25;}.cls-12,.cls-14,.cls-16,.cls-17,.cls-19,.cls-20,.cls-23,.cls-24,.cls-30,.cls-32{fill:#213f77;}.cls-12,.cls-35{opacity:0.06;}.cls-14,.cls-33{opacity:0.07;}.cls-15{opacity:0.14;}.cls-17{opacity:0.09;}.cls-18{fill:#7691c9;}.cls-19{opacity:0.03;}.cls-20{opacity:0.15;}.cls-21{fill:#b9c6da;}.cls-22{opacity:0.18;fill:url(#linear-gradient);}.cls-23{opacity:0.05;}.cls-24{opacity:0.1;}.cls-25{clip-path:url(#clip-path-2);}.cls-27{clip-path:url(#clip-path-3);}.cls-28{fill:#c2cbda;}.cls-29{fill:#d8deea;}.cls-30{opacity:0.02;}.cls-31{fill:#b8c1d0;}.cls-34{opacity:0.17;}.cls-36{fill:#abc1dc;}.cls-37{fill:#cedbf0;}</style><clipPath id="clip-path"><path class="cls-1" d="M342.31,226.26c-24.67-13.67-37.91-10.93-50.84-10.14-8,.48-23.35,5.9-30.41,10.43-1.7,1.09-3,4.22-6.08,8.44a30.09,30.09,0,0,0-4.6,9.74,24,24,0,0,0-.9,6.72,21,21,0,0,0,.49,4.13c1.22,6-2.61,13.34-4.14,20.92-.79,3.92.23,2-.05,16.33-.29,15.27-1.41,15.69-.38,22,.93,5.66,2.21,7.56,2.47,13.86.2,4.8-.41,6.94-.63,10.83-.46,7.92,1.25,12.91,2.78,19.79,3.4,15.31.31,14.77,3.52,32.8,2.2,12.4,3.69,12.8,6.1,27.39,1.14,6.86,1.78,12.63,2.45,18.62.89,8.07.91,10.13.89,11.44-.11,8.35-2,9.64-2.36,16.78-.34,6-.82,14.65,4.8,20,.28.27,6,5.5,13.24,3.82,6.57-1.52,9.41-8.87,11.68-14.71,4.18-10.77,4.09-20,3.89-29.79-.45-22.39-.67-33.59-1.14-38.46-2.52-26.39-5.49-25.7-6.84-47.2a280.86,280.86,0,0,1,.5-39c.64-8.71,1.5-15,3.22-27.59,5.38-39.33,8.55-44.15,10.84-47,7.42-9.28,21.57-18.12,30.49-14.41,3.59,1.49,6.22,5,9.59,3.91,3.12-1,5.53-5.41,4.4-7.73C344.66,226.85,343,226.44,342.31,226.26Z"/></clipPath><linearGradient id="linear-gradient" x1="248.94" y1="139.81" x2="200.05" y2="168.58" gradientTransform="translate(65.75 -48.08) rotate(12.47)" gradientUnits="userSpaceOnUse"><stop offset="0" stop-color="#fff" stop-opacity="0"/><stop offset="0.09" stop-color="#fff" stop-opacity="0.02"/><stop offset="0.21" stop-color="#fff" stop-opacity="0.09"/><stop offset="0.35" stop-color="#fff" stop-opacity="0.19"/><stop offset="0.49" stop-color="#fff" stop-opacity="0.34"/><stop offset="0.65" stop-color="#fff" stop-opacity="0.52"/><stop offset="0.81" stop-color="#fff" stop-opacity="0.75"/><stop offset="0.97" stop-color="#fff"/></linearGradient><clipPath id="clip-path-2"><path class="cls-1" d="M345.38,243.27c-1.63-7.79-8.1-12.06-9.59-13A23.28,23.28,0,0,0,323,227a29,29,0,0,0-18.16,6.8,33.49,33.49,0,0,0-9.19,12.47c-4,8.31-4.39,16.13-4.74,22.44-.3,5.29.09,7.91-.68,15.15a78.88,78.88,0,0,1-1.3,9.15c-1.34,6.21-2.62,7.69-2.57,12,0,3.1.93,20.74-2.63,28.55-1.94,5.7-1.7,9.55-1.82,18.2s-.84,17.31-1.25,26c-1.3,27.6-2.11,29.75-2,35.65a30.72,30.72,0,0,1-.36,5.86c-.54,3.44-1.35,4.72-2.43,8.38-1.9,6.46-.59,6.59-2.13,10-2.29,4.14-8,15.42-5,20.6a15.81,15.81,0,0,0,6.45,5.86c.73.41,10.25,5.45,18.28.93,4.8-2.7,6.59-7.41,8.21-11.66,2.84-7.48.64-9.1,3.1-24.2a119.17,119.17,0,0,1,2.95-13.54c1.53-5.37,2-5.28,3-9.23,1.75-6.93.82-8.76,2.12-16.58.78-4.68,1.07-3.77,3.39-13.5.59-2.45.76-3.31,3.44-16.22,2.85-13.72,3.17-15.19,3.65-18.24C325.05,330.41,325,327,325,327a34.69,34.69,0,0,1,1.24-7.82c1.08-3.77,2-4.3,3-7.18,1.7-4.92.14-6.52.75-14.22a58.46,58.46,0,0,1,2-10.92c.65-2.48,1.39-4.75,5-13.34,5-12,6.09-13.69,7.33-18.78S346.14,246.87,345.38,243.27Z"/></clipPath><clipPath id="clip-path-3"><path class="cls-1" d="M242.49,136.73a20.4,20.4,0,0,0-1.8,4.13A21.14,21.14,0,0,0,242,153.47a27.26,27.26,0,0,0,3.73,6.5c9.23,12,8.49,14.33,15.75,22.68a87.25,87.25,0,0,0,23.91,19.64c2.37,1.3,6.49,3.21,14.72,7,7.91,3.67,11.49,5.16,17.52,8.45a76.73,76.73,0,0,1,10.51,6.44,64.72,64.72,0,0,1,10.19,9.53c4.89,5.72,7.33,8.58,8,11.08.07.28.33,1.3.9,1.39.84.14,1.83-1.86,2.23-2.67a15.43,15.43,0,0,0,1.91-7.52c-.05-1.65-.44-6.61-4.15-9.89a26.35,26.35,0,0,0-2.71-1.8c-5.77-3.7-7.55-4.79-7.55-4.79-10.16-6.22-15.24-9.33-17.61-10.5-6.24-3.08-6-2.12-13.52-5.72a124.92,124.92,0,0,1-13.62-7.55,114.34,114.34,0,0,1-14.38-11,124.82,124.82,0,0,1-16.37-18.2c-2.71-3.67-1.86-2.94-4.44-6.4-5.44-7.29-9.62-11.06-8.62-14.88a19.48,19.48,0,0,0,.61-2c.35-1.71.94-4.6-.72-6.44-1.28-1.41-3.74-2-5-1.17A2.67,2.67,0,0,0,242.49,136.73Z"/></clipPath></defs><title>astrnt</title><ellipse class="cls-2" cx="273.5" cy="268.35" rx="273" ry="267.5"/><ellipse class="cls-3" cx="273.5" cy="268.35" rx="251" ry="244.5"/><g id="astronaut"><path class="cls-4" d="M373.53,227.32a3.14,3.14,0,0,1-1.54-1.65c-.43-1.7,1.1-3.86,4-7.73,2.26-3.07,2.68-2.7,4.23-3.78,2.47-1.71,6-1.56,8.54-.43a13.1,13.1,0,0,1,3.09,2.2,25.18,25.18,0,0,1,4.94,5.59c1.19,1.88.94,2.06,2.14,4.12a36.84,36.84,0,0,0,4.28,5.56c2,2.52,3.12,5.32,5.38,10.91,1.48,3.67,2.22,5.56,2.61,8.21a22.44,22.44,0,0,1,0,7,21.66,21.66,0,0,1-1.46,4.8c-.92,2.27-3.69,9.1-6.52,8.86-1.71-.15-2.25-2.78-3.79-2.57-1.35.17-1.33,2.25-3,2.8a4,4,0,0,1-4.54-2.17c-.49-1.32.39-2.64-.06-2.9s-1.45,1.47-3,1.48a3.19,3.19,0,0,1-2.69-2c-.49-1.26,1-2.07,3.21-5.77C390.4,258,391,257,391.08,256c.19-1.64-.46-2.11-.34-4.74a8.13,8.13,0,0,0,.06-2.43c-.35-1.51-1.21-1.6-1.48-3s.42-1.52.2-3.07a7.37,7.37,0,0,0-.94-2.41c-1-2-1.67-2.16-1.76-3.26s.47-1.65.1-2.09-1.21,0-2.3-.15-1.53-.94-3.83-3.47c-1.65-1.82-2.49-2.73-3-3C376.11,227.72,375.11,228.35,373.53,227.32Z"/><path class="cls-5" d="M306.72,123.2c5.83-2,12.12-.09,19.61,2.19a31.1,31.1,0,0,1,7.23,2.88c6.56,3.79,9.79,9.48,12,13.46.57,1,2.49,5.83,6.32,15.38,2.65,6.62,2.66,6.69,3,7.33,4,7,10.73,12.56,11.34,13.05,2.53,2,5.6,4.09,5.78,7.16a12.21,12.21,0,0,0,.17,2.86c.47,2.05,1.44,2.72,2.27,4.65s.39,2.65.93,4.4c.64,2.12,1.77,2.62,6.7,7a69.31,69.31,0,0,1,6.62,6.67c3.32,3.87,3.09,4.6,2.94,4.83-.57.86-2.92-.92-6.22-.5-4.14.51-7.55,4.2-9.16,7.25s-1.45,5.82-2.65,6c-.81.1-1.44-1.06-3-3.25a60.16,60.16,0,0,0-5.77-7.16c-2.18-2.19-4.06-4.09-7.12-5.14-2.61-.89-4-.44-5.4-1.9s-1-2.88-2.66-4.12c-1.43-1.08-2.31-.43-3.76-1.17-2.72-1.39-1.74-4.79-4.14-8.7-2.07-3.37-3.86-2.59-7-6.26s-1.92-4.88-4.46-9c-4.83-7.74-13.88-10.87-15.6-11.43-4.32-1.4-5.16-.54-7.75-2.25-3.08-2-3.61-4.39-7.34-9.81-3.95-5.75-4.79-5.19-5.86-7.51C290.05,142.08,296.23,126.8,306.72,123.2Z"/><path class="cls-6" d="M373.31,227.27a3.14,3.14,0,0,1-1.54-1.65c-.43-1.69,1.1-3.86,4-7.73,2.27-3.07,2.69-2.7,4.24-3.78,2.47-1.71,6-1.56,8.54-.43a13.1,13.1,0,0,1,3.09,2.2,25.18,25.18,0,0,1,4.94,5.59c1.19,1.88.94,2.06,2.14,4.12a37.51,37.51,0,0,0,4.27,5.56c2,2.52,3.13,5.32,5.39,10.91,1.48,3.67,2.22,5.56,2.61,8.21a22.44,22.44,0,0,1,0,7,21.66,21.66,0,0,1-1.46,4.8c-.92,2.27-3.69,9.1-6.52,8.86-1.71-.15-2.25-2.78-3.79-2.57-1.35.17-1.33,2.25-3,2.8a4,4,0,0,1-4.54-2.17c-.49-1.32.39-2.64-.06-2.9s-1.45,1.47-3,1.49a3.22,3.22,0,0,1-2.69-2c-.49-1.26,1-2.07,3.21-5.77,1.13-1.88,1.69-2.82,1.81-3.85.19-1.64-.46-2.11-.34-4.74a8.13,8.13,0,0,0,.06-2.43c-.35-1.51-1.21-1.6-1.48-3s.42-1.52.19-3.06a7.28,7.28,0,0,0-.93-2.42c-1-2-1.67-2.16-1.76-3.26s.47-1.65.1-2.09-1.21,0-2.3-.15-1.53-.94-3.83-3.47c-1.65-1.82-2.49-2.73-3-3C375.89,227.67,374.89,228.3,373.31,227.27Z"/><path class="cls-6" d="M373.31,227.27a3.14,3.14,0,0,1-1.54-1.65c-.43-1.69,1.1-3.86,4-7.73,2.27-3.07,2.69-2.7,4.24-3.78,2.47-1.71,6-1.56,8.54-.43a13.1,13.1,0,0,1,3.09,2.2,25.18,25.18,0,0,1,4.94,5.59c1.19,1.88.94,2.06,2.14,4.12a37.51,37.51,0,0,0,4.27,5.56c2,2.52,3.13,5.32,5.39,10.91,1.48,3.67,2.22,5.56,2.61,8.21a22.44,22.44,0,0,1,0,7,21.66,21.66,0,0,1-1.46,4.8c-.92,2.27-3.69,9.1-6.52,8.86-1.71-.15-2.25-2.78-3.79-2.57-1.35.17-1.33,2.25-3,2.8a4,4,0,0,1-4.54-2.17c-.49-1.32.39-2.64-.06-2.9s-1.45,1.47-3,1.49a3.22,3.22,0,0,1-2.69-2c-.49-1.26,1-2.07,3.21-5.77,1.13-1.88,1.69-2.82,1.81-3.85.19-1.64-.46-2.11-.34-4.74a8.13,8.13,0,0,0,.06-2.43c-.35-1.51-1.21-1.6-1.48-3s.42-1.52.19-3.06a7.28,7.28,0,0,0-.93-2.42c-1-2-1.67-2.16-1.76-3.26s.47-1.65.1-2.09-1.21,0-2.3-.15-1.53-.94-3.83-3.47c-1.65-1.82-2.49-2.73-3-3C375.89,227.67,374.89,228.3,373.31,227.27Z"/><g class="cls-7"><path class="cls-5" d="M342.31,226.26c-24.67-13.67-37.91-10.93-50.84-10.14-8,.48-23.35,5.9-30.41,10.43-1.7,1.09-3,4.22-6.08,8.44a30.09,30.09,0,0,0-4.6,9.74,24,24,0,0,0-.9,6.72,21,21,0,0,0,.49,4.13c1.22,6-2.61,13.34-4.14,20.92-.79,3.92.23,2-.05,16.33-.29,15.27-1.41,15.69-.38,22,.93,5.66,2.21,7.56,2.47,13.86.2,4.8-.41,6.94-.63,10.83-.46,7.92,1.25,12.91,2.78,19.79,3.4,15.31.31,14.77,3.52,32.8,2.2,12.4,3.69,12.8,6.1,27.39,1.14,6.86,1.78,12.63,2.45,18.62.89,8.07.91,10.13.89,11.44-.11,8.35-2,9.64-2.36,16.78-.34,6-.82,14.65,4.8,20,.28.27,6,5.5,13.24,3.82,6.57-1.52,9.41-8.87,11.68-14.71,4.18-10.77,4.09-20,3.89-29.79-.45-22.39-.67-33.59-1.14-38.46-2.52-26.39-5.49-25.7-6.84-47.2a280.86,280.86,0,0,1,.5-39c.64-8.71,1.5-15,3.22-27.59,5.38-39.33,8.55-44.15,10.84-47,7.42-9.28,21.57-18.12,30.49-14.41,3.59,1.49,6.22,5,9.59,3.91,3.12-1,5.53-5.41,4.4-7.73C344.66,226.85,343,226.44,342.31,226.26Z"/><path class="cls-8" d="M342.31,226.26c-24.67-13.67-37.91-10.93-50.84-10.14-8,.48-23.35,5.9-30.41,10.43-1.7,1.09-3,4.22-6.08,8.44a30.09,30.09,0,0,0-4.6,9.74,24,24,0,0,0-.9,6.72,21,21,0,0,0,.49,4.13c1.22,6-2.61,13.34-4.14,20.92-.79,3.92.23,2-.05,16.33-.29,15.27-1.41,15.69-.38,22,.93,5.66,2.21,7.56,2.47,13.86.2,4.8-.41,6.94-.63,10.83-.46,7.92,1.25,12.91,2.78,19.79,3.4,15.31.31,14.77,3.52,32.8,2.2,12.4,3.69,12.8,6.1,27.39,1.14,6.86,1.78,12.63,2.45,18.62.89,8.07.91,10.13.89,11.44-.11,8.35-2,9.64-2.36,16.78-.34,6-.82,14.65,4.8,20,.28.27,6,5.5,13.24,3.82,6.57-1.52,9.41-8.87,11.68-14.71,4.18-10.77,4.09-20,3.89-29.79-.45-22.39-.67-33.59-1.14-38.46-2.52-26.39-5.49-25.7-6.84-47.2a280.86,280.86,0,0,1,.5-39c.64-8.71,1.5-15,3.22-27.59,5.38-39.33,8.55-44.15,10.84-47,7.42-9.28,21.57-18.12,30.49-14.41,3.59,1.49,6.22,5,9.59,3.91,3.12-1,5.53-5.41,4.4-7.73C344.66,226.85,343,226.44,342.31,226.26Z"/><path class="cls-8" d="M342.31,226.26c-24.67-13.67-37.91-10.93-50.84-10.14-8,.48-23.35,5.9-30.41,10.43-1.7,1.09-3,4.22-6.08,8.44a30.09,30.09,0,0,0-4.6,9.74,24,24,0,0,0-.9,6.72,21,21,0,0,0,.49,4.13c1.22,6-2.61,13.34-4.14,20.92-.79,3.92.23,2-.05,16.33-.29,15.27-1.41,15.69-.38,22,.93,5.66,2.21,7.56,2.47,13.86.2,4.8-.41,6.94-.63,10.83-.46,7.92,1.25,12.91,2.78,19.79,3.4,15.31.31,14.77,3.52,32.8,2.2,12.4,3.69,12.8,6.1,27.39,1.14,6.86,1.78,12.63,2.45,18.62.89,8.07.91,10.13.89,11.44-.11,8.35-2,9.64-2.36,16.78-.34,6-.82,14.65,4.8,20,.28.27,6,5.5,13.24,3.82,6.57-1.52,9.41-8.87,11.68-14.71,4.18-10.77,4.09-20,3.89-29.79-.45-22.39-.67-33.59-1.14-38.46-2.52-26.39-5.49-25.7-6.84-47.2a280.86,280.86,0,0,1,.5-39c.64-8.71,1.5-15,3.22-27.59,5.38-39.33,8.55-44.15,10.84-47,7.42-9.28,21.57-18.12,30.49-14.41,3.59,1.49,6.22,5,9.59,3.91,3.12-1,5.53-5.41,4.4-7.73C344.66,226.85,343,226.44,342.31,226.26Z"/><g class="cls-9"><path class="cls-10" d="M290.86,473c-2.26,5.84-5.11,13.19-11.68,14.71-7.25,1.69-12.95-3.55-13.23-3.82-5.63-5.34-5.14-14-4.81-20a35.89,35.89,0,0,1,.62-4.94,37.49,37.49,0,0,0-1.14,7.31c-.34,6-.82,14.65,4.8,20,.28.27,6,5.5,13.24,3.82,6.57-1.52,9.41-8.87,11.68-14.71a54.84,54.84,0,0,0,2.74-9.45A53.57,53.57,0,0,1,290.86,473Z"/></g><path class="cls-8" d="M289.48,362.71c-3.58-3-7.86-5.4-10.27-9.4-1.75-2.92-2.51-6.67-5.35-8.57a1.46,1.46,0,0,0-2.51,1.12c-.39,2.11.46,4.25.44,6.4,0,1.77-.6,3.61.09,5.24a5.71,5.71,0,0,0,4,2.9,42.92,42.92,0,0,1,4.94,1.22c2.27.93,11,7.25,12.56,9.18a1,1,0,0,1,.23.49c0,.54,1.74,2.3,1.16-.36v-.06A16.52,16.52,0,0,0,289.48,362.71Z"/><path class="cls-8" d="M285.7,357.94c2.83,2.52,6,4.86,7.72,8.25a2.89,2.89,0,0,1,.37,2.13,4.26,4.26,0,0,0,.34-5,11.83,11.83,0,0,0-3.79-3.69,14.41,14.41,0,0,1-3.95-3.54,29.29,29.29,0,0,1-2-4.76c-.5-1.17-1.52-2.94-2.89-3.25-1.81-.41-1.42,1.62-1,2.77C281.4,353.71,283.53,356,285.7,357.94Z"/><path class="cls-8" d="M270.79,255.83c-6.81.17-13.74,1.7-19.41,5.47a4.28,4.28,0,0,1,2.3-3.24c1.21-.67,3.56-1,3.26-1.28.36-.37-2.84,0-4.56-.47-.1-.35.39-.55.75-.57a47.9,47.9,0,0,1,5.62,0,.2.2,0,0,0,.12-.37l-3.19-1.93a3.6,3.6,0,0,1-1.2-1,1.25,1.25,0,0,1,0-1.45c.78-.4,2.64,1.48,4.08,2a.89.89,0,0,0,.9-1.48c-.37-.37-.74-.73-1.1-1.11a6,6,0,0,1-2-3.66c1.54.48,2.24,2.21,3.43,3.29a8.12,8.12,0,0,0,3.15,1.6,28.11,28.11,0,0,0,6.62,1.16,86.3,86.3,0,0,1,19.88,3.83c.84.26,2.1.75,2.15,1.76-1.28-.31-2.48-.81-3.87-1-1.85-.29-3.71-.57-5.58-.8A75.54,75.54,0,0,0,270.79,255.83Z"/><path class="cls-8" d="M290,269.61c-1.79,1.69-3.38,3.68-5.61,4.74-3,1.41-6.45.86-9.75.95a3.39,3.39,0,0,0-1.72.37,1.3,1.3,0,0,0-.64,1.51c.24.61,1,.8,1.63.87,3.14.33,6.27-.49,9.32-1.31a9.46,9.46,0,0,0,2.75-1.06c1.19-.77,2-2,3-2.95,2.17-1.87,5.32-2.18,7.62-3.89a1.93,1.93,0,0,0,.86-1.17c.27-1.62-2.64-.93-3.41-.69A10.94,10.94,0,0,0,290,269.61Z"/><path class="cls-8" d="M293.32,271.83a34.25,34.25,0,0,0-3.47,1.61,2,2,0,0,0-1,1.88,15.11,15.11,0,0,0,5.72-2.79c.56-.43,1.08-.9,1.6-1.38a26.12,26.12,0,0,0,2.44-2.26C297.4,268.23,294.35,271.18,293.32,271.83Z"/><path class="cls-8" d="M255.79,335.48a106.94,106.94,0,0,1,11.72,3,3,3,0,0,0-.93-3.2,6,6,0,0,0-2.91-1A74.51,74.51,0,0,0,252.15,333a24.64,24.64,0,0,0-11.24,2.35c-.29.14.64,1.12.87,1.16.39.06.84-.39,1.17-.55a12.78,12.78,0,0,1,4.16-1.08A29.46,29.46,0,0,1,255.79,335.48Z"/><path class="cls-8" d="M244.77,358.85a47.53,47.53,0,0,0,12.59,5.77,34.34,34.34,0,0,0,10.34,1.15,1.39,1.39,0,0,1-.47,1.77,3.61,3.61,0,0,1-1.91.55c-6.94.6-13.83-1.7-20-4.88-1.26-.64-2.69-1.74-2.37-3.11a1,1,0,0,1,.64-.76,1.51,1.51,0,0,1,.83.12l3.1,1.14"/><path class="cls-8" d="M273.29,373.81a1.14,1.14,0,0,1,.3,2.18,11.85,11.85,0,0,1-3.22.78,26.17,26.17,0,0,1-7.42-.63,176.61,176.61,0,0,1-27.1-7.4,1.14,1.14,0,0,1,.06-2.16,7.21,7.21,0,0,1,3-.09c3.11.49,6.21.86,9.32,1.26,2.91.36,5.6,1.75,8.4,2.62a73.86,73.86,0,0,0,10,2.35C267.5,372.85,270.67,373.52,273.29,373.81Z"/><path class="cls-8" d="M247,279.91c2.5,1.42,7.09,3.68,6.71,4.89-.31.75-6.55-3.33-10.06-4.85a2.78,2.78,0,0,1-1.26-.84c-1-1.35.46-3.32,1.68-2.54S245.7,279.17,247,279.91Z"/><path class="cls-8" d="M252.4,301.8c3.55,1.38,7.25,2.4,10.73,3.95a3.3,3.3,0,0,1,1.31.88,1.19,1.19,0,0,1,.09,1.46,1.33,1.33,0,0,1-.86.42,5.74,5.74,0,0,1-3.08-.72l-11.54-5.13a5.85,5.85,0,0,0-2.59-.68,2,2,0,0,0-1.9,1.59c-.1,1.37,1.59,2.05,2.93,2.36,4.25,1,12.71,3.45,12.15,4.75-.05.52-1.38.38-2.09.26a40,40,0,0,1-11.39-3.6c-1.59-.77-3.53-1.65-5-.66a39.73,39.73,0,0,1-1-7c-.1-1.83-.79-5.1,2.1-4.11,1.48.51,2.62,2.23,3.93,3.12A31.92,31.92,0,0,0,252.4,301.8Z"/></g><g id="left_hand" data-name="left hand"><path class="cls-5" d="M244.8,140.44c-2.47,2.2-3.6,4.24-7.71,12.08-3.29,6.26-3.56,6.85-4,7.93a51.79,51.79,0,0,0-2.54,10.33c-1.86,10.5-2.79,15.76-2.37,20.64s1.36,6.46.49,10.18c-.78,3.32-2.33,5.44-4.81,8.75-7.27,9.68-10.91,14.53-12,15.73C201.2,237.68,200,238.81,200,238.81c-2.23,2.1-5,4.57-4.49,7.11.28,1.4,1.45,2.21,3.56,3.69A21.85,21.85,0,0,0,207.5,253a15.27,15.27,0,0,0,4.49.45c4.62-.51,7.1-5,10.61-9.23,2.54-3.09,6.22-6,13.59-11.8,3-2.34,8.21-6.3,15.29-12.23a20.39,20.39,0,0,0,4.73-5c2.49-3.9,2.89-8,2.93-12.56.05-6.48-.65-10.36-1.57-17.56-1.6-12.35-2.39-18.53-2.44-24a89.16,89.16,0,0,0-1-13.11c-1.31-8.86-2.9-10.08-3.95-10.38C248.49,137.17,246.65,138.8,244.8,140.44Z"/><path class="cls-11" d="M244.8,140.44c-2.47,2.2-3.6,4.24-7.71,12.08-3.29,6.26-3.56,6.85-4,7.93a51.79,51.79,0,0,0-2.54,10.33c-1.86,10.5-2.79,15.76-2.37,20.64s1.36,6.46.49,10.18c-.78,3.32-2.33,5.44-4.81,8.75-7.27,9.68-10.91,14.53-12,15.73C201.2,237.68,200,238.81,200,238.81c-2.23,2.1-5,4.57-4.49,7.11.28,1.4,1.45,2.21,3.56,3.69A21.85,21.85,0,0,0,207.5,253a15.27,15.27,0,0,0,4.49.45c4.62-.51,7.1-5,10.61-9.23,2.54-3.09,6.22-6,13.59-11.8,3-2.34,8.21-6.3,15.29-12.23a20.39,20.39,0,0,0,4.73-5c2.49-3.9,2.89-8,2.93-12.56.05-6.48-.65-10.36-1.57-17.56-1.6-12.35-2.39-18.53-2.44-24a89.16,89.16,0,0,0-1-13.11c-1.31-8.86-2.9-10.08-3.95-10.38C248.49,137.17,246.65,138.8,244.8,140.44Z"/><path class="cls-8" d="M239,164.62c0,3-1.67,6.19-.54,9,.37.93,1.4,1.83,2.28,1.35a2.12,2.12,0,0,0,.8-1.77,19.31,19.31,0,0,0-.18-4.43c-.24-1.54-.66-3.17,0-4.6.66.08.8,1,.82,1.63a11.35,11.35,0,0,0,.58,3.27c.12.37.42.81.78.68s.33-.37.37-.62c.6-3.76-1.89-7.22-3-10.84a5.41,5.41,0,0,0-.64-1.57,2.75,2.75,0,0,0-2.83-1c-.54.12-2.32.9-2.25,1.65.05.45,1.63,1.49,2,1.89A8.46,8.46,0,0,1,239,164.62Z"/><path class="cls-8" d="M233.65,192.62a54.67,54.67,0,0,1,3-5.55,8,8,0,0,1,5-3.58.73.73,0,0,1,.58.06.67.67,0,0,1,.26.44,5.11,5.11,0,0,1-1,4.06,15,15,0,0,1-3.5,3.75c-1.39,1-3,1.88-4,3.29-.55.74-.9,1.61-1.51,2.3a2.28,2.28,0,0,1-2.44.83c-1.55-.63.94-1.84,1.43-2.32A14.1,14.1,0,0,0,233.65,192.62Z"/><path class="cls-8" d="M230.06,204.59c-.34.38-.78.65-1.14,1a1.47,1.47,0,0,0-.46,1.39.38.38,0,0,0,.14.19.42.42,0,0,0,.38-.08,7.54,7.54,0,0,1,5.79-.56,23.51,23.51,0,0,1,5.42,2.49c.36.2.9.36,1.1,0s0-.59-.24-.8a6.55,6.55,0,0,0-2.76-1.42,31.47,31.47,0,0,1-5.08-2.32.8.8,0,0,1,.9-.56,2.7,2.7,0,0,1,1.07.44,9,9,0,0,0,3.86,1.13c.24-.31-.13-.71-.46-.91a13.1,13.1,0,0,0-4.68-1.69c-.09-.45.47-.72.93-.83l2.42-.55a2.23,2.23,0,0,0,.95-.39.73.73,0,0,0,.18-.93,1,1,0,0,0-.49-.29,4.38,4.38,0,0,0-3.74.5,2.09,2.09,0,0,1-.92.45,2.46,2.46,0,0,1-1.25-.46C230.23,199.54,230.94,203.59,230.06,204.59Z"/><path class="cls-8" d="M244,194.85c-.06.82-1,1.22-1.82,1.4-2.19.47-4.52.58-6.53,1.59a4.36,4.36,0,0,1-1.85.67C233.76,195.46,243.93,195.06,244,194.85Z"/><path class="cls-8" d="M253.7,205.19c.67.34,1.43,1,1.22,1.68a1.25,1.25,0,0,1-1.6.63,5.88,5.88,0,0,1-1.58-1.07,12.19,12.19,0,0,0-4.62-1.84l-5-1.2c-.59-.13,1.27-.88,1.41-.9a12.68,12.68,0,0,1,3.52.39A24.35,24.35,0,0,1,253.7,205.19Z"/><path class="cls-10" d="M232.89,161.06a55.82,55.82,0,0,0-2.32,9.72c-1.82,10.24-2.74,15.48-2.4,20.26a3.39,3.39,0,0,0,2.82-.95,7.51,7.51,0,0,0,1.7-2.69c2-4.9,2.15-10.34,2.23-15.64,0-2,.07-4,.1-6a5.9,5.9,0,0,0-.46-2.89A7.11,7.11,0,0,0,232.89,161.06Z"/><path class="cls-5" d="M234.92,171.76c0-2,.07-4,.1-6a5.9,5.9,0,0,0-.46-2.89,7.11,7.11,0,0,0-1.67-1.8c-.09.24-.17.48-.26.73a4.18,4.18,0,0,1,.58.77,5.78,5.78,0,0,1,.45,2.89l-.09,6c-.08,5.3-.19,10.75-2.23,15.64a7.51,7.51,0,0,1-1.7,2.69,3.78,3.78,0,0,1-1.49.86c0,.13,0,.26,0,.39a3.39,3.39,0,0,0,2.82-.95,7.51,7.51,0,0,0,1.7-2.69C234.73,182.5,234.84,177.06,234.92,171.76Z"/></g><path class="cls-12" d="M322.58,205.05c-2.19-.48-13.77-2.91-25.46-1.76-7.09.69-26.62,3.92-33.7,8-.47.26-2,1.19-3.13.59-1.6-.89-1.23-4.59-.94-7.58.49-5,1.61-5.72.8-8-.66-1.84-1.81-2.43-1.73-4.25.07-1.56.94-1.92.91-3.43,0-1.14-.53-1.65-1.88-3.82a27.66,27.66,0,0,1-3-5.51,18.74,18.74,0,0,1-.87-4.86,36.72,36.72,0,0,1-.06-6.24c.54-6.93-3.84-18.67-3.15-25.16a10.66,10.66,0,0,1,.19-1.13,15.91,15.91,0,0,0-3.52,7.94c-.69,6.48,3.69,18.23,3.15,25.16a36.19,36.19,0,0,0,.05,6.24,18.18,18.18,0,0,0,.88,4.85,27.83,27.83,0,0,0,3,5.52c1.36,2.17,1.87,2.68,1.89,3.82,0,1.51-.84,1.87-.91,3.42-.08,1.83,1.06,2.42,1.73,4.26.81,2.26-.31,3-.8,8-.3,3-.66,6.69.94,7.58,1.09.6,2.66-.33,3.12-.6,7.09-4,26.62-7.27,33.7-8,11.69-1.15,23.28,1.28,25.47,1.75,7,1.53,13.65,3.9,14.9,1.84.71-1.17-.82-2.91-2.18-5.44-.2-.38-.38-.74-.54-1.1C328.86,206.6,325.76,205.74,322.58,205.05Z"/><path class="cls-5" d="M252,173.4a36.72,36.72,0,0,0,.06,6.24,18.74,18.74,0,0,0,.87,4.86,27.66,27.66,0,0,0,3,5.51c1.35,2.17,1.86,2.68,1.88,3.82,0,1.51-.84,1.87-.91,3.43-.08,1.82,1.07,2.41,1.73,4.25.81,2.26-.31,3-.8,8-.29,3-.66,6.69.94,7.58,1.09.6,2.66-.33,3.13-.59,7.08-4,26.61-7.28,33.7-8,11.69-1.15,23.27,1.28,25.46,1.76,7,1.52,13.65,3.89,14.91,1.83.7-1.17-.83-2.91-2.18-5.44-2.53-4.72-2.09-7.81-2.42-21.11-.31-11.82-.48-17.79-1.6-20.36-2.84-6.55-6-6-9-13.38-2.95-7.18-.88-9.9-3.59-15.11-3.52-6.75-10.8-9.45-14.24-10.73-21.05-7.8-52.5,7.31-54.08,22.27C248.16,154.73,252.53,166.48,252,173.4Z"/><g class="cls-13"><path class="cls-10" d="M333.92,206.7c-2.53-4.72-2.08-7.81-2.42-21.12-.3-11.82-.47-17.78-1.59-20.35-2.84-6.55-6-6-9-13.38-3-7.18-.88-9.9-3.59-15.11-3.52-6.75-10.8-9.45-14.24-10.73-9.31-3.45-20.65-2.41-30.54,1.1,8.37-2,17.27-2.2,24.84.6,3.44,1.28,10.72,4,14.24,10.73,2.71,5.21.63,7.93,3.59,15.11s6.14,6.83,9,13.38c1.12,2.57,1.29,8.53,1.59,20.35.34,13.31-.1,16.39,2.43,21.12a39.38,39.38,0,0,1,2.23,4.09c2.87.59,5,.72,5.64-.35S335.28,209.23,333.92,206.7Z"/><path class="cls-10" d="M258.8,217l.11.08c1.09.6,2.66-.33,3.12-.59a28.45,28.45,0,0,1,4.79-2.06A62.45,62.45,0,0,0,258.8,217Z"/></g><path class="cls-8" d="M259.53,408.25a30.66,30.66,0,0,1,17.38-7"/><path class="cls-8" d="M293.68,249.84c7.4-9.26,28.62-21.52,37.54-17.9.89-.43,1.82-.9,2.8-1.45,2.73-1.53,4.34-2.73,4.39-4.23,0-1.13-.82-2.17-2.12-3.12a82.22,82.22,0,0,0-16.39-6,78.94,78.94,0,0,0-9.09-1.5c-7.26-.63-13.33.15-19.34.52-8,.48-23.35,5.9-30.41,10.43C259.36,227.64,293.68,249.84,293.68,249.84Z"/><path class="cls-14" d="M342.21,247.11c-1.63-7.79-8.11-12.07-9.59-13a23.45,23.45,0,0,0-12.83-3.33,29,29,0,0,0-18.15,6.8,33.38,33.38,0,0,0-9.19,12.47c-4,8.32-4.4,16.13-4.75,22.44-.29,5.29.1,7.92-.68,15.15a79.09,79.09,0,0,1-1.3,9.16c-1.33,6.21-2.61,7.68-2.56,12,0,3.1.92,20.74-2.64,28.56-1.94,5.69-1.69,9.54-1.82,18.19s-.83,17.32-1.24,26c-1.3,27.6-2.11,29.76-2,35.65a31.71,31.71,0,0,1-.36,5.87c-.55,3.43-1.36,4.72-2.43,8.38-1.9,6.45-.6,6.59-2.14,10-2.28,4.14-7.95,15.43-5,20.6a15.84,15.84,0,0,0,6.44,5.87c.74.4,10.25,5.45,18.29.92,4.79-2.7,6.58-7.4,8.2-11.66,2.85-7.48.65-9.1,3.11-24.19a120.64,120.64,0,0,1,2.94-13.55c1.54-5.36,2-5.28,3-9.23,1.75-6.92.81-8.75,2.12-16.58.77-4.68,1.07-3.77,3.39-13.5.58-2.44.76-3.3,3.44-16.22,2.85-13.71,3.16-15.19,3.64-18.24,1.8-11.39,1.71-14.8,1.71-14.8A35.69,35.69,0,0,1,323,323c1.08-3.77,2-4.31,3-7.19,1.7-4.92.13-6.52.74-14.22a58.5,58.5,0,0,1,2-10.92c.65-2.47,1.39-4.74,5-13.34,5-12,6.1-13.69,7.33-18.78S343,250.7,342.21,247.11Z"/><path class="cls-10" d="M295.55,246.21a33.38,33.38,0,0,1,9.19-12.47,29,29,0,0,1,18.15-6.8,23.36,23.36,0,0,1,12.83,3.33c1.48.92,8,5.19,9.59,13,.07.33.12.64.17.95,1-4.42,1.54-6.91.84-10.21-1.63-7.79-8.1-12.07-9.59-13a23.4,23.4,0,0,0-12.82-3.33,29,29,0,0,0-18.16,6.8,33.57,33.57,0,0,0-9.19,12.47c-3.61,7.58-4.29,14.75-4.64,20.74A44.68,44.68,0,0,1,295.55,246.21Z"/><path class="cls-5" d="M386.67,235c.69-1.19,1.68-2.59,2.95-4.34,2.29-3.15,2.71-2.78,4.28-3.89a8,8,0,0,1,5-1.33c-1.21-2.08-1-2.28-2.16-4.18a25.44,25.44,0,0,0-5-5.68,13.07,13.07,0,0,0-3.13-2.23c-2.56-1.14-6.14-1.26-8.63.5-1.57,1.12-2,.74-4.27,3.9-2.88,4-4.43,6.2-4,7.93a3.15,3.15,0,0,0,1.56,1.69c1.59,1,2.61.38,4.26,1.1.55.24,1.4,1.17,3.08,3,2.33,2.57,2.73,3.34,3.87,3.52C385.48,235.1,386.22,234.72,386.67,235Z"/><path class="cls-10" d="M292.43,255.27c-.52-.65-1.31-1.59-2.3-2.66a46.11,46.11,0,0,0-18.19-12.33c-3.86-1.34-14-4.87-17.44-4-.2.05-.94.25-1.22-.27-.57-1.06,1.13-4.31,2.3-6.08a13.31,13.31,0,0,1,3.26-3.57c2.81-1.86,5.61-.37,9.09,1.55,7.07,3.93,10.61,5.89,12.44,7.19,8.67,6.17,10.36,9.26,11.32,11.85a26.23,26.23,0,0,1,1.37,5.69"/><path class="cls-8" d="M388.7,210.29a71,71,0,0,0-6.63-6.69c-4.93-4.4-6.07-4.91-6.71-7-.54-1.75-.05-2.37-.93-4.4s-1.8-2.6-2.27-4.66a11.59,11.59,0,0,1-.17-2.85c-.19-3.07-3.26-5.12-5.79-7.16-.62-.5-7.37-6-11.35-13.06-.36-.65-.37-.71-3-7.34-3.83-9.56-5.76-14.36-6.33-15.39-2.2-4-5.44-9.66-12-13.46a31,31,0,0,0-7.24-2.89c-7.49-2.28-13.78-4.2-19.61-2.2a16.23,16.23,0,0,0-4.59,2.48c.33.11.67.21,1,.34,3.46,1.28,10.78,4,14.32,10.74,2.73,5.21.65,7.93,3.62,15.12,3,7.34,6.18,6.83,9,13.39,1.06,2.43,1.28,7.91,1.57,18.5.92,2.28.85,3.71,3.13,6.37,3.15,3.67,4.95,2.89,7,6.26,2.41,3.92,1.43,7.31,4.15,8.71,1.45.74,2.33.09,3.76,1.17,1.64,1.24,1.22,2.66,2.67,4.13s2.78,1,5.39,1.9c3.07,1,4.95,2.94,7.13,5.14a60.65,60.65,0,0,1,5.78,7.17c1.54,2.19,2.17,3.35,3,3.25,1.19-.15,1-2.8,2.65-6s5-6.73,9.15-7.24c3.31-.41,5.65,1.37,6.22.51C391.79,214.89,392,214.15,388.7,210.29Z"/><g class="cls-15"><path class="cls-16" d="M350.73,206.48a3.24,3.24,0,0,0-1.78-.7,3.19,3.19,0,0,1,.92.51c1.63,1.24,1.21,2.65,2.64,4.12a4.46,4.46,0,0,0,2.75,1.26,3.83,3.83,0,0,1-1.89-1.07C351.94,209.13,352.36,207.72,350.73,206.48Z"/><path class="cls-16" d="M365.78,217.62c-2.16-2.19-4-4.08-7.06-5.13a13.82,13.82,0,0,0-2-.51,11,11,0,0,1,1.12.32c3,1,4.9,2.94,7.06,5.13a59.7,59.7,0,0,1,5.72,7.15c1.52,2.19,2.15,3.35,2.95,3.25l.18-.05a17.7,17.7,0,0,1-2.27-3A60.52,60.52,0,0,0,365.78,217.62Z"/><path class="cls-16" d="M342.91,196.62c-2.05-3.36-3.83-2.59-7-6.25-2.26-2.65-2.19-4.08-3.1-6.36-.27-10.59-.47-16.06-1.52-18.49-2.83-6.55-5.94-6-8.95-13.37s-.87-9.9-3.56-15.1c-3.5-6.75-10.76-9.45-14.19-10.72l-1-.34a16.46,16.46,0,0,1,4.56-2.48c3.46-1.2,7.08-1,11-.16-4.27-1-8.17-1.32-11.88,0a16.2,16.2,0,0,0-4.56,2.48l1,.34c3.43,1.27,10.68,4,14.18,10.71,2.7,5.21.63,7.93,3.57,15.11s6.12,6.82,8.94,13.37c1,2.43,1.26,7.9,1.53,18.48.91,2.29.84,3.72,3.1,6.37,3.11,3.66,4.9,2.89,6.94,6.25,2.38,3.91,1.4,7.3,4.1,8.69a3.83,3.83,0,0,0,1.35.4,3.33,3.33,0,0,1-.48-.21C344.3,203.92,345.28,200.53,342.91,196.62Z"/><path class="cls-16" d="M389,214.89c.72.18,1.31.36,1.75.42C390.21,215.18,389.63,215,389,214.89Z"/><path class="cls-16" d="M389.45,210.46a68.72,68.72,0,0,0-6.56-6.67c-4.89-4.4-6-4.9-6.65-7-.52-1.75,0-2.37-.91-4.4s-1.78-2.6-2.25-4.65a12.57,12.57,0,0,1-.16-2.85c-.18-3.07-3.22-5.12-5.73-7.15-.61-.5-7.3-6-11.23-13-.37-.65-.37-.71-3-7.34-3.78-9.54-5.69-14.33-6.25-15.37-2.18-4-5.38-9.65-11.88-13.43a30.2,30.2,0,0,0-7.17-2.87c-3-.92-5.79-1.77-8.44-2.33,2.4.56,4.91,1.32,7.58,2.13a30.23,30.23,0,0,1,7.17,2.88c6.5,3.78,9.7,9.46,11.87,13.43.57,1,2.47,5.83,6.26,15.37,2.63,6.63,2.63,6.69,3,7.34,3.94,7,10.63,12.53,11.24,13,2.51,2,5.55,4.08,5.73,7.15a12,12,0,0,0,.16,2.85c.46,2.05,1.42,2.72,2.25,4.65s.39,2.65.91,4.4c.64,2.12,1.76,2.62,6.64,7a68.32,68.32,0,0,1,6.57,6.66c3.28,3.86,3.06,4.6,2.91,4.83s-.42.27-.79.22c.83.22,1.4.34,1.65,0S392.73,214.31,389.45,210.46Z"/><path class="cls-16" d="M347.49,205.52a6.82,6.82,0,0,0,1.46.26A6.41,6.41,0,0,0,347.49,205.52Z"/><path class="cls-16" d="M385.33,214.59c-4.11.52-7.51,4.21-9.1,7.26s-1.47,5.54-2.46,5.93a.92.92,0,0,0,.69.24c1.18-.16,1-2.81,2.63-6s5-6.74,9.1-7.26a8.91,8.91,0,0,1,2.77.11A9.58,9.58,0,0,0,385.33,214.59Z"/><path class="cls-16" d="M355.26,211.67c.44.12.93.2,1.48.31C356.19,211.84,355.7,211.75,355.26,211.67Z"/></g><path class="cls-17" d="M298.91,177.91a6.47,6.47,0,1,1,1.77.14A6.18,6.18,0,0,1,298.91,177.91Zm2.24-10a3.7,3.7,0,0,0-1-.09,3.83,3.83,0,0,0-3.62,4.06,3.85,3.85,0,0,0,4,3.62,3.85,3.85,0,0,0,3.62-4.06,3.83,3.83,0,0,0-1.28-2.65A3.77,3.77,0,0,0,301.15,167.87Z"/><path class="cls-18" d="M300.1,177.52a6.47,6.47,0,1,1,1.77.14A6.18,6.18,0,0,1,300.1,177.52Zm2.24-10.05a4.1,4.1,0,0,0-1-.08,3.83,3.83,0,0,0-3.62,4.06,3.84,3.84,0,1,0,7.67-.44h0a3.8,3.8,0,0,0-1.28-2.65A3.84,3.84,0,0,0,302.34,167.47Z"/><path class="cls-19" d="M300.1,177.52a6.47,6.47,0,1,1,1.77.14A6.18,6.18,0,0,1,300.1,177.52Zm2.24-10.05a4.1,4.1,0,0,0-1-.08,3.83,3.83,0,0,0-3.62,4.06,3.84,3.84,0,1,0,7.67-.44h0a3.8,3.8,0,0,0-1.28-2.65A3.84,3.84,0,0,0,302.34,167.47Z"/><path class="cls-20" d="M289.82,106.82c-1.49,9.72-2.37,5.72,2.12,31.64,1.19,6.83,3,13.57,3.67,20.47.32,3.37,1.91,6.56,2,9.93a1.93,1.93,0,0,0,.44,1.26c.92,1,3.36.87,4.39-.16,1.54-1.53.13-5.21-.48-6.92-2.65-7.39-11.93-52.87-3.87-58.49-.86-1.4-3.25-1.73-4.89-1.36a4.54,4.54,0,0,0-2.49,1.44A4.28,4.28,0,0,0,289.82,106.82Z"/><path class="cls-10" d="M275.23,152c-1.16,9.76-2.17,5.8,3.19,31.55,1.42,6.78,3.49,13.46,4.36,20.33.43,3.35,2.13,6.49,2.37,9.85a1.93,1.93,0,0,0,.49,1.24c.95,1,3.39.77,4.38-.3,1.49-1.58,0-5.21-.72-6.9-2.9-7.29-13.7-52.43-5.83-58.32-.92-1.37-3.32-1.62-4.94-1.19a4.5,4.5,0,0,0-2.44,1.51A4.41,4.41,0,0,0,275.23,152Z"/><path class="cls-19" d="M275.23,152c-1.16,9.76-2.17,5.8,3.19,31.55,1.42,6.78,3.49,13.46,4.36,20.33.43,3.35,2.13,6.49,2.37,9.85,0,.18,3.3,1.07,3.73,1.52s-6.31-17.1-8.82-34.27c-2.32-15.9-3.57-31.72-4-31.21A4.41,4.41,0,0,0,275.23,152Z"/><path class="cls-18" d="M290.64,106.78c-1.49,9.71-2.37,5.72,2.13,31.64,1.19,6.83,3,13.57,3.67,20.47.31,3.36,1.91,6.55,2,9.92a2,2,0,0,0,.44,1.26c.93,1,3.37.88,4.4-.15,1.54-1.54.13-5.22-.49-6.93-2.65-7.38-11.93-52.86-3.86-58.48-.87-1.4-3.26-1.73-4.9-1.36a4.54,4.54,0,0,0-2.49,1.43A4.43,4.43,0,0,0,290.64,106.78Z"/><path class="cls-17" d="M242.53,149.19c.54,6.92,14.82,11.84,24.27,12.53a37.42,37.42,0,0,0,23.95-6.9c9.42-6.59,7.63-11.86,16.22-18.11,12.64-9.21,27.95-6.12,28-8.09.08-1.7-11.46-5.09-25.67-5.4C277,122.5,241.65,138,242.53,149.19Z"/><path class="cls-21" d="M239.89,147.7c.54,6.91,14.82,11.84,24.27,12.53a37.48,37.48,0,0,0,23.95-6.9c9.42-6.59,7.63-11.86,16.22-18.12,12.64-9.2,27.95-6.11,28-8.08.08-1.71-11.46-5.09-25.67-5.41C274.33,121,239,136.49,239.89,147.7Z"/><path class="cls-22" d="M239.89,147.7c.54,6.91,14.82,11.84,24.27,12.53a37.48,37.48,0,0,0,23.95-6.9c4.43-3.1-20.58-13.17-7.93-24.87C266.25,126.09,239.42,141.77,239.89,147.7Z"/><path class="cls-10" d="M331.15,126c-2,1.23-16-.82-27.78,7.73-8.58,6.25-6.8,11.53-16.22,18.12a37.52,37.52,0,0,1-23.95,6.9c-7.75-.57-18.74-4-22.74-9,2.8,5.83,15.2,9.88,23.7,10.5a37.48,37.48,0,0,0,23.95-6.9c9.42-6.59,7.63-11.86,16.22-18.12,12.64-9.2,27.95-6.12,28-8.08C332.38,126.8,332,126.4,331.15,126Z"/><path class="cls-23" d="M259.94,216.9c1.48-2.58,4.59-2.93,9.94-4,12.34-2.35,10.13-3.23,18.37-4.27a98.67,98.67,0,0,1,16.25-.59c18.92.4,20.12,4,29.18,3.8,1.18,0,4.47-.16,6.07,1.85.4.51.65,1.09,1.26,3.7a45.5,45.5,0,0,1,1.07,5.14c.37,3,.56,4.5-.13,5.28-1.11,1.27-3.5.82-5.93.37a27.45,27.45,0,0,1-7.42-2.77l-2.75-1.4c-1.73-.89-1.88-1-2.33-1.2a28.94,28.94,0,0,0-4.2-1.59,54,54,0,0,0-6-1.55,55.36,55.36,0,0,0-7.08-.95c-4.83-.32-4.92.42-12.27.54-3.92.06-5.16-.13-7.85.41a49.92,49.92,0,0,0-5.67,1.73c-7.38,2.36-6.76,1.92-9.52,3-2.25.86-4.7,1.28-6.8,2.46a3.31,3.31,0,0,1-2.45.7c-1.38-.41-1.87-2.51-2.15-3.67S258.51,219.38,259.94,216.9Z"/><path class="cls-4" d="M259.28,215.87c1.48-2.58,4.59-2.93,9.94-4,12.34-2.35,10.13-3.23,18.37-4.27a99.86,99.86,0,0,1,16.25-.6c18.92.4,20.12,4,29.18,3.81,1.18,0,4.47-.16,6.07,1.85.4.51.65,1.09,1.26,3.7a43.4,43.4,0,0,1,1.07,5.14c.37,3,.56,4.49-.13,5.28-1.11,1.26-3.5.82-5.93.37a27.24,27.24,0,0,1-7.41-2.77c-.23-.11-1.36-.68-2.75-1.4-1.74-.89-1.89-1-2.34-1.2a29.76,29.76,0,0,0-4.2-1.6,54.44,54.44,0,0,0-6-1.54,58.43,58.43,0,0,0-7.07-1c-4.84-.31-4.93.42-12.28.55-3.92.06-5.16-.13-7.85.4a55.26,55.26,0,0,0-5.67,1.73c-7.38,2.36-6.76,1.93-9.52,3-2.25.85-4.7,1.28-6.8,2.46a3.3,3.3,0,0,1-2.45.7c-1.38-.42-1.87-2.51-2.14-3.68S257.85,218.35,259.28,215.87Z"/><path class="cls-24" d="M259.28,215.87c1.48-2.58,4.59-2.93,9.94-4,12.34-2.35,10.13-3.23,18.37-4.27,6.32-.81,18.83,10.14,18,10.08-4.84-.31-4.93.42-12.28.55-3.92.06-5.16-.13-7.85.4a55.26,55.26,0,0,0-5.67,1.73c-7.38,2.36-6.76,1.93-9.52,3-2.25.85-4.7,1.28-6.8,2.46a3.3,3.3,0,0,1-2.45.7c-1.38-.42-1.87-2.51-2.14-3.68S257.85,218.35,259.28,215.87Z"/><path class="cls-23" d="M242.45,135.87A21.09,21.09,0,0,0,240.7,140a21.54,21.54,0,0,0,1.29,12.6,26.85,26.85,0,0,0,3.69,6.47c9.1,11.94,8.38,14.28,15.53,22.58a85.53,85.53,0,0,0,23.55,19.48c2.33,1.29,6.38,3.17,14.47,6.94,7.78,3.62,11.3,5.09,17.24,8.34a74.35,74.35,0,0,1,10.33,6.37,63.5,63.5,0,0,1,10,9.46c4.82,5.69,7.23,8.53,7.91,11,.07.28.33,1.3.88,1.39.83.14,1.8-1.87,2.19-2.68a15.64,15.64,0,0,0,1.85-7.54c-.05-1.64-.45-6.6-4.1-9.86a29.62,29.62,0,0,0-2.67-1.78c-5.67-3.66-7.43-4.74-7.43-4.74-10-6.15-15-9.23-17.32-10.38-6.15-3.05-5.91-2.09-13.3-5.64a121.5,121.5,0,0,1-13.4-7.46,111.53,111.53,0,0,1-14.15-10.93,124.2,124.2,0,0,1-16.13-18.1c-2.68-3.65-1.84-2.93-4.39-6.37-5.36-7.25-9.47-11-8.5-14.82.15-.62.37-1,.59-2,.34-1.71.91-4.6-.73-6.43-1.25-1.4-3.68-2-4.9-1.14A2.73,2.73,0,0,0,242.45,135.87Z"/><path class="cls-6" d="M242.49,136.73a20.4,20.4,0,0,0-1.8,4.13A21.14,21.14,0,0,0,242,153.47a27.26,27.26,0,0,0,3.73,6.5c9.23,12,8.49,14.33,15.75,22.68a87.25,87.25,0,0,0,23.91,19.64c2.37,1.3,6.49,3.21,14.72,7,7.91,3.67,11.49,5.16,17.52,8.45a76.73,76.73,0,0,1,10.51,6.44,64.72,64.72,0,0,1,10.19,9.53c4.89,5.72,7.33,8.58,8,11.08.07.28.33,1.3.9,1.39.84.14,1.83-1.86,2.23-2.67a15.43,15.43,0,0,0,1.91-7.52c-.05-1.65-.44-6.61-4.15-9.89a26.35,26.35,0,0,0-2.71-1.8c-5.77-3.7-7.55-4.79-7.55-4.79-10.16-6.22-15.24-9.33-17.61-10.5-6.24-3.08-6-2.12-13.52-5.72a124.92,124.92,0,0,1-13.62-7.55,114.34,114.34,0,0,1-14.38-11,124.82,124.82,0,0,1-16.37-18.2c-2.71-3.67-1.86-2.94-4.44-6.4-5.44-7.29-9.62-11.06-8.62-14.88a19.48,19.48,0,0,0,.61-2c.35-1.71.94-4.6-.72-6.44-1.28-1.41-3.74-2-5-1.17A2.67,2.67,0,0,0,242.49,136.73Z"/><path class="cls-8" d="M338.14,267.32l-12,9.33"/><path class="cls-8" d="M280.54,348.05a16.14,16.14,0,0,1-4.65,5.41,2.14,2.14,0,0,0,1,.6"/><path class="cls-1" d="M264.09,171.3a21.77,21.77,0,0,0-5.57,3.62"/><path class="cls-1" d="M265.84,175.38a18.39,18.39,0,0,0-4.1,2.31"/><path class="cls-8" d="M359.37,188.06a37.15,37.15,0,0,0-7.34,5.36,4.44,4.44,0,0,0-1.79,3.13.89.89,0,0,0,.48.85,1,1,0,0,0,.64-.06c4.41-1.46,7.55-5.51,11.9-7.14a12,12,0,0,1,5.66-.67c.63.08,2.57,1,2.72,0,.13-.7-1.5-1.83-2-2.16a6.24,6.24,0,0,0-3.86-1.14A12.47,12.47,0,0,0,359.37,188.06Z"/><path class="cls-8" d="M361.55,202.89a12.07,12.07,0,0,0-3.35,5.72,1.32,1.32,0,0,0,0,.71c.19.59,1,.73,1.58.57A4.08,4.08,0,0,0,362,208c.53-.88.87-1.85,1.33-2.76a11.48,11.48,0,0,1,8.4-6.07,3.31,3.31,0,0,0,1.55-.47c1.53-1.17-.58-1.52-1.42-1.45a12.29,12.29,0,0,0-3.82,1A19.77,19.77,0,0,0,361.55,202.89Z"/><path class="cls-8" d="M367.39,202.09a24.33,24.33,0,0,1,2.83-1.33,7.63,7.63,0,0,1,4.93-.59,2.23,2.23,0,0,1,1,.57.25.25,0,0,1,.1.17c0,.1-.11.16-.2.2a4.54,4.54,0,0,1-1.1.2c-2.1.18-4.3.32-6.14,1.36-.63.35-1.19.79-1.8,1.17-.28.17-1.24.85-1.57.59s.1-.89.25-1.1A5,5,0,0,1,367.39,202.09Z"/><path class="cls-8" d="M351.26,202.4a11,11,0,0,1,5.74-4.27,1.55,1.55,0,0,1-.57,1.09c-2.13,2.32-3.19,5.42-5.18,7.86,0,0-.08.11-.14.12-.21.06-.27-.25-.33-.45-.13-.49-.7-.68-1.16-.89-.25-.12-.72-.48-.7-.81s.44-.41.74-.62A7.52,7.52,0,0,0,351.26,202.4Z"/><path class="cls-8" d="M356.58,200.9c.23-.21.58-.41.82-.22a.68.68,0,0,1,.14.65,3.41,3.41,0,0,1-.71,1.64c-.44.53-1.08.85-1.56,1.35-1,1.08-1.11,2.64-1.38,4s-1.29,2-1.29.26a10.73,10.73,0,0,1,1.34-4A11.47,11.47,0,0,1,356.58,200.9Z"/><path class="cls-8" d="M344.94,187.63a39.44,39.44,0,0,0,3.65-6.47c.73-1.4,1.72-2.89,3.26-3.23a1.42,1.42,0,0,1,1.33.28c.6.63.06,1.66-.53,2.3-1.23,1.33-2.68,2.45-3.84,3.84a6.63,6.63,0,0,0-1.77,5c.11.82.45,1.59.58,2.41A2.39,2.39,0,0,1,347,194c-.64.51-1.85.23-1.94-.59-.27,1.59,1.3,2.85,1.89,4.35A1.63,1.63,0,0,1,347,199a1.35,1.35,0,0,1-1.94.31,3.18,3.18,0,0,1-1.08-1.9,7.36,7.36,0,0,0-.69-2.11c-.66-1.05-7-3.2-5.57-4.47.56-.48,1.08,0,1.64,0a4.67,4.67,0,0,0,2.13-.48A9.6,9.6,0,0,0,344.94,187.63Z"/><path class="cls-8" d="M343.87,156.76a25.08,25.08,0,0,1-.39,13.21c-.36,1.06-.81,2.09-1.26,3.12,1.42-.15,2.46-1.35,3.43-2.4s2.25-2.11,3.65-1.86c.2,0,.43.13.47.33a.58.58,0,0,1-.09.38C349,170.81,348,172,348,173.46a1,1,0,0,0,.38.86c.44.26,1-.13,1.21-.58a7.88,7.88,0,0,1,.6-1.39,1.85,1.85,0,0,1,1.92-.53,5.55,5.55,0,0,1,1.83,1c.24.17.53.35.79.24a.78.78,0,0,0,.4-.58c.49-1.77-.32-3.64-1.27-5.21a25.44,25.44,0,0,0-3.16-4.21,5.23,5.23,0,0,1-2.05-4.23,25.62,25.62,0,0,0-5.55-13.56c-.6-.74-2.14-2.4-3.2-1.44s.47,2.87.83,3.72A50.39,50.39,0,0,1,343.87,156.76Z"/><path class="cls-8" d="M356,181.27c-.13.19-.28.41-.2.63s.57.31.89.21c1.47-.42,2.87-1.2,4.4-1.28a10,10,0,0,1,2.24.23l5.11.91c.31-.56-.31-1.17-.85-1.5-2.69-1.64-5.75-3.63-8.79-4.55C354.86,174.73,357.72,178.78,356,181.27Z"/><path class="cls-8" d="M268.58,201.27a3.86,3.86,0,0,1,2.31.82c.26.25.44.68.21.95a.77.77,0,0,1-.45.22c-1.37.28-2.72-.37-4.08-.71a9.45,9.45,0,0,0-4.36-.05c-.31.08-.7.36-.51.62a.54.54,0,0,0,.3.15l2.1.49a1.77,1.77,0,0,1,.74.29.63.63,0,0,1,.25.7c-.16.4-.73.38-1.14.27a11.33,11.33,0,0,0-3.47-.76.45.45,0,0,1-.44-.42,3.44,3.44,0,0,0-.19-.83c-.18-.58-.46-1.64.27-2a8.28,8.28,0,0,1,2.17,0A33.93,33.93,0,0,1,268.58,201.27Z"/><path class="cls-8" d="M260.34,190.75a1.09,1.09,0,0,1,1.2,0,2.57,2.57,0,0,1-1,1.1c-.24.14-.5.25-.73.41a1,1,0,0,0-.44.67.32.32,0,0,0,.18.33h.15a7.54,7.54,0,0,0,1.19-.47,1.13,1.13,0,0,1,1.2.16,4.89,4.89,0,0,1-1.93,1.27c-.26.09-.58.21-.65.48a3.26,3.26,0,0,0,0,.54.59.59,0,0,1-.37.51.58.58,0,0,1-.61-.15c-.33-.34-.14-.85-.14-1.25a9.77,9.77,0,0,1-.14-1.59C258.45,192.06,259.74,191.09,260.34,190.75Z"/><g class="cls-25"><path class="cls-5" d="M345.38,243.27c-1.63-7.79-8.1-12.06-9.59-13A23.28,23.28,0,0,0,323,227a29,29,0,0,0-18.16,6.8,33.49,33.49,0,0,0-9.19,12.47c-4,8.31-4.39,16.13-4.74,22.44-.3,5.29.09,7.91-.68,15.15a78.88,78.88,0,0,1-1.3,9.15c-1.34,6.21-2.62,7.69-2.57,12,0,3.1.93,20.74-2.63,28.55-1.94,5.7-1.7,9.55-1.82,18.2s-.84,17.31-1.25,26c-1.3,27.6-2.11,29.75-2,35.65a30.72,30.72,0,0,1-.36,5.86c-.54,3.44-1.35,4.72-2.43,8.38-1.9,6.46-.59,6.59-2.13,10-2.29,4.14-8,15.42-5,20.6a15.81,15.81,0,0,0,6.45,5.86c.73.41,10.25,5.45,18.28.93,4.8-2.7,6.59-7.41,8.21-11.66,2.84-7.48.64-9.1,3.1-24.2a119.17,119.17,0,0,1,2.95-13.54c1.53-5.37,2-5.28,3-9.23,1.75-6.93.82-8.76,2.12-16.58.78-4.68,1.07-3.77,3.39-13.5.59-2.45.76-3.31,3.44-16.22,2.85-13.72,3.17-15.19,3.65-18.24C325.05,330.41,325,327,325,327a34.69,34.69,0,0,1,1.24-7.82c1.08-3.77,2-4.3,3-7.18,1.7-4.92.14-6.52.75-14.22a58.46,58.46,0,0,1,2-10.92c.65-2.48,1.39-4.75,5-13.34,5-12,6.09-13.69,7.33-18.78S346.14,246.87,345.38,243.27Z"/><g class="cls-26"><path class="cls-10" d="M302.7,448.54c-1.62,4.25-3.41,9-8.2,11.66-8,4.52-17.55-.52-18.29-.93a15.8,15.8,0,0,1-6.44-5.86,8.66,8.66,0,0,1-.73-5.21c-1.18,3.76-1.71,7.54-.33,10a15.81,15.81,0,0,0,6.45,5.86c.73.41,10.25,5.45,18.28.92,4.8-2.69,6.59-7.4,8.21-11.65a23.21,23.21,0,0,0,1.5-6C303,447.69,302.87,448.1,302.7,448.54Z"/></g><path class="cls-8" d="M320.28,298.11c-1.86-.29-3.67-.88-5.54-1.06a1.07,1.07,0,0,0-.59.06c-.51.28-.25,1.08.14,1.52a11.41,11.41,0,0,0,6.16,3.2,35,35,0,0,1,6.79,1.87c2.13,1,4,2.86,4.29,5.2-.06-.59,1.34-2.54,1.59-3.24a37.94,37.94,0,0,0,1.09-3.82c.36-1.41,2.42-5.76,1.87-6.88C330.83,296.89,326.06,299,320.28,298.11Z"/><path class="cls-8" d="M326.29,326c-2.08-1.81-3.7-4.13-5.94-5.76-2-1.48-4.59-2.39-6.52-3.93a1.17,1.17,0,0,0-1.88,1,4.24,4.24,0,0,0,1.25,3c.56.52,1.3.82,1.9,1.28a2,2,0,0,1,.91,2l-5-2.49a1.79,1.79,0,0,0,.92,2.11,15.2,15.2,0,0,0,2.37.85c2.12.83,3.51,2.94,5.57,3.91,1,.49,2.2.67,3.21,1.21h0a1.18,1.18,0,0,1-1,2.13,21.06,21.06,0,0,1-3.8-1.59c-.57.76.34,1.74,1.15,2.23a62.33,62.33,0,0,0,8.56,4.31,3.18,3.18,0,0,1,1.28.79c.5.63.44,1.58.95,2.2.81,1,2.41.49,3.41-.27,1.71-1.3,5-5.9,2.8-7.73-1.22-1-3.69-1.38-5.16-2.08A21.81,21.81,0,0,1,326.29,326Z"/><path class="cls-8" d="M295.33,371.55a6.67,6.67,0,0,0-4-.69c-1.33.34-2.4,2-1.64,3.11.62.95,2,1,3.1,1a43.94,43.94,0,0,1,17.76,3.35c1.54.63,6.33,3.53,7.91,2.43,1.3-.9-.29-1.17-1.08-1.42-1.53-.48-3-.94-4.57-1.44Q304,375,295.33,371.55Z"/><path class="cls-8" d="M312.47,354.39a.65.65,0,0,0,.7-.17c-.18-.53-.77-.78-1.3-1a63.16,63.16,0,0,0-12.65-3c-2.6-.34-5.27-.54-7.68-1.58a4.88,4.88,0,0,0-2,.11,1.22,1.22,0,0,0-.72,1.38,1.74,1.74,0,0,0,.91.88c3.07,1.6,6.69,1.58,10.15,1.63C304.16,352.72,308.5,352.92,312.47,354.39Z"/><path class="cls-8" d="M311.91,356c.08-.15-.08-.3-.22-.38a6.48,6.48,0,0,0-2.29-.69,37.15,37.15,0,0,0-4.47-.43,6.8,6.8,0,0,0-2.25,0c-.85.36-.34.59.32.77a28.24,28.24,0,0,0,4.5.45C308,355.71,311.72,356.28,311.91,356Z"/><path class="cls-8" d="M303.29,282.48a1.82,1.82,0,0,1-1.71,1.46,4.38,4.38,0,0,1-2.32-.63,16.57,16.57,0,0,1-4.54-3.43c.25,1.75,1.66,3.11,3.15,4.08a24.18,24.18,0,0,1,4.36,3c.59.63,1,1.73.35,2.26a1.79,1.79,0,0,1-1.75-.05c-2.46-1-5-2-6.69-4.1-.47,1.07.22,2.25.82,3.25s1.09,2.36.34,3.24a1.55,1.55,0,0,1-2.3,0,3,3,0,0,1-.48-1.58c-.19-2-1.73-14.39.69-14.92C293,275.1,303.23,283.09,303.29,282.48Z"/><path class="cls-8" d="M303.59,321.77c1.11.46,2.35,1,2.75,2.12a3,3,0,0,1-1.26,3.15,17.75,17.75,0,0,1-3.24,1.6c-5.5,2.59-8.06,8.93-12.6,13a2.34,2.34,0,0,1-1.11.65c-.92.16-1.73-.76-1.83-1.69a5.69,5.69,0,0,1,.67-2.68A40.46,40.46,0,0,0,289.89,318c-.22-2.09-.8-4.95.6-6.73,1.29,2.08,2.05,3.54,4.16,5.21A38.2,38.2,0,0,0,303.59,321.77Z"/><path class="cls-8" d="M296.66,338.48A37.28,37.28,0,0,1,300.9,336a20.91,20.91,0,0,0,7.26-7.1,3.59,3.59,0,0,1-.66,2.94,32.94,32.94,0,0,1-5.21,7.44c-1.51,1.48-4,3.31-6.19,3.37C292.72,342.75,294.9,339.82,296.66,338.48Z"/><path class="cls-8" d="M296.93,433.38c-1.1-1.82-2.5-3.74-2.19-5.85a1.59,1.59,0,0,1,.56-1.09c.87-.62,1.94.42,2.5,1.32,1.1-1,.91-2.8.31-4.16s-1.56-2.61-1.73-4.09a3.29,3.29,0,0,1,1.27-3.11,2.35,2.35,0,0,1,3.15.46c.82,1.2.13,2.79-.4,4.13s-.67,3.25.63,3.88c2.32-4.13,2.35-9.26,1-13.78a27.08,27.08,0,0,1-1.57-5.73c-.15-2,.58-4.2,2.34-5.11a1.17,1.17,0,0,1,1.08-.1,1.22,1.22,0,0,1,.42.51c1.88,3.61.19,7.93-.31,12a55.28,55.28,0,0,0-.24,5.61,130,130,0,0,1-1.58,15.36c-.15,1-.27,5.51-2.33,5.06C298.68,438.4,297.55,434.41,296.93,433.38Z"/><path class="cls-8" d="M280.88,433.24a12.16,12.16,0,0,1,4.38-.6,7.71,7.71,0,0,0,4.26-1,3,3,0,0,0,1.14-3.86,3.53,3.53,0,0,0-1.44-1.18c-3.06-1.54-6.72-.78-10.05,0,1.42-1.73,3.58-2.68,5.25-4.17a10.63,10.63,0,0,0,3.09-10.6c-.23-.81-.82-1.73-1.63-1.57a1.51,1.51,0,0,0-.76.46c-2.17,2.07-2.45,5.38-3.55,8.18-.82,2.1-2.15,4-3.1,6A24.81,24.81,0,0,0,276.36,435c0,1.91.38,2.06,1.59.71A8.49,8.49,0,0,1,280.88,433.24Z"/><path class="cls-8" d="M292.19,393.55c1.39,0,3,.08,3.81,1.23a6,6,0,0,1-2.8.46,79.64,79.64,0,0,1-12.26-.63C281.5,393.12,290.45,393.59,292.19,393.55Z"/><path class="cls-8" d="M342.13,262.19a14.43,14.43,0,0,1-3.92,2.38c-3.46,1.4-7.29,1.4-11,2a5.72,5.72,0,0,0-2,.58c-.15.08-.32.21-.3.38s.24.3.43.35c3.59.93,7.49-.57,11.07.4.74.19,1.56.66,1.56,1.42a1.3,1.3,0,0,1-.69,1.06A3,3,0,0,1,336,271c-2.46.19-4.93-.54-7.39-.36-.4,0-.86.13-1,.5a.73.73,0,0,0,.27.78,1.78,1.78,0,0,0,.81.31,35.69,35.69,0,0,0,5.48.21c1.44.06,2.95.3,4.28-.26a6.42,6.42,0,0,0,2.34-2,13.9,13.9,0,0,0,1.93-3,6.36,6.36,0,0,0,.6-3.6,2.19,2.19,0,0,0-.89-1.55,1.09,1.09,0,0,0-1.56.4"/></g><path class="cls-12" d="M410.94,257.15a22.37,22.37,0,0,0,0-7c-.38-2.65-1.13-4.54-2.61-8.22a6.7,6.7,0,0,0-3.46-3.86c-.09-.23-.17-.45-.27-.67a1.08,1.08,0,0,0-.07-.43,12.66,12.66,0,0,0-9-7.43,7.93,7.93,0,0,0-5.25.29,2.22,2.22,0,0,0-.39.29s-3.6,4.35-3.19,4.84-.2,1-.1,2.09.72,1.23,1.76,3.26a7.55,7.55,0,0,1,.94,2.42c.22,1.54-.46,1.79-.2,3.06s1.13,1.47,1.48,3a8.13,8.13,0,0,1-.06,2.43c-.12,2.63.53,3.1.34,4.74-.12,1-.68,2-1.81,3.85-2.22,3.7-3.7,4.51-3.21,5.77l0,.08a12.38,12.38,0,0,0,1.59,1.65,2.33,2.33,0,0,0,1.06.28A2.68,2.68,0,0,0,390,267c2.18-1.7,4.1-6.42,4.84-8.23a21.47,21.47,0,0,0,1.45-4.81,22.37,22.37,0,0,0,0-7c-.62-2.48,1.77-3.49,1.77-.1-.38,4-.88,14.1-6.6,19.21.45.26-.43,1.58.06,2.9a4,4,0,0,0,4.54,2.17c3.83-3.14,6.08-18.56,4.45-23.94-.69-3.13,2-2.71,2,.4-.6,10.18-3.56,23.06.41,23.19,2.82.25,5.6-6.58,6.52-8.85A21.47,21.47,0,0,0,410.94,257.15Z"/><path class="cls-24" d="M390.52,246.79c0,.54-.19.73-.25,1.22a3.08,3.08,0,0,0,.1,1.25,3.29,3.29,0,0,0,.91,1.52c1.19,1,5.11-.05,7.19-2.69,2.54-3.23,1.08-7.16,2.26-7.48s3.61,3.54,4.62,7.32c.43,1.62,1.55,5.83-.45,9.59a12.74,12.74,0,0,1-4.16,4.5,1.1,1.1,0,0,0-.33.19,1.91,1.91,0,0,0-.58,1.65c.19,1.18,1.95,1.93,3.35,1.9a4.53,4.53,0,0,0,1.66-.41,11,11,0,0,0,3.84-2.48,11.88,11.88,0,0,0,2.12-3.09,19.49,19.49,0,0,0,1.55-4.28c1-4.53-1.59-12.43-6.55-19.66-4-5.82-4.77-6.85-5.94-7.11-4-.87-9.12,3.12-9.52,6.76a17.68,17.68,0,0,0,.4,4.22,11.86,11.86,0,0,1,.21,4.75"/><path class="cls-6" d="M390,244.45c-.05.55-.19.74-.25,1.22a3.38,3.38,0,0,0,.09,1.26,3.34,3.34,0,0,0,.92,1.52c1.19,1,5.1,0,7.19-2.7,2.54-3.22,1.07-7.15,2.25-7.47s3.62,3.54,4.63,7.31c.43,1.63,1.55,5.84-.46,9.6a12.6,12.6,0,0,1-4.16,4.49,1.44,1.44,0,0,0-.32.2,1.88,1.88,0,0,0-.58,1.65c.19,1.17,1.95,1.92,3.35,1.9a4.8,4.8,0,0,0,1.66-.41,11,11,0,0,0,3.84-2.49,11.92,11.92,0,0,0,2.12-3.08,19.41,19.41,0,0,0,1.54-4.28c1-4.53-1.58-12.44-6.55-19.66-4-5.83-4.76-6.85-5.94-7.11-4-.87-9.11,3.12-9.52,6.75a18.85,18.85,0,0,0,.4,4.23,11.5,11.5,0,0,1,.21,4.75"/><path class="cls-12" d="M390,244.45c-.05.55-.19.74-.25,1.22a3.38,3.38,0,0,0,.09,1.26,3.34,3.34,0,0,0,.92,1.52c1.19,1,5.1,0,7.19-2.7,2.54-3.22,1.07-7.15,2.25-7.47s3.62,3.54,4.63,7.31c.43,1.63,1.55,5.84-.46,9.6a12.6,12.6,0,0,1-4.16,4.49,1.44,1.44,0,0,0-.32.2,1.88,1.88,0,0,0-.58,1.65c.19,1.17,1.95,1.92,3.35,1.9a4.8,4.8,0,0,0,1.66-.41,11,11,0,0,0,3.84-2.49,11.92,11.92,0,0,0,2.12-3.08,19.41,19.41,0,0,0,1.54-4.28c1-4.53-1.58-12.44-6.55-19.66-4-5.83-4.76-6.85-5.94-7.11-4-.87-9.11,3.12-9.52,6.75a18.85,18.85,0,0,0,.4,4.23,11.5,11.5,0,0,1,.21,4.75"/><path class="cls-6" d="M389.36,243.48c-.05.54-.19.73-.25,1.21a3.11,3.11,0,0,0,.1,1.26,3.29,3.29,0,0,0,.91,1.52c1.19,1,5.11-.05,7.19-2.69,2.54-3.23,1.08-7.16,2.26-7.48s3.61,3.54,4.62,7.32c.43,1.62,1.55,5.83-.45,9.59a12.78,12.78,0,0,1-4.16,4.49,1.94,1.94,0,0,0-.33.2,1.91,1.91,0,0,0-.58,1.65c.19,1.17,1.95,1.93,3.35,1.9a4.53,4.53,0,0,0,1.66-.41,11,11,0,0,0,3.84-2.48,11.88,11.88,0,0,0,2.12-3.09,19.49,19.49,0,0,0,1.55-4.28c1-4.53-1.59-12.43-6.55-19.66-4-5.83-4.77-6.85-5.94-7.11-4-.87-9.12,3.12-9.52,6.76a17.68,17.68,0,0,0,.4,4.22,11.85,11.85,0,0,1,.21,4.75"/><path class="cls-6" d="M389.36,243.48c-.05.54-.19.73-.25,1.21a3.11,3.11,0,0,0,.1,1.26,3.29,3.29,0,0,0,.91,1.52c1.19,1,5.11-.05,7.19-2.69,2.54-3.23,1.08-7.16,2.26-7.48s3.61,3.54,4.62,7.32c.43,1.62,1.55,5.83-.45,9.59a12.78,12.78,0,0,1-4.16,4.49,1.94,1.94,0,0,0-.33.2,1.91,1.91,0,0,0-.58,1.65c.19,1.17,1.95,1.93,3.35,1.9a4.53,4.53,0,0,0,1.66-.41,11,11,0,0,0,3.84-2.48,11.88,11.88,0,0,0,2.12-3.09,19.49,19.49,0,0,0,1.55-4.28c1-4.53-1.59-12.43-6.55-19.66-4-5.83-4.77-6.85-5.94-7.11-4-.87-9.12,3.12-9.52,6.76a17.68,17.68,0,0,0,.4,4.22,11.85,11.85,0,0,1,.21,4.75"/><g class="cls-27"><path class="cls-19" d="M248,134.55c1,.36-.57,5.36.28,5.39s-3.7,1.95-4.42,2.15-1.64.37-1.89,1c-.37,1,1,1.64,2.05,1.74a4.56,4.56,0,0,1,1.43.36.79.79,0,0,1-.11,1.47,7.56,7.56,0,0,0-2.14,1.08.79.79,0,0,0,.39,1.43c2.11.17,4.69-.2,4.91,1.55.15,1.27-1.32,1.76-2.68,2.39a.78.78,0,0,0,.35,1.49c2.17-.07,4.61-.62,4.91.65s-3.29,1.69-4.59,3a.1.1,0,0,0,0,.17c2.67.59,7.34-1.57,8.15.31.75,1.71-5.72,4.18-3.9,4.29s6.91-.52,7.31,1.87c.18,1-2.81,1-3.44,2.42a2,2,0,0,0,.6,2.43c2,1.27,5.13-2.46,6.3-.72.38,1-4,1.65-3.93,3.5,0,1.32,1.91,1.61,3.18,1.26s2.84-.87,3.74.1c-.44,1-4.66,1.14-4.23,3.95a2,2,0,0,0,1,1.49c1.9.91,4-2,5.61-1.59a.55.55,0,0,1,.33.82,7.71,7.71,0,0,1-3.33,3c.24,1.62,2.67,1.42,4.12.66,1.12-.58,2.68-1.12,3.67-.66a.64.64,0,0,1,.07,1.11,16.32,16.32,0,0,0-4.24,4.21c.54,1.45,2.74.85,4-.08,1-.78,2.53-1.56,3.54-1.1a.56.56,0,0,1,.13.89l-3.06,3.09a.73.73,0,0,0,0,1c.81.8,2.7.32,3.8-.52s2.71-1.75,3.8-1.26a.53.53,0,0,1,.12.87,22.49,22.49,0,0,0-3.21,3.74.77.77,0,0,0,.05,1c.93,1,3,.49,4.23-.36s2.7-1.76,4-1.51a.49.49,0,0,1,.2.84,17.35,17.35,0,0,0-3.08,3.65.76.76,0,0,0,.23,1.07c1.21.64,3.4-.5,3.86-1.61a2.07,2.07,0,0,1,1.73-1.36c3.72-.28-1.44,4.73-1.44,4.73a.39.39,0,0,0,.33.6c2.76,0,6.21-4.09,8-2,.88,1.07-3.8,3-3.45,4.34.71,2.69,5.57-2.21,7.94-1.84.75.37.28,1.57-.44,2s-1.88.65-2.16,1.62a1.66,1.66,0,0,0,1.37,2c1.75.33,3-.9,4.33-1.78,1.09-.72,3.76-1.58,3.65-.45.16,1.41-3.66,4.32-3.66,4.32,1.24,1.28,3.4.53,4.95-.37.39-.22.8-.45,1.23-.66a1.2,1.2,0,0,1,1.31,2h0a1.2,1.2,0,0,0,.92,2.09,6.35,6.35,0,0,0,2.32-.73c1.49-.78,3.19-1.78,4.75-1.15L313.64,214c.78,1.62,3.22.95,4.73,0s3.75-1.94,4.84-.52a12,12,0,0,0-4,3.51c1,1.39,3.14.69,4.61-.17s3.57-1.64,4.64-.32L325,220c.93,1.33,3,1.07,4.46.36s2.95-1.75,4.56-1.49l-4.59,5.07c1,1.6,3.44.87,5-.12s3.84-2,5.13-.64a27.14,27.14,0,0,0-5.43,4.59c1,1.71,3.68.8,5.27-.42,1.24-.94,2.88-2,4.27-1.77a.84.84,0,0,1,.57,1.3,24.43,24.43,0,0,1-3.93,4.38c.34,1.51,2.67.71,3.69-.45s3.07-2.37,3.81-1a1.77,1.77,0,0,1-.72,2.27c-1.62,1-3.59,2.74-3.1,4.95a2.1,2.1,0,0,0,2.06,1.71c1.37-.06,1.79-1.4,2.66-2.18s2.3-.5,2.21.47a9.17,9.17,0,0,0-3.26,3.8c-.56,1.59.1,3.74,1.74,4.15.38,1.4-1.31,2.64-2.74,2.41a6.84,6.84,0,0,1-3.54-2.4c-15.34-15.77-35.08-26.37-54.07-37.48S251,184.11,238.31,166.12c-5.39-7.65-9.61-16.65-9.16-26a3.07,3.07,0,0,1,2.83-3.5C235.8,135.65,244.11,134.11,248,134.55Z"/></g><g id="helmet"><path class="cls-5" d="M290.49,85.13l-1.23.56a28.76,28.76,0,0,0-54.8,9.21c-.52,5.17,10.08,38,10.08,38l3.74,8.34,56-25.39Z"/><path class="cls-5" d="M282.49,78c-2.24.69-3.49,3.28-3.9,4.94a9.06,9.06,0,0,0,1.18,6.36,12.3,12.3,0,0,0,2.71,3.56c3.38,3.08,9.68,5.32,11.95,3,2.49-2.53-1.11-9.31-1.49-10C291,82.33,286.46,76.79,282.49,78Z"/><path class="cls-8" d="M282.49,78c-2.24.69-3.49,3.28-3.9,4.94a9.06,9.06,0,0,0,1.18,6.36,12.3,12.3,0,0,0,2.71,3.56c3.38,3.08,9.68,5.32,11.95,3,2.49-2.53-1.11-9.31-1.49-10C291,82.33,286.46,76.79,282.49,78Z"/><path class="cls-11" d="M286,92.51A12.3,12.3,0,0,1,283.31,89a9,9,0,0,1-1.17-6.36,7.58,7.58,0,0,1,3-4.51,4.43,4.43,0,0,0-2.62-.08c-2.24.69-3.49,3.28-3.9,4.94a9.06,9.06,0,0,0,1.18,6.36,12.3,12.3,0,0,0,2.71,3.56c3.1,2.83,8.66,4.93,11.31,3.48A16.54,16.54,0,0,1,286,92.51Z"/><path class="cls-23" d="M278.29,88c1-1.4,3.37-1.13,5.24-.92,6,.67,7.45,4.14,11.73,3.56a4.07,4.07,0,0,1,2.5.15,3.8,3.8,0,0,1,2.05,4.2,2,2,0,0,1-.92,1.19c-.85.41-1.86-.15-2.55-.5-1.56-.77-.38.14-7.2-2-2.43-.76-3-1-4-.79a11.39,11.39,0,0,1-2.54.66,6.67,6.67,0,0,1-2.15-.2,4.54,4.54,0,0,1-1.29-.48A3.91,3.91,0,0,1,278.29,88Z"/><path class="cls-28" d="M277.54,88.29c.87-1.49,3.24-1.45,5.13-1.41,6,.1,7.8,3.42,12,2.45a4.06,4.06,0,0,1,2.5-.09,3.81,3.81,0,0,1,2.44,4,2,2,0,0,1-.81,1.28c-.8.48-1.87,0-2.58-.26-1.63-.63-.36.17-7.36-1.31-2.49-.52-3.09-.72-4-.4a11.51,11.51,0,0,1-2.47.88,6.53,6.53,0,0,1-2.16,0,4.41,4.41,0,0,1-1.33-.36A3.91,3.91,0,0,1,277.54,88.29Z"/><path class="cls-29" d="M277.66,87.73c.87-1.49,3.25-1.45,5.14-1.42,6,.11,7.79,3.43,12,2.45a4.1,4.1,0,0,1,2.51-.08,3.79,3.79,0,0,1,2.43,4,1.94,1.94,0,0,1-.81,1.28c-.8.49-1.86,0-2.58-.25-1.62-.63-.36.17-7.36-1.31-2.48-.52-3.08-.72-4-.4a11.31,11.31,0,0,1-2.47.88,6.54,6.54,0,0,1-2.16,0,4.36,4.36,0,0,1-1.32-.36A3.9,3.9,0,0,1,277.66,87.73Z"/><path class="cls-30" d="M282.64,109.08a8,8,0,0,0,3.46,2.28c.61.21,3.64,1.21,6.19-.3a5.27,5.27,0,0,0,2.48-3.51,5.64,5.64,0,0,0-.39-3.26A9.31,9.31,0,0,0,291,100.1a6.67,6.67,0,0,0-3.77-1.62,5.4,5.4,0,0,0-4.44,2.09,8.14,8.14,0,0,0-.79,2,13.35,13.35,0,0,0-.57,2.56,4.83,4.83,0,0,0,.06,2.14A4.47,4.47,0,0,0,282.64,109.08Z"/><path class="cls-10" d="M287.92,98a6.87,6.87,0,0,0-4.58,0c-4.47,1.27-5.12,4.2-4.14,7a10.45,10.45,0,0,0,1.91,3.3,7.76,7.76,0,0,0,5.18,3,7,7,0,0,0,6.91-4.13C295,102.93,290.51,98.65,287.92,98Z"/><path class="cls-29" d="M281.23,100.24c-1.08,2.56,1.3,5.44,1.86,6.12a7.72,7.72,0,0,0,5.18,3c5,.47,5.38-3.43,5.41-3.88.21-3-2.19-6.14-5.15-7.33a6.29,6.29,0,0,0-5-.15A4.52,4.52,0,0,0,281.23,100.24Z"/><rect class="cls-24" x="246.59" y="131.35" width="61.73" height="2.63" rx="1.32" ry="1.32" transform="translate(-30.01 125.81) rotate(-24.28)"/><rect class="cls-21" x="246.39" y="130.93" width="61.73" height="2.63" rx="1.32" ry="1.32" transform="translate(-29.85 125.69) rotate(-24.28)"/><rect class="cls-12" x="244.34" y="127.17" width="65.55" height="4.32" rx="2.16" ry="2.16" transform="translate(-28.67 125.37) rotate(-24.28)"/><rect class="cls-10" x="243.5" y="127.12" width="65.55" height="4.32" rx="2.16" ry="2.16" transform="translate(-28.72 125.02) rotate(-24.28)"/><path class="cls-10" d="M279.37,88.53a1.6,1.6,0,0,0-.28,1.49,1.84,1.84,0,0,0,2.42.86,1.7,1.7,0,0,0,1-1.82,1.81,1.81,0,0,0-2-1.16A1.74,1.74,0,0,0,279.37,88.53Z"/><path class="cls-10" d="M297.43,90.87c-1.1.11-1.21.18-1.28.27-.24.31,0,.9.18,1.2.46.74,1.59,1.31,2.19.87a1.68,1.68,0,0,0-.19-2.37C298.26,90.81,298.19,90.79,297.43,90.87Z"/><path class="cls-10" d="M296.76,89.38c-.09,0-.58.17-.68.57,0,0-.08.33.07.46s.87-.36,1.64-.14c.19.06.31.14.37.09s-.09-.57-.43-.82A1.23,1.23,0,0,0,296.76,89.38Z"/><path class="cls-31" d="M244.39,133.69c-.82.25-1.8-2.2-1.46-5.57.1-1.08,2.3-.73,2.87.13C247,130,245.91,133.24,244.39,133.69Z"/><path class="cls-32" d="M238.23,100.71c4.69-5.82,16.71-12.37,20.09-12.61a13.46,13.46,0,0,1,7.2.85,13.84,13.84,0,0,1,5.65,4.55,11.68,11.68,0,0,1,2.79,9.73,12.31,12.31,0,0,1-1.58,5.28,9.48,9.48,0,0,1-3.31,3.48c-1.7,1-18.23,8.49-21.17,11.25a16.94,16.94,0,0,0-3.63,5.12c-.31.73-.63,1.82-.63,1.82l-7.51-21.71h0s-.11-1.14-.11-1.15A11.63,11.63,0,0,1,238.23,100.71Z"/><g class="cls-33"><path class="cls-10" d="M240.61,101.51s-.12-1.28-.12-1.29a8,8,0,0,1,.19-2,22.15,22.15,0,0,0-2.45,2.54,11.63,11.63,0,0,0-2.21,6.61l.11,1.15,7.51,21.71s.32-1.09.63-1.82a16.94,16.94,0,0,1,3.63-5.12l.18-.16Z"/></g><path class="cls-19" d="M236.76,109.57c.53-.07-.14-2.77,1.39-6a12.86,12.86,0,0,1,2.67-3.54A33.7,33.7,0,0,1,250,93.67c4.88-2.54,7.32-3.8,9.6-3.93,3.67-.2,7.95,1,10.58,3.81a15.78,15.78,0,0,1,2.05,2.84,15.21,15.21,0,0,1,1.71,4.7,11.61,11.61,0,0,1,.1,5.15,10.9,10.9,0,0,1-1.13,2.85,11.34,11.34,0,0,1-2.77,3.63c-.82.67-2.25,1.24-5.09,2.34-1.92.75-2,.72-3.44,1.29-.45.18-2.47,1-5.09,2.3a36.68,36.68,0,0,0-5.88,3.32,21,21,0,0,0-4.13,4,11.32,11.32,0,0,0-2.06,3.73,8,8,0,0,0-.38,2.25c0,.71,0,2.62.76,2.92s2.36-1.61,2.43-1.71a7.4,7.4,0,0,0,1.18-2.9c.65-2.51,2.75-4.07,5-5.72,1.46-1.08,2.27-1.33,7.94-3.4,7.62-2.79,9-3.39,10.71-4.79a14.09,14.09,0,0,0,4.17-5.08,16.58,16.58,0,0,0,1.22-8.46,17.62,17.62,0,0,0-3.84-10.07,15.41,15.41,0,0,0-9-6,16.47,16.47,0,0,0-6.06-.35A18,18,0,0,0,253.22,88,41.9,41.9,0,0,0,246,92.15a40.84,40.84,0,0,0-6.92,5.53,14.92,14.92,0,0,0-2.73,3.82,8.85,8.85,0,0,0-.93,2.58C234.94,106.87,236.22,109.64,236.76,109.57Z"/><path class="cls-10" d="M236.1,108.44c.52-.07-.14-2.77,1.39-6a12.75,12.75,0,0,1,2.66-3.54,34.22,34.22,0,0,1,9.14-6.39c4.87-2.53,7.31-3.8,9.59-3.92,3.67-.21,7.95,1,10.58,3.81a15.1,15.1,0,0,1,3.76,7.54,11.69,11.69,0,0,1,.11,5.14,11.49,11.49,0,0,1-1.14,2.86,11.34,11.34,0,0,1-2.77,3.63c-.81.67-2.25,1.23-5.09,2.34-1.91.74-2,.72-3.43,1.29-.46.18-2.48,1-5.09,2.29a37.23,37.23,0,0,0-5.89,3.33,20.91,20.91,0,0,0-4.12,3.94,11.3,11.3,0,0,0-2.07,3.73,8,8,0,0,0-.37,2.26c0,.71-.05,2.61.76,2.91s2.35-1.61,2.42-1.7a7.45,7.45,0,0,0,1.19-2.9c.64-2.52,2.74-4.07,5-5.73,1.45-1.08,2.26-1.32,7.93-3.4,7.62-2.78,9-3.39,10.71-4.78a14.38,14.38,0,0,0,4.18-5.08,16.6,16.6,0,0,0,1.21-8.47,18,18,0,0,0-.6-3.71,18.37,18.37,0,0,0-3.24-6.35,16.05,16.05,0,0,0-4.74-4.29,16.28,16.28,0,0,0-4.24-1.68,16.7,16.7,0,0,0-6.06-.35,18.7,18.7,0,0,0-5.32,1.66A40.82,40.82,0,0,0,245.32,91a40.11,40.11,0,0,0-6.92,5.52,14.67,14.67,0,0,0-2.74,3.82,8.82,8.82,0,0,0-.92,2.59C234.27,105.73,235.55,108.51,236.1,108.44Z"/><path class="cls-10" d="M298.24,100.75a6.06,6.06,0,0,1,2,.59,2.37,2.37,0,0,1,1.24,1.61,1.51,1.51,0,0,1-1,1.67c-.78.21-1.52-.35-2.27-.63a5.58,5.58,0,0,0-1.91-.3,14.15,14.15,0,0,0-4.24.59,26,26,0,0,1-2.7.8,3.92,3.92,0,0,1-2.74-.34c-.76-.45-1.64-1.82-.93-2.66s2.87-1,3.81-1.15A25.62,25.62,0,0,1,298.24,100.75Z"/><path class="cls-30" d="M287.56,103.64a2.84,2.84,0,0,0,1.95.92l1.17.22a7.86,7.86,0,0,1-2.4.33,3.12,3.12,0,0,1-2.17-1,1.6,1.6,0,0,1-.3-.52,1.44,1.44,0,0,1,.06-.82c.12-.32.92-1.5,1.38-1.12.18.15,0,.72,0,.94A1.81,1.81,0,0,0,287.56,103.64Z"/><path class="cls-11" d="M283.68,82.63a2.69,2.69,0,0,0,.1,2.59,3.16,3.16,0,0,0,2.44.73,9.13,9.13,0,0,1,4,.88c.58.31,1.11.71,1.71,1a.45.45,0,0,0,.32.06.35.35,0,0,0,.19-.17,1.14,1.14,0,0,0-.19-1.09c-.78-1.33-1.83-2.49-2.63-3.81a9.74,9.74,0,0,0-1.13-1.71c-.64-.69-2-1.43-3-1A4.08,4.08,0,0,0,283.68,82.63Z"/><path class="cls-34" d="M250,77.3a31.75,31.75,0,0,1,8.71-4,16.45,16.45,0,0,1,9.48.17,9.33,9.33,0,0,1,4,2.58,6,6,0,0,1,1.53,4.44,1.74,1.74,0,0,1-.27.86,2.08,2.08,0,0,1-1.31.67,21.4,21.4,0,0,1-9.39-.08,18.12,18.12,0,0,0-4.52-.85c-2.2,0-4.2,1.21-6.16,2.21a48.54,48.54,0,0,1-5.39,2.35,27.88,27.88,0,0,1-3.88,1.16,4.42,4.42,0,0,1-1.77.1c-.38-.08-1.61-.52-1.71-1s.65-.94,1-1.23c1-1,2.05-1.87,3.13-2.75A60,60,0,0,1,250,77.3Z"/></g><path class="cls-8" d="M308.54,196.86a22.37,22.37,0,0,1-6.59-6.37c-.25-.41-.4-1.1.06-1.26a.74.74,0,0,1,.26,0,6,6,0,0,1,4.13,2.13c1.1,1.15,2,2.52,3.07,3.66a11.74,11.74,0,0,0,5.33,3.17c1.79.49,3.73.57,5.32,1.51.83.49,3.08,2.38,2.9,3.5-.31,2-3.18.22-4.06-.2A76,76,0,0,1,308.54,196.86Z"/><path class="cls-8" d="M319,197.56a9.13,9.13,0,0,1,3.52,1.69,3.2,3.2,0,0,0,1.07.8c.42.13,1-.11,1-.55a1.06,1.06,0,0,0-.39-.69,17.77,17.77,0,0,0-7.46-4.44c-.95-.28-3.28-1.12-4.21-.62-1.17.63.59,1.89,1.21,2.16A52.24,52.24,0,0,0,319,197.56Z"/><path class="cls-8" d="M317.68,177.21a16.28,16.28,0,0,1-3.64.31,3.16,3.16,0,0,0-2.9,1.85.44.44,0,0,0,.07.46.45.45,0,0,0,.28.07,9.58,9.58,0,0,0,4.91-.58c1.1-.56,2-1.52,3-2.11.39-.21,4.29-1.94,2.25-2.55C320.87,174.42,318.67,176.89,317.68,177.21Z"/><path class="cls-8" d="M321.91,177.33a2.17,2.17,0,0,1,1.55-.33c.52.16.86.9.46,1.27-1.43.07-3,.19-4.05,1.15-.33.3-.6.65-.93.94C318.3,179.29,321.14,177.73,321.91,177.33Z"/><path class="cls-8" d="M391,219a4.36,4.36,0,0,1-2,.49,11,11,0,0,0-3.78,1.58c-.5.29-1.06.64-1.19,1.21a.41.41,0,0,0,0,.22.38.38,0,0,0,.29.13,5.94,5.94,0,0,0,3.13-.84,16,16,0,0,1,3-1.37,13.26,13.26,0,0,0,1.65-.41,1.8,1.8,0,0,0,1.15-1.15c.13-.55-.28-1.29-.89-1.23S391.51,218.68,391,219Z"/><path class="cls-8" d="M390.09,221.9a.91.91,0,0,0-.44.24.31.31,0,0,0,0,.45.45.45,0,0,0,.42,0c.64-.22,3.38-1.1,3-2.08A22.56,22.56,0,0,1,390.09,221.9Z"/><path class="cls-8" d="M384.06,233.43a.37.37,0,0,1-.14-.2.65.65,0,0,1,.21-.51c.46-.56,1-1.06,1.38-1.66s.67-1.21,1-1.81a3.87,3.87,0,0,1,1.31-1.48,1.1,1.1,0,0,1,1.52.23.66.66,0,0,1,.1.37,1,1,0,0,1-.16.37,25.69,25.69,0,0,1-2.58,3.78,6.52,6.52,0,0,1-1.36,1.32C384.83,234.13,384.43,233.76,384.06,233.43Z"/><path class="cls-8" d="M385.6,229.91a10,10,0,0,0,1.2-2.9,2.46,2.46,0,0,0,.11-1.3.51.51,0,0,0-.86-.26,1.32,1.32,0,0,0-.21.43c-.46,2.26-2.22,5.19-2,5.88C384.22,231.85,385.23,230.45,385.6,229.91Z"/><path class="cls-8" d="M378.12,223.74a4.46,4.46,0,0,1,.58-1.32,1.47,1.47,0,0,1,1.22-.66,4.2,4.2,0,0,1-.7,2.08,3.43,3.43,0,0,0-.57,2.11.31.31,0,0,0,.12.24.35.35,0,0,0,.3,0c.5-.14,1.46-.58,1.5-.42-.07.51-.84.64-1,1.13s.19.7.45,1,.54.61.43,1a.66.66,0,0,1-.83.34,1.29,1.29,0,0,1-.69-.67,1.87,1.87,0,0,0-.34-.56c-.31-.27-.75-.19-1.13-.21-.12,0-.47,0-.53-.14s.18-.6.22-.74Z"/><path class="cls-14" d="M286.29,238.2l-9.11-5.29a1.19,1.19,0,0,0-1.61.34l-3.68,5.67a1.08,1.08,0,0,0,.42,1.52l9.11,5.29a1.21,1.21,0,0,0,1.62-.33l3.67-5.68A1.08,1.08,0,0,0,286.29,238.2Zm-.83,1.8-2.8,4.33a1.22,1.22,0,0,1-1.62.34l-7.52-4.37a1.08,1.08,0,0,1-.42-1.52l2.8-4.33a1.2,1.2,0,0,1,1.62-.34l7.52,4.37A1.08,1.08,0,0,1,285.46,240Z"/><path class="cls-5" d="M285.7,238l-9.11-5.29A1.23,1.23,0,0,0,275,233l-3.67,5.68a1.08,1.08,0,0,0,.42,1.52l9.11,5.29a1.2,1.2,0,0,0,1.61-.34l3.68-5.68A1.08,1.08,0,0,0,285.7,238Zm-.83,1.8-2.8,4.34a1.21,1.21,0,0,1-1.62.33l-7.53-4.37a1.07,1.07,0,0,1-.41-1.51l2.8-4.34a1.22,1.22,0,0,1,1.62-.34l7.52,4.38A1.07,1.07,0,0,1,284.87,239.79Z"/><g class="cls-35"><circle class="cls-32" cx="189.7" cy="221.03" r="57.68"/><path class="cls-32" d="M136.31,242.86A57.42,57.42,0,0,0,166,273.57c5.17-13.29-18.76-23.72-8.91-39.21,23.81-28-8.11-28.35-21.11-34.21A57.41,57.41,0,0,0,136.31,242.86Z"/><path class="cls-32" d="M167.87,167.64c-.81.33-1.56.74-2.34,1.1,28.88-10.34,30.16,53.76,51.55,41.1s19.87,52.58-8,65.44c.82-.29,1.63-.53,2.44-.86a57.68,57.68,0,0,0-43.66-106.78Z"/><path class="cls-32" d="M193.59,251.73c-9.22-10.63-17.2,21.83-18,25.18A57.43,57.43,0,0,0,197,278.19a10.78,10.78,0,0,0-.7-3C194.06,269.6,202.82,262.36,193.59,251.73Z"/><path class="cls-32" d="M155.15,189c.52-6.8,7.14-7.48,5.16-12.31a9.1,9.1,0,0,0-2.71-3.54,57.26,57.26,0,0,0-13.46,12.63C146.65,189.1,154.64,195.74,155.15,189Z"/><path class="cls-32" d="M176.81,210.4c3.47,2.32,3.6,8.17,3.63,9.46.09,3.83-1.33,5.34-.06,7.4a4.74,4.74,0,0,0,3.29,2.23c3.62.46,8-4.63,8.64-9.72.52-4.28-1.75-7.54-3.85-10.57-1.83-2.64-5.16-7.43-9.63-7.25-1.87.08-4.52,1.06-5.37,3.15a3.86,3.86,0,0,0,0,2.87C174.08,209.4,175.49,209.51,176.81,210.4Z"/><path class="cls-32" d="M195,230.4c-.24.87-.78,2.83.38,4.08s3,1,4.25.47c1.92-.87,3.57-3.46,2.48-5.62a4.13,4.13,0,0,0-5.45-1.63A4.23,4.23,0,0,0,195,230.4Z"/></g><circle class="cls-36" cx="182.35" cy="221.82" r="57.7"/><path class="cls-37" d="M126.79,237.38a56.69,56.69,0,0,0,26.69,34.39c6.71-12.89-16.38-26.1-4.69-40.71,27.22-25.76-4.56-29.52-17.08-36.9A57.27,57.27,0,0,0,126.79,237.38Z"/><path class="cls-37" d="M166.42,166.42c-.84.24-1.63.56-2.45.84,29.85-7.15,24.16,56.73,46.81,46.46s14.05,54.45-15.05,64.22c.84-.21,1.68-.35,2.52-.59a57.7,57.7,0,1,0-31.83-110.93Z"/><path class="cls-37" d="M182.88,252.83c-8-11.57-19.49,19.84-20.61,23.09a57.4,57.4,0,0,0,21.17,3.6,10.86,10.86,0,0,0-.38-3.07C181.4,270.66,190.9,264.4,182.88,252.83Z"/><path class="cls-37" d="M151.46,186.23c1.25-6.71,7.91-6.67,6.47-11.68a9.25,9.25,0,0,0-2.31-3.82,57.38,57.38,0,0,0-14.76,11.1C143,185.46,150.21,192.93,151.46,186.23Z"/><path class="cls-37" d="M170.67,209.91c3.2,2.68,2.7,8.52,2.59,9.8-.33,3.82-1.9,5.17-.87,7.36a4.78,4.78,0,0,0,3,2.57c3.55.85,8.48-3.74,9.64-8.73,1-4.2-.91-7.69-2.67-10.93-1.54-2.82-4.33-7.95-8.79-8.25-1.87-.12-4.62.56-5.69,2.55a3.87,3.87,0,0,0-.33,2.84C168.07,208.62,169.46,208.88,170.67,209.91Z"/><path class="cls-37" d="M186.61,231.77c-.33.85-1.08,2.74-.06,4.1s2.9,1.35,4.17.93c2-.65,3.93-3.05,3.08-5.31a4.13,4.13,0,0,0-5.25-2.22A4.22,4.22,0,0,0,186.61,231.77Z"/><path class="cls-21" d="M270.38,124a.67.67,0,0,1,.38-.28c.36-.16.71-.33,1.06-.47.14-.06.34,0,.39.11a.27.27,0,0,1-.17.37c-.31.16-.63.29-1,.44l.27.59c.27-.11.53-.25.8-.35a.27.27,0,0,1,.26.45,8.09,8.09,0,0,1-.84.4c.11.25.23.49.33.75a.33.33,0,0,1-.06.35.34.34,0,0,1-.56-.07c-.3-.62-.57-1.26-.86-1.89a.47.47,0,0,1-.05-.4"/><path class="cls-21" d="M272.57,123.09a.36.36,0,0,1,.47-.28.47.47,0,0,1,.23.27l.78,1.73c.3-.13.6-.27.9-.39a.27.27,0,0,1,.39.21c0,.15-.13.27-.26.32l-1.13.5a.33.33,0,0,1-.44-.15c-.29-.62-.56-1.26-.85-1.89a.59.59,0,0,1-.09-.32"/><path class="cls-21" d="M274.73,122.36a.39.39,0,0,1,.22-.51l1.17-.53a.31.31,0,0,1,.4.08.27.27,0,0,1-.13.39l-.95.44.24.54a8.76,8.76,0,0,1,.84-.35.26.26,0,0,1,.2.46c-.25.16-.55.25-.82.39l.27.59c.32-.14.64-.29,1-.42a.27.27,0,1,1,.22.48l-1.28.58a.35.35,0,0,1-.47-.2l-.87-1.94"/><path class="cls-21" d="M276.89,121.52a.32.32,0,0,1,.08-.58.39.39,0,0,1,.36,0l.79.41c.08-.3.17-.59.25-.89a.41.41,0,0,1,.29-.32c.24,0,.49.2.4.43s-.23.72-.33,1.08l1.13.55a.33.33,0,0,1,.12.41.35.35,0,0,1-.49.17l-.92-.44c-.11.33-.17.66-.28,1a.35.35,0,0,1-.56.18.36.36,0,0,1-.08-.44c.1-.36.19-.71.29-1.06-.35-.18-.71-.34-1.05-.53"/><path class="cls-21" d="M279.49,120.17c-.1-.23.12-.44.33-.51a3.34,3.34,0,0,1,1.21-.41.76.76,0,0,1,.63,1.06.84.84,0,0,1,.65,1.17,1.15,1.15,0,0,1-.62.5c-.3.13-.59.28-.9.4a.34.34,0,0,1-.41-.22c-.3-.66-.6-1.32-.89-2"/><path class="cls-21" d="M282,119c-.09-.23.12-.44.34-.51a3,3,0,0,1,1.2-.41.76.76,0,0,1,.63,1.06.83.83,0,0,1,.59,1.27,1.76,1.76,0,0,1-.82.52c-.21.09-.42.2-.64.27a.34.34,0,0,1-.41-.21c-.3-.67-.6-1.33-.89-2"/><path class="cls-21" d="M284.42,118.14a.34.34,0,0,1,.17-.6.59.59,0,0,1,.34.1l.78.45c.09-.36.16-.72.25-1.07a.35.35,0,0,1,.57-.14c.12.1.09.26.06.39-.09.43-.17.85-.26,1.27.13.3.28.59.39.89a.36.36,0,0,1-.46.4c-.2-.08-.24-.3-.33-.47a3.65,3.65,0,0,0-.25-.53c-.41-.24-.85-.45-1.26-.69"/><path class="cls-21" d="M270.38,124a.67.67,0,0,1,.38-.28c.36-.16.71-.33,1.06-.47.14-.06.34,0,.39.11a.27.27,0,0,1-.17.37c-.31.16-.63.29-1,.44l.27.59c.27-.11.53-.25.8-.35a.27.27,0,0,1,.26.45,8.09,8.09,0,0,1-.84.4c.11.25.23.49.33.75a.33.33,0,0,1-.06.35.34.34,0,0,1-.56-.07c-.3-.62-.57-1.26-.86-1.89a.47.47,0,0,1-.05-.4"/><path class="cls-21" d="M272.57,123.09a.36.36,0,0,1,.47-.28.47.47,0,0,1,.23.27l.78,1.73c.3-.13.6-.27.9-.39a.27.27,0,0,1,.39.21c0,.15-.13.27-.26.32l-1.13.5a.33.33,0,0,1-.44-.15c-.29-.62-.56-1.26-.85-1.89a.59.59,0,0,1-.09-.32"/><path class="cls-21" d="M274.73,122.36a.39.39,0,0,1,.22-.51l1.17-.53a.31.31,0,0,1,.4.08.27.27,0,0,1-.13.39l-.95.44.24.54a8.76,8.76,0,0,1,.84-.35.26.26,0,0,1,.2.46c-.25.16-.55.25-.82.39l.27.59c.32-.14.64-.29,1-.42a.27.27,0,1,1,.22.48l-1.28.58a.35.35,0,0,1-.47-.2l-.87-1.94"/><path class="cls-21" d="M276.89,121.52a.32.32,0,0,1,.08-.58.39.39,0,0,1,.36,0l.79.41c.08-.3.17-.59.25-.89a.41.41,0,0,1,.29-.32c.24,0,.49.2.4.43s-.23.72-.33,1.08l1.13.55a.33.33,0,0,1,.12.41.35.35,0,0,1-.49.17l-.92-.44c-.11.33-.17.66-.28,1a.35.35,0,0,1-.56.18.36.36,0,0,1-.08-.44c.1-.36.19-.71.29-1.06-.35-.18-.71-.34-1.05-.53"/><path class="cls-21" d="M279.49,120.17c-.1-.23.12-.44.33-.51a3.34,3.34,0,0,1,1.21-.41.76.76,0,0,1,.63,1.06.84.84,0,0,1,.65,1.17,1.15,1.15,0,0,1-.62.5c-.3.13-.59.28-.9.4a.34.34,0,0,1-.41-.22c-.3-.66-.6-1.32-.89-2"/><path class="cls-21" d="M282,119c-.09-.23.12-.44.34-.51a3,3,0,0,1,1.2-.41.76.76,0,0,1,.63,1.06.83.83,0,0,1,.59,1.27,1.76,1.76,0,0,1-.82.52c-.21.09-.42.2-.64.27a.34.34,0,0,1-.41-.21c-.3-.67-.6-1.33-.89-2"/><path class="cls-21" d="M284.42,118.14a.34.34,0,0,1,.17-.6.59.59,0,0,1,.34.1l.78.45c.09-.36.16-.72.25-1.07a.35.35,0,0,1,.57-.14c.12.1.09.26.06.39-.09.43-.17.85-.26,1.27.13.3.28.59.39.89a.36.36,0,0,1-.46.4c-.2-.08-.24-.3-.33-.47a3.65,3.65,0,0,0-.25-.53c-.41-.24-.85-.45-1.26-.69"/></g></svg>