<?xml version="1.0" encoding="UTF-8"?>
<svg width="16px" height="16px" viewBox="0 0 16 16" version="1.1" xmlns="http://www.w3.org/2000/svg" xmlns:xlink="http://www.w3.org/1999/xlink">
    <!-- Generator: sketchtool 48.2 (47327) - http://www.bohemiancoding.com/sketch -->
    <title>032E8FE6-8E54-47D1-B625-EF6C1F9BBE0C</title>
    <desc>Created with sketchtool.</desc>
    <defs></defs>
    <g id="Main-page-" stroke="none" stroke-width="1" fill="none" fill-rule="evenodd" transform="translate(-490.000000, -2219.000000)">
        <path d="M499.88001,2223.95796 C499.906561,2223.99779 499.948429,2224.02536 499.996424,2224.03455 L505.848757,2225.13435 C506.010103,2225.16397 506.055034,2225.37229 505.921261,2225.46623 L501.040061,2228.88001 C501.001256,2228.90656 500.973685,2228.94945 500.964494,2228.99642 L499.865714,2234.84876 C499.8361,2235.0101 499.627781,2235.05503 499.533833,2234.92126 L496.120057,2230.04006 C496.092485,2230.00126 496.050617,2229.97471 496.003643,2229.96552 L490.150288,2228.86571 C489.989964,2228.8361 489.945033,2228.62778 490.078806,2228.53383 L494.957963,2225.12006 C494.99881,2225.09249 495.025361,2225.05062 495.034551,2225.00364 L496.134353,2219.15029 C496.163967,2218.98996 496.372286,2218.94503 496.466234,2219.07881 L499.88001,2223.95796 Z" id="Fill-16-Copy-3" fill="#7692CB"></path>
    </g>
</svg>