<?xml version="1.0" encoding="UTF-8"?>
<svg width="132px" height="25px" viewBox="0 0 132 25" version="1.1" xmlns="http://www.w3.org/2000/svg" xmlns:xlink="http://www.w3.org/1999/xlink">
    <!-- Generator: sketchtool 48.2 (47327) - http://www.bohemiancoding.com/sketch -->
    <title>34AC6315-4667-4C0B-B71D-04389DE38421</title>
    <desc>Created with sketchtool.</desc>
    <defs></defs>
    <g id="Main-page-" stroke="none" stroke-width="1" fill="none" fill-rule="evenodd" transform="translate(-490.000000, -29.000000)">
        <g id="logo_R-Copy" transform="translate(490.000000, 29.000000)" fill-rule="nonzero">
            <path d="M0.782034294,7.65314799 C1.64633387,6.98020764 2.9016261,7.01979236 3.99228985,7 C6.62634568,7.03958473 9.26040152,6.96041527 11.8944574,7.03958473 C12.9233854,7.07916945 14.0552063,7.75210981 13.9934706,8.70214325 C14.0963634,9.67196906 12.9645425,10.4240789 11.9150359,10.3844941 C9.52792282,10.4438712 7.14080971,10.3844941 4.77427517,10.4042865 C4.77427517,11.7699596 4.77427517,13.1158403 4.77427517,14.4815134 C6.77039561,14.5210981 8.76651605,14.4023439 10.7626365,14.5408905 C12.5529713,14.7783988 12.8616497,17.2524442 11.0918935,17.727461 C9.03403735,18.0441388 6.87328842,17.7868381 4.77427517,17.8660075 C4.75369661,19.5681508 4.8154323,21.270294 4.75369661,22.9724373 C4.73311805,23.7443394 4.23923258,24.4964493 3.41609013,24.8131271 C1.95501228,25.4464827 0.0206275287,24.3776951 0.0617846511,22.9922296 C-0.041108155,18.6774944 0.0412060899,14.3825516 4.89674271e-05,10.0678163 C4.89674271e-05,9.23653707 -0.0205295938,8.2469189 0.782034294,7.65314799 Z" id="Shape" fill="#020304"></path>
            <path d="M16.378843,8.00500263 C17.0168945,6.85703043 19.0307443,6.63931156 19.9678823,7.62894277 C20.5660555,8.18313625 20.6258728,9.01442646 20.6258728,9.74675356 C20.6258728,13.7052784 20.6258728,17.6440106 20.6258728,21.6025355 C22.7992355,21.6421207 24.9725981,21.5431576 27.1260217,21.6421207 C28.3223681,21.681706 29.3592017,22.7900929 28.8806631,23.8193094 C28.5815765,24.7099775 27.3852301,25.0266595 26.4480921,24.9870742 C23.7164344,24.9870742 21.0047159,25.0266595 18.2730582,24.9672816 C17.0966509,24.9870742 16.0199391,24.0568209 16.0398782,23.0078118 C15.9601218,18.6930197 16.0398782,14.3980203 16,10.0832282 C16.0598173,9.3706937 15.9401827,8.61857398 16.378843,8.00500263 Z" id="Shape" fill="#020304"></path>
            <path d="M32.0304666,9.36293436 C31.9069012,8.07225593 33.2867146,7 34.7694992,7.03971318 C37.7144741,6.98014341 40.6388548,7.01985659 43.5838298,7 C44.592947,7 45.7668182,7.51627137 45.8491951,8.44953116 C46.0757316,9.42250414 45.0666143,10.3359073 43.9339317,10.3756205 C41.545001,10.4351903 39.1560703,10.3756205 36.7671395,10.3954771 C36.7671395,11.6464424 36.7671395,12.877551 36.7671395,14.1285163 C38.8265626,14.2079426 40.9271741,13.9696635 42.9660028,14.2476558 C44.6959182,14.6050745 44.675324,17.0672918 42.9248144,17.4048538 C40.8859856,17.6828461 38.8059683,17.444567 36.7671395,17.5239934 C36.7671395,18.8742416 36.7671395,20.2443464 36.7671395,21.5945946 C39.1560703,21.6144512 41.545001,21.5548814 43.9339317,21.6144512 C44.9842374,21.574738 46.0963258,22.3292885 45.9933547,23.3022614 C46.0963258,24.2553778 44.9842374,24.9900717 43.9339317,24.9702151 C40.741826,25.0099283 37.5497203,25.0099283 34.3782088,24.9702151 C32.9366127,25.0297849 31.886307,23.8185328 32.0098724,22.6271373 C32.0304666,18.2388307 32.0304666,13.8108108 32.0304666,9.36293436 Z" id="Shape" fill="#020304"></path>
            <path d="M47.6865821,10.1224779 C46.5707787,8.8770339 47.9655329,6.80129394 49.7388633,7.03852136 C50.635491,7.01875241 51.3328681,7.57228307 51.8110695,8.18512058 C53.0264981,9.62825408 54.2419268,11.0516186 55.4573554,12.4947521 C56.7325593,10.9923118 58.0874633,9.56894722 59.3626672,8.06650687 C59.9205689,7.31528669 60.956672,6.86060079 61.97285,7.03852136 C63.5070796,7.45366936 64.4037073,9.41079561 63.2082037,10.498088 C61.6540491,12.3168316 59.9205689,13.9971925 58.3265641,15.7961671 C60.1198195,17.7730623 61.952925,19.7499575 63.6465551,21.8059285 C64.3439321,22.5769177 63.9055808,23.7235169 63.2281288,24.3956613 C62.3713512,25.3643399 60.5780958,25.0875746 59.8209436,24.1386649 C58.3265641,22.5571487 56.9118848,20.8965567 55.4772805,19.2557337 C53.962976,20.8570188 52.6678471,22.5966866 51.1535425,24.1782028 C50.2170647,25.3643399 47.8459826,25.1864193 47.2482308,23.8025927 C46.650479,22.833914 47.2283057,21.8059285 47.9655329,21.0547084 C49.4997625,19.2952716 51.0539172,17.5358349 52.5682218,15.7566292 C50.994142,13.8588098 49.2606618,12.0400662 47.6865821,10.1224779 Z" id="Shape" fill="#020304"></path>
            <path d="M67.0343345,9.05995567 C67.0966453,7.55630798 69.0490494,6.86383865 70.5860484,7.02211736 C73.4938843,7.16061122 76.630193,6.58685092 79.3095561,7.79372604 C82.466635,9.25780405 82.8612699,13.3730503 80.2857581,15.4108886 C83.5882289,17.1321696 83.8997827,21.5441884 81.0957981,23.7205206 C79.6626504,24.8086867 77.6687058,25.0658896 75.7993827,24.9867502 C73.5354248,24.9471805 71.2299263,25.0658896 68.9659684,24.9273957 C67.6989827,24.7889018 66.9304832,23.6809509 67.0135642,22.6521393 C67.0135642,18.1214114 66.9720237,13.5906836 67.0343345,9.05995567 Z" id="Shape" fill="#4A66AF"></path>
            <path d="M86.0343413,9.06213269 C86.07589,7.53744308 88.0286786,6.86420352 89.5867547,7.02261283 C92.474389,7.16122097 95.6320898,6.58698722 98.3119806,7.79485821 C101.490456,9.26014432 101.885168,13.3787864 99.2883749,15.4183062 C102.840788,17.2598145 102.923886,22.2695089 99.413021,24.1506194 C97.4602323,25.2396834 95.0296337,24.9624671 92.8067785,24.9822683 C91.1863794,24.9624671 89.5659803,25.0614729 87.9663556,24.9228648 C86.678346,24.7842567 85.9304695,23.6555903 86.0135669,22.6259298 C86.0135669,18.1112645 85.9720182,13.5965992 86.0343413,9.06213269 Z" id="Shape" fill="#4A66AF"></path>
            <path d="M103.334766,10.1209421 C102.191936,8.71641886 104.191889,6.42170487 106.069396,7.13385749 C106.885704,7.35145967 107.355081,8.00426624 107.824457,8.57794474 C109.048918,10.1011601 110.252972,11.6243754 111.436618,13.1673727 C112.946786,11.3474271 114.354917,9.46813551 115.946716,7.68775397 C117.028323,6.59974302 119.395615,6.95581933 119.844584,8.36034255 C120.293553,9.21096928 119.681323,10.061596 119.130315,10.7539666 C117.395662,12.9299885 115.701824,15.1060104 113.987578,17.2820323 C113.926355,19.299798 114.089617,21.3373458 113.905948,23.3551115 C113.661055,24.8981089 111.171318,25.5706974 109.946857,24.4233405 C108.94688,23.4935857 109.334626,22.0890624 109.252995,20.9417054 C109.21218,19.7152204 109.375441,18.4887353 109.150957,17.2820323 C107.293857,14.8290621 105.191866,12.5541302 103.334766,10.1209421 Z" id="Shape" fill="#020304"></path>
            <g id="Group" transform="translate(121.000000, 0.000000)" fill="#000000">
                <path d="M5.52075472,0.183333333 C2.53207547,0.183333333 0.103773585,2.56666667 0.103773585,5.5 C0.103773585,8.43333333 2.53207547,10.8166667 5.52075472,10.8166667 C8.50943396,10.8166667 10.9377358,8.43333333 10.9377358,5.5 C10.9377358,2.56666667 8.50943396,0.183333333 5.52075472,0.183333333 Z M5.52075472,9.92037037 C3.03018868,9.92037037 1.01698113,7.94444444 1.01698113,5.5 C1.01698113,3.05555556 3.03018868,1.07962963 5.52075472,1.07962963 C8.01132075,1.07962963 10.0245283,3.05555556 10.0245283,5.5 C10.0245283,7.94444444 8.01132075,9.92037037 5.52075472,9.92037037 Z" id="Shape"></path>
                <path d="M7.01509434,6.15185185 C6.8490566,5.98888889 6.66226415,5.82592593 6.41320755,5.68333333 C6.91132075,5.62222222 7.28490566,5.43888889 7.53396226,5.17407407 C7.78301887,4.90925926 7.90754717,4.56296296 7.90754717,4.15555556 C7.90754717,3.82962963 7.8245283,3.54444444 7.65849057,3.27962963 C7.49245283,3.03518519 7.28490566,2.85185185 7.01509434,2.75 C6.74528302,2.64814815 6.30943396,2.60740741 5.70754717,2.60740741 L3.32075472,2.60740741 L3.32075472,8.12777778 L4.46226415,8.12777778 L4.46226415,5.80555556 L4.69056604,5.80555556 C4.96037736,5.80555556 5.14716981,5.82592593 5.27169811,5.86666667 C5.39622642,5.90740741 5.5,5.98888889 5.60377358,6.09074074 C5.70754717,6.19259259 5.91509434,6.47777778 6.20566038,6.90555556 L7.03584906,8.10740741 L8.38490566,8.10740741 L7.7,7.02777778 C7.38867925,6.62037037 7.18113208,6.31481481 7.01509434,6.15185185 Z M5.27169811,4.92962963 L4.44150943,4.92962963 L4.44150943,3.52407407 L5.33396226,3.52407407 C5.79056604,3.52407407 6.06037736,3.52407407 6.16415094,3.54444444 C6.3509434,3.56481481 6.49622642,3.6462963 6.6,3.76851852 C6.70377358,3.89074074 6.74528302,4.03333333 6.74528302,4.21666667 C6.74528302,4.37962963 6.70377358,4.52222222 6.62075472,4.62407407 C6.53773585,4.72592593 6.43396226,4.80740741 6.30943396,4.84814815 C6.16415094,4.90925926 5.81132075,4.92962963 5.27169811,4.92962963 Z" id="Shape"></path>
            </g>
        </g>
    </g>
</svg>