<?xml version="1.0" encoding="UTF-8"?>
<svg width="86px" height="87px" viewBox="0 0 86 87" version="1.1" xmlns="http://www.w3.org/2000/svg" xmlns:xlink="http://www.w3.org/1999/xlink">
    <!-- Generator: sketchtool 48.2 (47327) - http://www.bohemiancoding.com/sketch -->
    <title>BC597611-318D-41E6-B50B-141D35F24F62</title>
    <desc>Created with sketchtool.</desc>
    <defs></defs>
    <g id="About" stroke="none" stroke-width="1" fill="none" fill-rule="evenodd" transform="translate(-559.000000, -2260.000000)">
        <g id="Group-7" transform="translate(559.000000, 2260.000000)">
            <ellipse id="Oval-4" fill="#FFFFFF" cx="43" cy="43.5" rx="43" ry="43.5"></ellipse>
            <g id="bayer-logo" fill-rule="nonzero">
                <path d="M40.6251752,13.5779221 L45.6111018,13.5779221 C46.1776843,13.5779221 46.6309504,13.1201299 46.6309504,12.5478896 C46.6309504,11.9756494 46.1776843,11.5178571 45.6111018,11.5178571 L40.6251752,11.5178571 L40.6251752,13.5779221 Z M40.6251752,18.3847403 L45.7244183,18.3847403 C46.2910008,18.3847403 46.8575834,17.8125 46.8575834,17.2402597 C46.8575834,16.6680195 46.2910008,16.0957792 45.7244183,16.0957792 L40.6251752,16.0957792 C40.6251752,16.0957792 40.6251752,18.3847403 40.6251752,18.3847403 Z M48.6706476,14.7224026 C49.3505467,15.4090909 49.8038127,16.3246753 49.8038127,17.3547078 C49.8038127,19.4147727 48.2173816,21.0170455 46.1776843,21.0170455 L37.9055789,21.0170455 L37.9055789,9 L46.0643678,9 C47.9907485,9 49.5771797,10.6022727 49.5771797,12.5478896 C49.4638632,13.349026 49.1239137,14.1501623 48.6706476,14.7224026 Z M50.5970283,35.3230519 L47.5374825,35.3230519 L46.6309504,33.262987 L39.9452761,33.262987 L39.038744,35.3230519 L35.9791982,35.3230519 L41.9849734,23.3060065 L44.7045697,23.3060065 L50.5970283,35.3230519 Z M43.231455,26.3961039 L41.1917578,30.7451299 L45.3844687,30.7451299 L43.231455,26.3961039 Z M47.3108495,37.9553571 L50.7103448,37.9553571 L44.7045697,45.7378247 L44.7045697,49.9724026 L41.8716569,49.9724026 L41.8716569,45.7378247 L35.8658817,37.9553571 L39.2653771,37.9553571 L43.3447715,43.4488636 L47.3108495,37.9553571 Z M63.0618447,37.9553571 L63.0618447,40.5876623 L55.1296888,40.5876623 L55.1296888,42.6477273 L62.8352117,42.6477273 L62.8352117,45.2800325 L55.1296888,45.2800325 L55.1296888,47.5689935 L63.0618447,47.5689935 L63.0618447,50.2012987 L52.296776,50.2012987 L52.296776,37.9553571 L63.0618447,37.9553571 Z M71.7872161,45.3944805 L69.6342024,45.3944805 L69.6342024,49.9724026 L66.8012896,49.9724026 L66.8012896,37.9553571 L74.0535464,37.9553571 C76.0932436,37.9553571 77.6796748,39.6720779 77.6796748,41.7321429 C77.6796748,43.4488636 76.5465097,44.8222403 75.073395,45.2800325 L78.5862069,49.9724026 L75.1867115,49.9724026 L71.7872161,45.3944805 Z M73.8269134,40.4732143 L69.7475189,40.4732143 L69.7475189,42.7621753 L73.8269134,42.7621753 C74.5068124,42.7621753 74.9600785,42.1899351 74.9600785,41.6176948 C74.9600785,41.0454545 74.3934959,40.4732143 73.8269134,40.4732143 Z M37.1123633,49.9724026 L34.0528175,49.9724026 L33.1462854,47.9123377 L26.4606112,47.9123377 L25.5540791,49.9724026 L22.4945332,49.9724026 L28.5003084,37.9553571 L31.2199047,37.9553571 L37.1123633,49.9724026 Z M29.74679,41.0454545 L27.7070928,45.3944805 L31.8998038,45.3944805 L29.74679,41.0454545 Z M11.7294645,42.5332792 L16.7153911,42.5332792 C17.2819736,42.5332792 17.7352397,42.075487 17.7352397,41.5032468 C17.7352397,40.9310065 17.2819736,40.4732143 16.7153911,40.4732143 L11.7294645,40.4732143 L11.7294645,42.5332792 Z M11.7294645,47.3400974 L16.8287076,47.3400974 C17.3952902,47.3400974 17.9618727,46.7678571 17.9618727,46.1956169 C17.9618727,45.6233766 17.3952902,45.0511364 16.8287076,45.0511364 L11.7294645,45.0511364 L11.7294645,47.3400974 Z M19.7749369,43.6777597 C20.454836,44.3644481 20.908102,45.2800325 20.908102,46.3100649 C20.908102,48.3701299 19.3216709,49.9724026 17.2819736,49.9724026 L8.89655172,49.9724026 L8.89655172,37.9553571 L17.0553406,37.9553571 C18.9817213,37.9553571 20.5681525,39.5576299 20.5681525,41.5032468 C20.5681525,42.3043831 20.228203,43.1055195 19.7749369,43.6777597 Z M48.6706476,52.4902597 L48.6706476,55.0081169 L40.7384917,55.0081169 L40.7384917,57.0681818 L48.4440146,57.0681818 L48.4440146,59.700487 L40.7384917,59.700487 L40.7384917,61.9894481 L48.6706476,61.9894481 L48.6706476,64.6217532 L37.9055789,64.6217532 L37.9055789,52.4902597 L48.6706476,52.4902597 Z M46.6309504,71.1452922 C46.6309504,70.4586039 46.1776843,70.0008117 45.4977853,70.0008117 L40.6251752,70.0008117 L40.6251752,72.2897727 L45.4977853,72.2897727 C46.0643678,72.2897727 46.6309504,71.8319805 46.6309504,71.1452922 Z M37.7922624,79.5 L37.7922624,67.3685065 L45.7244183,67.3685065 C47.7641155,67.3685065 49.3505467,69.0852273 49.3505467,71.1452922 C49.3505467,72.7475649 48.4440146,74.0064935 47.0842164,74.5787338 L50.7103448,79.3855519 L47.3108495,79.3855519 L43.9113541,74.8076299 L40.6251752,74.8076299 L40.6251752,79.3855519 L37.7922624,79.5 Z" id="Shape" fill="#10384F"></path>
                <path d="M85.886693,40.5 C84.5270092,17.9243697 65.831357,0 42.9433465,0 C20.055336,0 1.35968379,17.9243697 0,40.5 C0.113306983,41.407563 0.113306983,42.3151261 0.226613966,43.2226891 C1.13306983,50.710084 3.9657444,57.6302521 8.27140975,63.4159664 C16.0895916,74.0798319 28.6666667,81 42.9433465,81 C23.0013175,81 6.68511199,65.4579832 5.32542819,45.9453782 C5.32542819,45.0378151 5.21212121,44.1302521 5.21212121,43.3361345 C5.21212121,42.5420168 5.21212121,41.5210084 5.32542819,40.7268908 C6.68511199,20.8739496 23.0013175,5.33193277 42.9433465,5.33193277 C57.2200264,5.33193277 69.7971014,12.2521008 77.6152833,22.9159664 C81.9209486,28.7016807 84.7536232,35.6218487 85.6600791,43.1092437 C85.773386,44.0168067 85.886693,44.8109244 85.886693,45.7184874 C85.886693,44.8109244 86,43.9033613 86,42.9957983 C86,42.0882353 86,41.2941176 85.886693,40.5" id="Shape" fill="#89D329"></path>
                <path d="M0.113306983,47.3057504 C1.47299078,69.3828892 20.168643,87 43.0566535,87 C65.944664,87 84.6403162,69.3828892 86,47.1942496 C85.886693,46.302244 85.886693,45.4102384 85.773386,44.5182328 C84.8669302,37.1591865 82.0342556,30.3576438 77.7285903,24.671108 C69.9104084,14.3015428 57.3333333,7.5 43.0566535,7.5 C62.9986825,7.5 79.314888,22.7755961 80.6745718,41.9537167 C80.7878788,42.8457223 80.7878788,43.7377279 80.7878788,44.5182328 C80.7878788,45.2987377 80.7878788,46.302244 80.6745718,47.0827489 C79.314888,66.483871 62.9986825,81.759467 43.0566535,81.759467 C28.8932806,81.759467 16.2028986,74.9579243 8.38471673,64.4768583 C4.07905138,58.7903226 1.24637681,51.9887798 0.339920949,44.6297335 C0.226613966,43.7377279 0.113306983,42.957223 0.113306983,42.0652174 C0,42.8457223 0,43.7377279 0,44.6297335 C0,45.5217391 0,46.4137447 0.113306983,47.3057504" id="Shape" fill="#00BCFF"></path>
            </g>
        </g>
    </g>
</svg>