<?xml version="1.0" encoding="UTF-8"?>
<svg width="24px" height="23px" viewBox="0 0 24 23" version="1.1" xmlns="http://www.w3.org/2000/svg" xmlns:xlink="http://www.w3.org/1999/xlink">
    <!-- Generator: sketchtool 48.2 (47327) - http://www.bohemiancoding.com/sketch -->
    <title>3D0D9B47-82F2-4671-9029-FF7181A04673</title>
    <desc>Created with sketchtool.</desc>
    <defs></defs>
    <g id="contact-us" stroke="none" stroke-width="1" fill="none" fill-rule="evenodd" transform="translate(-489.000000, -614.000000)">
        <g id="Group-16" transform="translate(489.000000, 614.000000)">
            <path d="M23.4919059,11.6744 C23.4919059,17.9299294 18.4222588,22.9995765 12.1667294,22.9995765 C5.9112,22.9995765 0.841552941,17.9299294 0.841552941,11.6744 C0.841552941,5.41887059 5.9112,0.349223529 12.1667294,0.349223529 C18.4222588,0.349223529 23.4919059,5.41887059 23.4919059,11.6744" id="Fill-12" fill="#7591CA"></path>
            <path d="M13.5854118,11.0869647 C13.1929412,11.4780235 12.72,11.6742588 12.1665882,11.6742588 C11.6131765,11.6742588 11.1402353,11.4780235 10.7477647,11.0869647 C10.3552941,10.6944941 10.1604706,10.2215529 10.1604706,9.66672941 C10.1604706,9.11472941 10.3552941,8.64178824 10.7477647,8.24790588 C11.1402353,7.85684706 11.6131765,7.66061176 12.1665882,7.66061176 C12.72,7.66061176 13.1929412,7.85684706 13.5854118,8.24790588 C13.9764706,8.64178824 14.1741176,9.11472941 14.1741176,9.66672941 C14.1741176,10.2215529 13.9764706,10.6944941 13.5854118,11.0869647 M15.0042353,6.82908235 C14.2207059,6.04696471 13.2748235,5.65308235 12.1665882,5.65308235 C11.0583529,5.65308235 10.1124706,6.04696471 9.32894118,6.82908235 C8.54541176,7.61402353 8.15294118,8.55990588 8.15294118,9.66672941 C8.15294118,10.2370824 8.23905882,10.7043765 8.41129412,11.0700235 L11.2729412,17.1377882 C11.3505882,17.3100235 11.472,17.4469647 11.6371765,17.5443765 C11.8023529,17.6460235 11.9788235,17.6954353 12.1665882,17.6954353 C12.3543529,17.6954353 12.5308235,17.6460235 12.696,17.5443765 C12.8597647,17.4469647 12.984,17.3100235 13.0687059,17.1377882 L15.9204706,11.0700235 C16.0941176,10.7043765 16.1802353,10.2370824 16.1802353,9.66672941 C16.1802353,8.55990588 15.7877647,7.61402353 15.0042353,6.82908235" id="Fill-14" fill="#FEFEFE"></path>
        </g>
    </g>
</svg>