<?xml version="1.0" encoding="UTF-8"?>
<svg width="24px" height="24px" viewBox="0 0 24 24" version="1.1" xmlns="http://www.w3.org/2000/svg" xmlns:xlink="http://www.w3.org/1999/xlink">
    <!-- Generator: sketchtool 48.2 (47327) - http://www.bohemiancoding.com/sketch -->
    <title>DB1C8EDD-234B-497E-BE4E-CC12A58B0F8B</title>
    <desc>Created with sketchtool.</desc>
    <defs></defs>
    <g id="contact-us" stroke="none" stroke-width="1" fill="none" fill-rule="evenodd" transform="translate(-489.000000, -505.000000)">
        <g id="Group-3" transform="translate(489.000000, 505.000000)">
            <path d="M23.9235,11.9625 C23.9235,18.5685 18.5685,23.925 11.961,23.925 C5.355,23.925 0,18.5685 0,11.9625 C0,5.3565 5.355,0 11.961,0 C18.5685,0 23.9235,5.3565 23.9235,11.9625" id="Fill-2" fill="#7591CA"></path>
            <path d="M18.3765,15.6105 C18.342,15.5055 18.1185,15.348 17.7075,15.1425 C17.595,15.0795 17.4375,14.991 17.232,14.88 C17.0265,14.7675 16.839,14.664 16.6725,14.571 C16.5045,14.4765 16.347,14.3865 16.2015,14.298 C16.1775,14.28 16.104,14.229 15.981,14.142 C15.8565,14.058 15.753,13.995 15.6675,13.9545 C15.5835,13.9125 15.4995,13.8915 15.417,13.8915 C15.3,13.8915 15.153,13.9755 14.976,14.142 C14.8005,14.3115 14.6385,14.493 14.4915,14.6895 C14.3445,14.8875 14.19,15.069 14.025,15.2355 C13.8615,15.402 13.725,15.4875 13.62,15.4875 C13.5675,15.4875 13.5015,15.471 13.422,15.444 C13.3425,15.414 13.2825,15.3885 13.2405,15.369 C13.2,15.3465 13.1295,15.306 13.0305,15.2445 C12.93,15.183 12.8745,15.1485 12.8625,15.1425 C12.0585,14.697 11.3685,14.1855 10.7925,13.611 C10.2165,13.035 9.7065,12.345 9.2595,11.5395 C9.2535,11.5275 9.2205,11.472 9.1575,11.373 C9.096,11.2725 9.0555,11.2035 9.0345,11.1615 C9.0135,11.121 8.9895,11.061 8.9595,10.98 C8.931,10.9005 8.916,10.8345 8.916,10.782 C8.916,10.677 9,10.542 9.1665,10.3785 C9.3345,10.212 9.516,10.0575 9.714,9.9105 C9.909,9.765 10.092,9.6015 10.2585,9.426 C10.4265,9.2505 10.5105,9.1035 10.5105,8.9865 C10.5105,8.9025 10.4895,8.82 10.449,8.7345 C10.4085,8.649 10.3455,8.5455 10.2585,8.4225 C10.1745,8.298 10.1235,8.2245 10.1055,8.202 C10.017,8.055 9.9255,7.8975 9.8325,7.731 C9.738,7.563 9.6345,7.377 9.5235,7.1715 C9.4125,6.9645 9.324,6.807 9.2595,6.696 C9.054,6.2835 8.898,6.0615 8.793,6.0255 C8.751,6.009 8.6895,6 8.607,6 C8.4495,6 8.2425,6.0285 7.986,6.087 C7.731,6.1455 7.53,6.207 7.383,6.2715 C7.0905,6.396 6.7785,6.7545 6.45,7.347 C6.15,7.899 6,8.4465 6,8.985 C6,9.144 6.0105,9.2985 6.0315,9.4485 C6.051,9.597 6.0885,9.7665 6.141,9.954 C6.1935,10.1415 6.237,10.2825 6.2685,10.374 C6.3015,10.464 6.3615,10.6275 6.4485,10.8615 C6.537,11.097 6.591,11.241 6.6075,11.2935 C6.8145,11.8695 7.0575,12.384 7.3395,12.834 C7.803,13.587 8.436,14.364 9.237,15.165 C10.038,15.966 10.815,16.599 11.5665,17.064 C12.0195,17.346 12.5325,17.589 13.1085,17.7945 C13.161,17.8125 13.3065,17.865 13.5405,17.9535 C13.776,18.042 13.938,18.102 14.0295,18.135 C14.121,18.1665 14.2605,18.2085 14.448,18.2625 C14.6355,18.315 14.805,18.351 14.955,18.372 C15.1035,18.3915 15.258,18.402 15.417,18.402 C15.957,18.402 16.503,18.2535 17.055,17.9535 C17.649,17.625 18.006,17.3145 18.129,17.019 C18.195,16.8735 18.2565,16.6725 18.315,16.416 C18.3735,16.161 18.4035,15.954 18.4035,15.795 C18.4035,15.7125 18.3945,15.651 18.3765,15.6105" id="Fill-3" fill="#FEFEFE"></path>
        </g>
    </g>
</svg>