<?xml version="1.0" encoding="UTF-8"?>
<svg width="23px" height="23px" viewBox="0 0 23 23" version="1.1" xmlns="http://www.w3.org/2000/svg" xmlns:xlink="http://www.w3.org/1999/xlink">
    <!-- Generator: sketchtool 48.2 (47327) - http://www.bohemiancoding.com/sketch -->
    <title>F2122DDA-CECB-4F40-8B0B-2DFD16D78018</title>
    <desc>Created with sketchtool.</desc>
    <defs></defs>
    <g id="contact-us" stroke="none" stroke-width="1" fill="none" fill-rule="evenodd" transform="translate(-490.000000, -559.000000)">
        <g id="Group-11" transform="translate(490.000000, 559.000000)">
            <path d="M22.6470588,11.5024941 C22.6470588,17.7199059 17.6070588,22.7613176 11.3882353,22.7613176 C5.17082353,22.7613176 0.130823529,17.7199059 0.130823529,11.5024941 C0.130823529,5.28649412 5.17082353,0.245082353 11.3882353,0.245082353 C17.6070588,0.245082353 22.6470588,5.28649412 22.6470588,11.5024941" id="Fill-5" fill="#7591CA"></path>
            <path d="M6.94597647,9.84663529 C7.08574118,9.94404706 7.50503529,10.2348706 8.20385882,10.7205176 C8.90409412,11.2061647 9.43915294,11.5788706 9.81185882,11.8400471 C9.8528,11.8696941 9.94032941,11.9318118 10.0716235,12.0278118 C10.2057412,12.1238118 10.3158588,12.2014588 10.4033882,12.2607529 C10.4923294,12.3200471 10.5982118,12.3864 10.7224471,12.4612235 C10.8480941,12.5332235 10.9652706,12.5882824 11.0753882,12.6264 C11.1855059,12.6631059 11.2885647,12.6814588 11.3831529,12.6814588 L11.3888,12.6814588 L11.3944471,12.6814588 C11.4890353,12.6814588 11.5920941,12.6631059 11.7022118,12.6264 C11.8123294,12.5882824 11.9295059,12.5332235 12.0551529,12.4612235 C12.1793882,12.3864 12.2852706,12.3200471 12.3742118,12.2607529 C12.4617412,12.2014588 12.5718588,12.1238118 12.7059765,12.0278118 C12.8386824,11.9318118 12.9248,11.8696941 12.9657412,11.8400471 C13.3426824,11.5788706 14.2998588,10.9139294 15.8372706,9.84663529 C16.1365647,9.63769412 16.3864471,9.3864 16.5869176,9.09134118 C16.7873882,8.79769412 16.8876235,8.48851765 16.8876235,8.16522353 C16.8876235,7.89416471 16.7902118,7.66404706 16.5953882,7.47063529 C16.4019765,7.28004706 16.1718588,7.18263529 15.9050353,7.18263529 L6.87256471,7.18263529 C6.55774118,7.18263529 6.31491765,7.28851765 6.14550588,7.50169412 C5.97609412,7.71487059 5.88997647,7.98169412 5.88997647,8.29934118 C5.88997647,8.55769412 6.00291765,8.83581176 6.22738824,9.13792941 C6.45327059,9.43863529 6.69185882,9.6744 6.94597647,9.84663529" id="Fill-7" fill="#FEFEFE"></path>
            <path d="M16.2735059,10.5029647 C14.9323294,11.4121412 13.9130353,12.1180235 13.2170353,12.6206118 C12.9840941,12.7914353 12.7949176,12.9255529 12.6509176,13.0215529 C12.5055059,13.1189647 12.3120941,13.2163765 12.0692706,13.3166118 C11.8292706,13.4154353 11.6033882,13.4676706 11.3944471,13.4676706 L11.3888,13.4676706 L11.3831529,13.4676706 C11.1742118,13.4676706 10.9497412,13.4154353 10.7083294,13.3166118 C10.4669176,13.2163765 10.2735059,13.1189647 10.1280941,13.0215529 C9.98268235,12.9255529 9.79350588,12.7914353 9.56056471,12.6206118 C9.00856471,12.2154353 7.99068235,11.5095529 6.50974118,10.5029647 C6.2768,10.3476706 6.07068235,10.1697882 5.89138824,9.96931765 L5.89138824,14.8413176 C5.89138824,15.1123765 5.98597647,15.3424941 6.17938824,15.5344941 C6.37138824,15.7264941 6.60150588,15.8239059 6.87256471,15.8239059 L15.9050353,15.8239059 C16.1760941,15.8239059 16.4062118,15.7264941 16.5982118,15.5344941 C16.7916235,15.3424941 16.8876235,15.1123765 16.8876235,14.8413176 L16.8876235,9.96931765 C16.7111529,10.1655529 16.5078588,10.3434353 16.2735059,10.5029647" id="Fill-9" fill="#FEFEFE"></path>
        </g>
    </g>
</svg>