<?xml version="1.0" encoding="UTF-8"?>
<svg width="24px" height="24px" viewBox="0 0 24 24" version="1.1" xmlns="http://www.w3.org/2000/svg" xmlns:xlink="http://www.w3.org/1999/xlink">
    <!-- Generator: sketchtool 48.2 (47327) - http://www.bohemiancoding.com/sketch -->
    <title>C044412E-22BC-49B4-A562-488A33983589</title>
    <desc>Created with sketchtool.</desc>
    <defs></defs>
    <g id="contact-us" stroke="none" stroke-width="1" fill="none" fill-rule="evenodd" transform="translate(-489.000000, -667.000000)">
        <g id="twitter" transform="translate(489.000000, 667.000000)">
            <g id="Group-3-Copy" fill="#7591CA">
                <path d="M23.9235,11.9625 C23.9235,18.5685 18.5685,23.925 11.961,23.925 C5.355,23.925 0,18.5685 0,11.9625 C0,5.3565 5.355,0 11.961,0 C18.5685,0 23.9235,5.3565 23.9235,11.9625" id="Fill-2"></path>
            </g>
            <path d="M18,9.18315735 C17.5583326,9.38393423 17.0844299,9.52009881 16.5865075,9.58088908 C17.0949201,9.26854938 17.4840972,8.7731348 17.6685485,8.1846238 C17.1916457,8.47387044 16.6652331,8.68390064 16.1043302,8.79775667 C15.6551726,8.30618423 15.0162892,8 14.3076606,8 C12.9481682,8 11.8458723,9.13085599 11.8458723,10.5248079 C11.8458723,10.7225071 11.8676174,10.9155997 11.9096175,11.1002436 C9.86400631,10.9948362 8.05010139,9.98938282 6.8360798,8.46155951 C6.62386376,8.83390496 6.50313808,9.26776486 6.50313808,9.73089341 C6.50313808,10.6071222 6.93806036,11.380257 7.59794379,11.8325833 C7.19451176,11.8187436 6.81507976,11.7048876 6.48290275,11.5156371 L6.48290275,11.5471788 C6.48290275,12.7703467 7.33174727,13.7911888 8.45727852,14.0235276 C8.2510625,14.0804556 8.03361117,14.1119973 7.80865001,14.1119973 C7.64968897,14.1119973 7.49596323,14.0958443 7.34523749,14.0650669 C7.65866938,15.0689915 8.567514,15.7990381 9.64431968,15.8190534 C8.80222027,16.4960341 7.74041461,16.8983724 6.58713821,16.8983724 C6.38843201,16.8983724 6.1927062,16.8860615 6,16.8637529 C7.0895508,17.5815087 8.38306272,18 9.77330028,18 C14.3016998,18 16.776998,14.1520079 16.776998,10.8148391 L16.7687431,10.4878953 C17.2523909,10.1339961 17.6708034,9.68935406 18,9.18315735 Z" id="Shape" fill="#FFFFFF" fill-rule="nonzero"></path>
        </g>
    </g>
</svg>