<?xml version="1.0" encoding="UTF-8"?>
<svg width="24px" height="24px" viewBox="0 0 24 24" version="1.1" xmlns="http://www.w3.org/2000/svg" xmlns:xlink="http://www.w3.org/1999/xlink">
    <!-- Generator: sketchtool 48.2 (47327) - http://www.bohemiancoding.com/sketch -->
    <title>7A9E73C8-CB9F-4042-B992-F22C22AF3AB9</title>
    <desc>Created with sketchtool.</desc>
    <defs></defs>
    <g id="contact-us" stroke="none" stroke-width="1" fill="none" fill-rule="evenodd" transform="translate(-489.000000, -774.000000)">
        <g id="Group-2" transform="translate(489.000000, 774.000000)">
            <g id="facebook-copy" fill="#7591CA">
                <circle id="Oval-6" cx="12" cy="12" r="12"></circle>
            </g>
            <g id="play-button-(2)" transform="translate(9.000000, 7.000000)" fill="#FFFFFF" fill-rule="nonzero">
                <path d="M8.87458065,5.28431371 L0.455225806,0.0460913831 C0.366096774,-0.00917186239 0.250548387,-0.014933907 0.155322581,0.0298528939 C0.0598064516,0.0751635171 0,0.164213297 0,0.261644232 L0,10.7380889 C0,10.8355198 0.0598064516,10.9248315 0.155322581,10.9701421 C0.197709677,10.9900474 0.24416129,11 0.290322581,11 C0.348096774,11 0.405580645,10.9842853 0.455225806,10.9536417 L8.87458065,5.71541941 C8.95325806,5.66644203 9,5.58603532 9,5.49986656 C9,5.4136978 8.95296774,5.33329109 8.87458065,5.28431371 Z" id="Shape"></path>
            </g>
        </g>
    </g>
</svg>