<?xml version="1.0" encoding="UTF-8"?>
<svg width="16px" height="16px" viewBox="0 0 16 16" version="1.1" xmlns="http://www.w3.org/2000/svg" xmlns:xlink="http://www.w3.org/1999/xlink">
    <!-- Generator: sketchtool 48.2 (47327) - http://www.bohemiancoding.com/sketch -->
    <title>01D3C5F6-1AE5-4A3C-9E0A-C04F7151B672</title>
    <desc>Created with sketchtool.</desc>
    <defs></defs>
    <g id="Solutions-" stroke="none" stroke-width="1" fill="none" fill-rule="evenodd" transform="translate(-490.000000, -1230.000000)">
        <path d="M496.466234,1230.07881 L499.88001,1234.95796 C499.906561,1234.99779 499.948429,1235.02536 499.996424,1235.03455 L505.848757,1236.13435 C506.010103,1236.16397 506.055034,1236.37229 505.921261,1236.46623 L501.040061,1239.87899 C501.001256,1239.90656 500.973685,1239.94843 500.964494,1239.99642 L499.865714,1245.84876 C499.8361,1246.0101 499.627781,1246.05503 499.533833,1245.92126 L496.120057,1241.04006 C496.092485,1241.00126 496.050617,1240.97368 496.003643,1240.96449 L490.150288,1239.86571 C489.989964,1239.8361 489.945033,1239.62676 490.078806,1239.53383 L494.957963,1236.12006 C494.99881,1236.09249 495.025361,1236.05062 495.034551,1236.00364 L496.134353,1230.15029 C496.163967,1229.98996 496.372286,1229.94503 496.466234,1230.07881" id="Fill-24" fill="#EDC21A"></path>
    </g>
</svg>