<?xml version="1.0" encoding="UTF-8"?>
<svg width="72px" height="51px" viewBox="0 0 72 51" version="1.1" xmlns="http://www.w3.org/2000/svg" xmlns:xlink="http://www.w3.org/1999/xlink">
    <!-- Generator: sketchtool 48.2 (47327) - http://www.bohemiancoding.com/sketch -->
    <title>00D61A66-E35D-45C9-888C-0866E979D2E3</title>
    <desc>Created with sketchtool.</desc>
    <defs></defs>
    <g id="Main-page-" stroke="none" stroke-width="1" fill="none" fill-rule="evenodd" transform="translate(-1848.000000, -2698.000000)">
        <g id="Logo_of_the_Skolkovo_Foundation" transform="translate(1848.000000, 2697.000000)" fill-rule="nonzero">
            <g id="g3826" transform="translate(37.000000, 26.500000) scale(-1, 1) rotate(-180.000000) translate(-37.000000, -26.500000) ">
                <g id="g4151" transform="translate(0.216121, 0.276113)">
                    <polygon id="path4086" fill="#BFDF14" points="0.370422328 0.100337302 72.482359 0.100337302 72.482359 51.3563627 0.370422328 51.3563627"></polygon>
                    <path d="M12.8839352,14.1096234 C12.7606037,14.5578896 12.5158861,15.4265505 11.2292706,15.4265505 C10.4815007,15.4265505 9.35128659,14.8942828 9.35128659,12.7996642 C9.35128659,11.4695755 9.91619912,10.2370371 11.2292706,10.2370371 C12.0933689,10.2370371 12.6995216,10.7561433 12.8839352,11.6658372 L14.4370556,11.6658372 C14.1293106,10.0496789 13.0702941,8.92630366 11.2008694,8.92630366 C9.21900679,8.92630366 7.80011148,10.2672312 7.80011148,12.8209549 C7.80011148,15.4176471 9.30109808,16.7345742 11.2203223,16.7345742 C13.4515711,16.7345742 14.3522409,15.2024174 14.4370556,14.1096234 L12.8839352,14.1096234 Z" id="path4088" fill="#5D6163"></path>
                    <polygon id="path4090" fill="#5D6163" points="16.3381108 12.5334142 18.163961 14.6195165 19.9423461 14.6195165 18.0013346 12.4947038 19.9944799 9.11993298 18.2569459 9.11993298 16.9399838 11.4820403 16.3381108 10.8568677 16.3381108 9.11993298 14.8888689 9.11993298 14.8888689 14.6195165 16.3381108 14.6195165 16.3381108 12.5334142"></polygon>
                    <path d="M25.296254,11.8806023 C25.296254,9.89824385 23.959839,8.97577553 22.4802506,8.97577553 C21.0029966,8.97577553 19.655688,9.88469522 19.655688,11.8678279 C19.655688,13.852509 21.0029966,14.76259 22.4802506,14.76259 C23.959839,14.76259 25.296254,13.8633479 25.296254,11.8806023 M21.145781,11.8806023 C21.145781,11.1760735 21.3605411,10.1955396 22.4802506,10.1955396 C23.6003493,10.1955396 23.805772,11.1652345 23.805772,11.8678279 C23.805772,12.5746794 23.6003493,13.5447615 22.4802506,13.5447615 C21.3605411,13.5447615 21.145781,12.5855183 21.145781,11.8806023" id="path4092" fill="#5D6163"></path>
                    <path d="M30.7419797,14.619981 L30.7419797,9.1200104 L29.2927378,9.1200104 L29.2927378,13.4625407 L27.7419518,13.4625407 L27.7419518,11.766639 C27.7419518,9.66311701 27.1054525,8.99962112 26.0872872,8.99962112 C25.8340103,8.99962112 25.4200523,9.04026702 25.2056813,9.1200104 L25.2056813,10.1953847 C25.2356388,10.174094 25.4200523,10.1543517 25.6344234,10.1543517 C26.0697796,10.1543517 26.2950443,10.368033 26.2950443,12.042644 L26.2950443,14.619981 L30.7419797,14.619981 Z" id="path4094" fill="#5D6163"></path>
                    <polygon id="path4096" fill="#5D6163" points="32.931327 12.5334142 34.7571772 14.6195165 36.5355623 14.6195165 34.5926056 12.4947038 36.5876961 9.11993298 34.8501621 9.11993298 33.5355344 11.4820403 32.931327 10.8568677 32.931327 9.11993298 31.4820851 9.11993298 31.4820851 14.6195165 32.931327 14.6195165 32.931327 12.5334142"></polygon>
                    <path d="M41.8893925,11.8806023 C41.8893925,9.89824385 40.5553118,8.97577553 39.0757234,8.97577553 C37.596135,8.97577553 36.2511608,9.88469522 36.2511608,11.8678279 C36.2511608,13.852509 37.596135,14.76259 39.0757234,14.76259 C40.5553118,14.76259 41.8893925,13.8633479 41.8893925,11.8806023 M37.7416428,11.8806023 C37.7416428,11.1760735 37.9560139,10.1955396 39.0757234,10.1955396 C40.1907643,10.1955396 40.4035791,11.1652345 40.4035791,11.8678279 C40.4035791,12.5746794 40.1907643,13.5447615 39.0757234,13.5447615 C37.9560139,13.5447615 37.7416428,12.5855183 37.7416428,11.8806023" id="path4098" fill="#5D6163"></path>
                    <path d="M42.3591024,14.6195939 L44.8545218,14.6195939 C46.0890036,14.6195939 46.9920077,14.1171332 46.9920077,13.198923 C46.9920077,12.5656212 46.539533,12.158388 45.9629487,12.0139983 C46.5282503,11.8796733 47.1561903,11.520441 47.1561903,10.6211989 C47.1561903,9.60234172 46.3811863,9.11923619 45.1291969,9.11923619 L42.3591024,9.11923619 L42.3591024,14.6195939 Z M43.8056209,12.3929729 L44.7502542,12.3929729 C45.2311302,12.3929729 45.5715561,12.5845893 45.5715561,13.0158229 C45.5715561,13.4644762 45.2439691,13.627834 44.7611479,13.627834 L43.8056209,13.627834 L43.8056209,12.3929729 Z M43.8056209,10.110609 L44.8712513,10.110609 C45.4065955,10.110609 45.7380731,10.2743539 45.7380731,10.8178476 C45.7380731,11.2982434 45.3890878,11.520441 44.8545218,11.520441 L43.8056209,11.520441 L43.8056209,10.110609 Z" id="path4100" fill="#5D6163"></path>
                    <path d="M52.9566942,11.8806023 C52.9566942,9.89824385 51.6245589,8.97577553 50.1430252,8.97577553 C48.665386,8.97577553 47.3161321,9.88469522 47.3161321,11.8678279 C47.3161321,13.852509 48.665386,14.76259 50.1430252,14.76259 C51.6245589,14.76259 52.9566942,13.8633479 52.9566942,11.8806023 M48.8066141,11.8806023 C48.8066141,11.1760735 49.0248719,10.1955396 50.1430252,10.1955396 C51.2627347,10.1955396 51.4666013,11.1652345 51.4666013,11.8678279 C51.4666013,12.5746794 51.2627347,13.5447615 50.1430252,13.5447615 C49.0248719,13.5447615 48.8066141,12.5855183 48.8066141,11.8806023" id="path4102" fill="#5D6163"></path>
                    <path d="M18.3344463,17.9778354 C19.5693171,17.9778354 22.6101961,18.1930651 24.8826851,19.8440628 L24.8826851,18.591782 L29.4677362,18.591782 L29.4724049,24.0983334 L31.3869604,26.0702401 L35.554552,18.591782 L41.0558352,18.591782 L34.7421985,29.277395 L40.8916527,36.0122267 L35.2600311,36.0122267 L29.4724049,29.404365 L29.4724049,42.0982724 L24.8826851,42.0982724 L24.8826851,40.089978 C23.485188,41.5830373 21.219702,42.712219 17.6870534,42.712219 C10.0405032,42.712219 8.6048784,38.083619 8.6048784,35.4927334 C8.6048784,31.9325398 10.5283822,29.9540524 13.8789516,29.1457797 L18.6293524,27.9821457 C21.1348873,27.3658765 22.9265004,26.9133521 22.9265004,25.0680284 C22.9265004,22.6068225 20.3209775,22.0250055 17.9772908,22.0250055 C13.6816991,22.0250055 12.9669991,24.5167926 12.9669991,25.8437844 L8.2473339,25.8437844 C8.2473339,22.9304413 9.74404086,17.9778354 18.3344463,17.9778354 M21.46014,31.9948636 L15.7028565,33.3895985 C14.723986,33.6156671 13.1942091,34.0058677 13.1942091,35.8484818 C13.1942091,37.9539393 15.4406313,38.6669844 17.3275636,38.6669844 C21.6227663,38.6669844 22.014937,36.1717134 22.1425481,35.1048554 L24.8826851,35.1048554 L24.8826851,30.7232276 C23.8773587,31.3073672 22.6907311,31.6867289 21.46014,31.9948636" id="path4104" fill="#5D6163"></path>
                </g>
            </g>
        </g>
    </g>
</svg>