<?xml version="1.0" encoding="UTF-8"?>
<svg width="1920px" height="319px" viewBox="0 0 1920 319" version="1.1" xmlns="http://www.w3.org/2000/svg" xmlns:xlink="http://www.w3.org/1999/xlink">
    <!-- Generator: sketchtool 48.2 (47327) - http://www.bohemiancoding.com/sketch -->
    <title>C2F8F633-2BA0-418E-B561-19AE9CFF8E18</title>
    <desc>Created with sketchtool.</desc>
    <defs></defs>
    <g id="Main-page-" stroke="none" stroke-width="1" fill="none" fill-rule="evenodd" transform="translate(0.000000, -477.000000)">
        <g id="-Ñlouds" transform="translate(-6.000000, 477.000000)">
            <path d="M0.000675847298,1.71875 C0.000675847298,98.4725381 0.000675847298,158.018106 0.000675847298,180.355453 C18.606752,198.964336 44.3114776,210.475752 72.7038226,210.475752 C95.0811266,210.475752 115.771065,203.301677 132.651478,191.161628 C176.815846,204.736942 223.422276,206.760284 263.696016,192.312995 C292.660579,181.923655 313.625362,164.729759 330.686,146.071306 C368.880384,143.84518 401.478752,120.784044 417.264292,88.0726067 C435.998779,107.796806 462.455948,120.117108 491.803491,120.117108 C490.325638,125.592297 489.498851,131.355891 489.498851,137.313257 C489.498851,172.886213 518.33275,201.724462 553.900341,201.724462 C556.072063,201.724462 558.216752,201.614057 560.332154,201.404513 C560.316384,223.341319 577.834346,240.864177 599.447943,240.864177 C608.691281,240.864177 617.168659,237.639899 623.864053,232.281875 C641.670376,245.512455 663.725526,253.346707 687.612223,253.346707 C719.649638,253.346707 748.377653,239.246405 767.986236,216.93332 C776.076129,220.709623 785.094184,222.829851 794.610114,222.829851 C807.074991,222.829851 818.683795,219.19775 828.465558,212.954232 C841.86761,219.362231 856.873673,222.949269 872.720039,222.949269 C894.412485,222.949269 914.505425,216.192029 931.086212,204.716664 C937.405384,209.547448 945.279005,212.449523 953.848749,212.449523 C959.212724,212.449523 964.304107,211.304916 968.920144,209.279321 C987.724468,233.50309 1017.10355,249.097239 1050.14347,249.097239 C1054.73248,249.097239 1059.24263,248.766024 1063.67619,248.182454 C1087.37815,268.339261 1111.7064,285.393461 1156.42046,289.212574 C1182.92494,291.477004 1206.55932,288.218929 1228.12786,281.558576 C1242.6766,291.700068 1260.35451,297.664193 1279.43368,297.664193 C1286.29578,297.664193 1292.9709,296.868826 1299.3937,295.411029 C1307.5309,301.411205 1317.55372,304.998243 1328.43711,304.998243 C1355.52958,304.998243 1377.49236,283.032145 1377.49236,255.935592 C1377.49236,253.024504 1377.19274,250.185517 1376.70613,247.411872 C1390.6849,241.943443 1400.60184,228.368128 1400.60184,212.449523 C1400.60184,209.944005 1400.34501,207.503828 1399.87643,205.138006 C1402.3658,205.318259 1404.87319,205.442183 1407.40762,205.442183 C1433.4773,205.442183 1457.26487,195.717526 1475.38659,179.724567 C1492.42245,212.970004 1527.00105,235.735975 1566.91884,235.735975 C1576.63978,235.735975 1586.03406,234.357039 1594.94623,231.835748 C1625.24221,251.068758 1646.99098,266.270857 1673.13726,265.042882 C1716.89387,265.042882 1737.68743,246.706632 1762.85824,233.059216 C1781.58822,252.749618 1808.02061,265.042882 1837.33887,265.042882 C1839.72686,265.042882 1842.09458,264.955009 1844.44202,264.795034 C1848.42952,281.258905 1863.22382,293.502599 1880.91074,293.502599 C1888.52078,307.751609 1902.27878,318.019279 1918.47208,318.019279 C1926.82706,318.019279 1929.33636,314.770967 1926,308.274344 L1926,120.117108 L1926,2.75 L0.000675847298,1.71875 Z" id="Fill-1" fill-opacity="0.2" fill="#7591CA"></path>
            <path d="M4,0 C4,61.2033958 4,94.0501418 4,98.5402378 C22.1698264,116.718991 47.2764037,127.962953 75.0053836,127.962953 C96.8587396,127.962953 117.067462,120.956042 133.552101,109.096806 C176.686571,122.357875 222.204633,124.334414 261.540674,110.221428 C289.826126,100.072788 310.302946,83.2755844 326.965567,65.0495026 C364.267218,62.8746332 396.10553,40.3461414 411.522284,8.39021054 C429.818274,27.6597789 455.657051,39.6948075 484.323248,39.6948075 C482.879124,45.0452116 482.072577,50.6728271 482.072577,56.4942651 C482.072577,91.2448468 510.231865,119.414477 544.96969,119.414477 C547.089691,119.414477 549.182656,119.306297 551.248587,119.101205 C551.232817,140.529867 568.346022,157.649357 589.451407,157.649357 C598.478871,157.649357 606.760617,154.498613 613.300853,149.263151 C630.691168,162.188411 652.229115,169.842148 675.558136,169.842148 C706.848988,169.842148 734.904642,156.067224 754.056742,134.271201 C761.957745,137.960591 770.764422,140.031788 780.059983,140.031788 C792.232528,140.031788 803.569238,136.484384 813.123886,130.385735 C826.21337,136.642147 840.870889,140.148983 856.346219,140.148983 C877.53271,140.148983 897.153419,133.547747 913.349684,122.337591 C919.522694,127.054691 927.211921,129.88991 935.581532,129.88991 C940.819578,129.88991 945.79178,128.774303 950.299879,126.79551 C968.66571,150.457638 997.358941,165.692993 1029.62531,165.692993 C1034.10863,165.692993 1038.51534,165.368453 1042.84321,164.798254 C1065.992,184.48702 1089.75358,201.146745 1133.42199,204.878956 C1159.30808,207.089886 1182.39153,203.90759 1203.45636,197.401011 C1217.66555,207.308499 1234.9297,213.134445 1253.56363,213.134445 C1260.26608,213.134445 1266.78604,212.359155 1273.05818,210.934784 C1281.00649,216.794536 1290.79544,220.299118 1301.42473,220.299118 C1327.88532,220.299118 1349.3354,198.841158 1349.3354,172.370856 C1349.3354,169.526623 1349.04027,166.75451 1348.5649,164.047755 C1362.21762,158.701858 1371.90293,145.443043 1371.90293,129.88991 C1371.90293,127.44459 1371.65286,125.060122 1371.19777,122.747774 C1373.62867,122.92582 1376.07535,123.045269 1378.55131,123.045269 C1404.0116,123.045269 1427.24374,113.547964 1444.94271,97.9249638 C1461.5828,130.399257 1495.35187,152.639269 1534.3387,152.639269 C1543.83252,152.639269 1553.00643,151.291526 1561.71172,148.83043 C1591.29936,167.617696 1612.54218,182.465406 1638.07681,181.26641 C1680.81026,181.26641 1701.12036,163.355854 1725.70426,150.024918 C1743.998,169.258427 1769.81199,181.26641 1798.4444,181.26641 C1800.77843,181.26641 1803.08992,181.183021 1805.3834,181.027513 C1809.2787,197.110278 1823.72445,209.070932 1840.99986,209.070932 C1848.43226,222.987843 1861.86869,233.019287 1877.68421,233.019287 C1889.92435,233.019287 1900.73387,226.999519 1907.39802,217.783933 C1914.37007,220.245028 1920.57073,222.150199 1926,223.499444 L1926,28.7224121 L1926,0 L4,0 Z" id="Fill-4" fill="#FEFEFE"></path>
            <path d="M436.885291,82.1236832 C438.058022,71.1394424 430.105724,61.2870353 419.121598,60.114292 C408.139745,58.9438215 398.287441,66.8962027 397.11471,77.8781707 C395.941979,88.8601387 403.894277,98.7148187 414.87613,99.8852892 C425.860256,101.058032 435.71256,93.1056512 436.885291,82.1236832" id="Fill-6" fill="#FEFEFE"></path>
            <path d="M836.347451,159.472991 C830.533531,152.101053 819.845107,150.838657 812.473074,156.652502 C805.101041,162.466348 803.838629,173.156909 809.652549,180.526572 C815.466469,187.89851 826.154893,189.160907 833.526926,183.349335 C840.898959,177.533215 842.161371,166.844929 836.347451,159.472991" id="Fill-8" fill="#FEFEFE"></path>
            <path d="M619.999771,189.575812 C620.041127,182.672336 614.47878,177.041581 607.57467,177.000229 C600.672857,176.958877 595.041585,182.520712 595.000229,189.424188 C594.958873,196.325367 600.518922,201.956122 607.423032,201.999771 C614.327143,202.041123 619.958415,196.479288 619.999771,189.575812" id="Fill-10" fill="#FEFEFE"></path>
            <path d="M278.948239,145.370692 C278.325654,138.494791 272.246838,133.429184 265.370837,134.05176 C258.497134,134.676633 253.429156,140.755361 254.051741,147.628965 C254.676623,154.504866 260.755439,159.57277 267.629143,158.947897 C274.505143,158.325321 279.570824,152.246593 278.948239,145.370692" id="Fill-12" fill="#FEFEFE"></path>
            <path d="M1202.38381,233.357493 C1198.99106,227.345923 1191.36942,225.223381 1185.35803,228.616232 C1179.34663,232.009082 1177.22414,239.630936 1180.6146,245.642507 C1184.00736,251.654077 1191.63129,253.776619 1197.64269,250.383768 C1203.65409,246.993215 1205.77657,239.369064 1202.38381,233.357493" id="Fill-14" fill="#FEFEFE"></path>
            <path d="M1571.99974,185.576955 C1572.0434,178.672852 1566.47876,173.041585 1559.57695,173.000229 C1552.67285,172.958873 1547.04158,178.521214 1547.00023,185.425317 C1546.95887,192.327122 1552.51892,197.958389 1559.42302,197.999745 C1566.32712,198.043398 1571.95839,192.47876 1571.99974,185.576955" id="Fill-16" fill="#FEFEFE"></path>
            <path d="M1728.60073,180.530824 C1726.68386,178.542193 1723.51859,178.483146 1721.53001,180.400077 C1719.54354,182.314899 1719.48239,185.480261 1721.39927,187.468892 C1723.31614,189.457524 1726.48141,189.516571 1728.46999,187.601749 C1730.45646,185.684818 1730.51761,182.519456 1728.60073,180.530824" id="Fill-18" fill="#FEFEFE"></path>
            <path d="M1185.02873,252.978192 C1188.60649,252.684654 1191.2696,249.54933 1190.97819,245.971572 C1190.68678,242.391687 1187.54933,239.728575 1183.97156,240.022113 C1180.3938,240.313524 1177.72856,243.450975 1178.0221,247.028733 C1178.31351,250.606491 1181.45096,253.269603 1185.02873,252.978192" id="Fill-20" fill="#FEFEFE"></path>
            <path d="M1354.1942,237.108221 C1356.18651,232.85915 1354.35729,227.79685 1350.10822,225.806751 C1345.85915,223.812244 1340.79685,225.643664 1338.80675,229.892735 C1336.81224,234.141805 1338.64366,239.201902 1342.89273,241.194204 C1347.14181,243.186507 1352.2019,241.357291 1354.1942,237.108221" id="Fill-24" fill="#FEFEFE"></path>
            <path d="M441.33619,112.970732 C442.977248,109.472607 441.470984,105.30481 437.970631,103.663793 C434.472418,102.022776 430.304517,103.529003 428.663459,107.029268 C427.022401,110.527393 428.530805,114.69519 432.029018,116.336207 C435.529371,117.977224 439.695133,116.470997 441.33619,112.970732" id="Fill-26" fill="#FEFEFE"></path>
            <path d="M1693.29198,266.195086 C1703.34052,261.613933 1707.77397,249.756563 1703.19509,239.708022 C1698.61621,229.659481 1686.75884,225.226033 1676.70802,229.804914 C1666.65948,234.383795 1662.22603,246.243437 1666.80491,256.291978 C1671.38379,266.340519 1683.24344,270.773967 1693.29198,266.195086" id="Fill-28" fill="#FEFEFE"></path>
            <path d="M1700.66748,288.967705 C1704.51504,288.599632 1707.33757,285.179978 1706.96737,281.332333 C1706.59931,277.484687 1703.18187,274.664222 1699.33218,275.032295 C1695.48463,275.400368 1692.66423,278.820022 1693.03229,282.667667 C1693.40036,286.515313 1696.81993,289.335778 1700.66748,288.967705" id="Fill-30" fill="#FEFEFE"></path>
            <path d="M458.379478,187.30263 C457.441683,189.302861 458.301504,191.684591 460.303539,192.620421 C462.301359,193.558358 464.682727,192.698407 465.620522,190.698175 C466.558317,188.697944 465.698496,186.316214 463.696461,185.378277 C461.698641,184.442447 459.317273,185.302398 458.379478,187.30263" id="Fill-32" fill="#FEFEFE"></path>
            <path d="M992.194204,192.107946 C994.186507,187.858636 992.357291,182.798256 988.108221,180.805841 C983.85915,178.813426 978.799054,180.642745 976.806751,184.892054 C974.812244,189.141364 976.643664,194.201744 980.892735,196.194159 C985.141805,198.186574 990.201902,196.357255 992.194204,192.107946" id="Fill-34" fill="#FEFEFE"></path>
            <path d="M1555.95212,211.589215 C1557.3815,213.272062 1559.9065,213.479253 1561.58907,212.049638 C1563.27395,210.617721 1563.4788,208.092299 1562.04712,206.409451 C1560.61774,204.726603 1558.09504,204.521715 1556.41016,205.95133 C1554.72759,207.380944 1554.52044,209.906367 1555.95212,211.589215" id="Fill-36" fill="#FEFEFE"></path>
            <path d="M147.416423,158.977288 C156.314412,155.824123 161.100589,146.339585 158.108946,137.793029 C155.115039,129.244196 145.479322,124.870745 136.581333,128.02391 C127.685606,131.174798 122.899429,140.659335 125.891073,149.205892 C128.882716,157.754725 138.520696,162.128176 147.416423,158.977288" id="Fill-38" fill="#FEFEFE"></path>
            <path d="M1896.05944,257.324119 C1892.92585,258.395431 1891.25258,261.804942 1892.32391,264.938476 C1893.39524,268.074184 1896.8048,269.74743 1899.94056,268.676118 C1903.07415,267.604805 1904.74742,264.195294 1903.67609,261.059587 C1902.60476,257.92388 1899.1952,256.252807 1896.05944,257.324119" id="Fill-40" fill="#FEFEFE"></path>
            <path d="M156.091847,164.826705 C154.340234,162.016614 150.639246,161.155983 147.827104,162.907671 C145.014961,164.65936 144.156541,168.360509 145.908153,171.172774 C147.661939,173.985038 151.360754,174.843496 154.172896,173.091807 C156.985039,171.340119 157.843459,167.63897 156.091847,164.826705" id="Fill-42" fill="#FEFEFE"></path>
            <path d="M599.302041,213.621332 C601.302209,214.558022 603.684458,213.69728 604.621245,211.69732 C605.558033,209.697359 604.697201,207.31766 602.699335,206.378668 C600.696865,205.441978 598.316918,206.30272 597.38013,208.30268 C596.441041,210.302641 597.301873,212.68234 599.302041,213.621332" id="Fill-44" fill="#FEFEFE"></path>
            <path d="M813.431859,197.546253 C814.837155,194.546546 813.545925,190.976553 810.545982,189.569085 C807.54604,188.161618 803.973485,189.455028 802.568189,192.454735 C801.162892,195.454442 802.454122,199.024436 805.451783,200.431903 C808.451726,201.837089 812.024281,200.54596 813.431859,197.546253" id="Fill-46" fill="#FEFEFE"></path>
            <path d="M1424.30165,151.621332 C1426.30147,152.558022 1428.68331,151.69728 1429.61994,149.69732 C1430.55886,147.697359 1429.69818,145.31766 1427.69835,144.378668 C1425.69623,143.441978 1423.31669,144.30272 1422.38006,146.30268 C1421.44114,148.302641 1422.30182,150.68234 1424.30165,151.621332" id="Fill-48" fill="#FEFEFE"></path>
            <path d="M287.715655,159.611965 C289.710923,158.66381 290.56012,156.279614 289.611965,154.284345 C288.66381,152.289077 286.277312,151.43988 284.284345,152.388035 C282.289077,153.33619 281.43988,155.722688 282.388035,157.715655 C283.33619,159.710923 285.720386,160.56012 287.715655,159.611965" id="Fill-50" fill="#FEFEFE"></path>
            <path d="M1352.30268,260.620295 C1354.30264,261.559267 1356.68234,260.696241 1357.62133,258.698624 C1358.55802,256.696404 1357.69728,254.316753 1355.69732,253.380083 C1353.69736,252.44111 1351.31766,253.301835 1350.37867,255.301754 C1349.44198,257.301673 1350.30272,259.683624 1352.30268,260.620295" id="Fill-52" fill="#FEFEFE"></path>
            <path d="M704.438932,212.763424 C705.690091,213.348831 707.178077,212.810346 707.763441,211.561329 C708.348805,210.310078 707.81036,208.821983 706.561435,208.236576 C705.312509,207.651169 703.824523,208.189654 703.236925,209.438671 C702.651561,210.687688 703.187772,212.178017 704.438932,212.763424" id="Fill-54" fill="#FEFEFE"></path>
            <path d="M952.301645,243.621332 C954.301469,244.558022 956.683309,243.69728 957.619935,241.69732 C958.558863,239.697359 957.698179,237.31766 955.698355,236.378668 C953.696229,235.441978 951.316691,236.30272 950.380065,238.30268 C949.441137,240.302641 950.301821,242.68234 952.301645,243.621332" id="Fill-56" fill="#FEFEFE"></path>
            <path d="M328.30268,107.621245 C330.302641,108.558033 332.68234,107.697201 333.621332,105.699335 C334.558022,103.696865 333.69728,101.316918 331.69732,100.38013 C329.697359,99.4410407 327.31766,100.301873 326.378668,102.302041 C325.441978,104.302209 326.30272,106.684458 328.30268,107.621245" id="Fill-58" fill="#FEFEFE"></path>
            <path d="M1145.32304,255.940563 C1146.39435,259.07415 1149.80603,260.747424 1152.93957,259.676094 C1156.07528,258.604764 1157.74852,255.195196 1156.67504,252.059437 C1155.6059,248.92585 1152.19421,247.252576 1149.06068,248.323906 C1145.92497,249.395236 1144.2539,252.806977 1145.32304,255.940563 Z" id="Fill-66" fill="#FEFEFE"></path>
        </g>
    </g>
</svg>