<?xml version="1.0" encoding="UTF-8"?>
<svg width="1920px" height="190px" viewBox="0 0 1920 190" version="1.1" xmlns="http://www.w3.org/2000/svg" xmlns:xlink="http://www.w3.org/1999/xlink">
    <!-- Generator: sketchtool 48.2 (47327) - http://www.bohemiancoding.com/sketch -->
    <title>253B7315-194B-4372-85D6-CC8298A60AC1</title>
    <desc>Created with sketchtool.</desc>
    <defs></defs>
    <g id="contact-us" stroke="none" stroke-width="1" fill="none" fill-rule="evenodd" transform="translate(0.000000, -91.000000)">
        <g id="Group-4" transform="translate(0.000000, 91.000000)">
            <path d="M1919.99885,11.4175805 L0,11.4175805 C0,85.2381518 0.00345945946,134.347566 0.0103783784,158.745822 C26.1281441,158.745822 49.4068468,148.902883 64.5811892,133.540798 C65.1692973,133.153489 65.7516396,132.755807 66.3224505,132.345444 C88.4007207,139.129107 111.699027,140.138875 131.833081,132.920643 C146.310919,127.730017 156.791928,119.138915 165.320649,109.816998 C184.413405,108.704639 200.709766,97.1822107 208.600793,80.8380217 C217.96555,90.6936403 231.191063,96.8490793 245.862631,96.8490793 C245.123459,99.5855984 244.710631,102.4639 244.710631,105.441334 C244.710631,123.214876 259.125045,137.622523 276.905514,137.622523 C280.111279,148.422206 288.869477,157.178145 299.673369,157.178145 C304.294054,157.178145 308.533045,155.566665 311.879495,152.888933 C320.780685,159.49969 331.805982,163.414273 343.746883,163.414273 C359.761874,163.414273 374.123243,156.370099 383.926198,145.221147 C387.970306,147.10697 392.477982,148.167458 397.235892,148.167458 C403.466378,148.167458 409.270198,146.353102 414.159568,143.233885 C420.859387,146.433791 428.360649,148.227399 436.282811,148.227399 C447.127063,148.227399 457.171027,144.849976 465.459892,139.11758 C468.618378,141.531342 472.55409,142.98029 476.838054,142.98029 C479.519135,142.98029 482.064144,142.408549 484.372757,141.396475 C493.772108,153.498714 508.45982,161.290992 524.975279,161.290992 C527.270054,161.290992 529.525622,161.126156 531.740829,160.834522 C543.589477,170.904543 555.751784,179.426483 578.103351,181.334208 C591.353081,182.465011 603.168288,180.837393 613.95027,177.508384 C621.223207,182.576823 630.05982,185.556563 639.59755,185.556563 C643.02818,185.556563 646.364252,185.15888 649.575784,184.430371 C653.642955,187.428554 658.653405,189.222161 664.095135,189.222161 C677.638919,189.222161 688.61809,178.246114 688.61809,164.707607 C688.61809,163.252894 688.467027,161.835069 688.223712,160.450671 C695.21182,157.71761 700.169225,150.9351 700.169225,142.98029 C700.169225,141.729607 700.041225,140.510046 699.807135,139.327372 C716.603964,139.479529 728.495279,134.620882 737.555604,126.631491 C746.070486,143.240802 763.356252,154.615684 783.311568,154.615684 C787.559784,154.615684 791.673081,154.061233 795.621477,153.087198 C802.811387,166.611874 820.260901,176.162026 840.659027,176.162026 C856.984216,176.162026 871.417081,170.041168 880.220252,160.666227 C892.048144,170.247502 907.503856,176.82022 924.858811,178.565413 C937.297874,179.814944 949.273369,178.434005 960.034595,174.968977 C961.416072,175.728609 963.002811,176.162026 964.689874,176.162026 C966.064432,176.162026 967.368649,175.871544 968.551784,175.356286 C977.388396,183.896669 989.800937,189.222161 1003.55921,189.222161 C1020.16346,189.222161 1034.81542,181.474838 1043.57247,169.664234 C1045.9618,170.586397 1048.23236,170.760455 1050.28613,170.052695 C1051.80829,169.528215 1053.11942,168.535736 1054.23452,167.169782 C1062.47841,171.503949 1072.57542,174.062952 1083.49463,174.062952 C1103.0498,174.062952 1119.98501,165.875296 1128.29924,153.926367 C1130.97686,154.362089 1133.7156,154.615684 1136.51777,154.615684 C1156.47193,154.615684 1173.75885,143.240802 1182.27373,126.631491 C1191.33405,134.620882 1203.22537,139.479529 1216.25715,139.479529 C1219.78811,140.510046 1219.66011,141.729607 1219.66011,142.98029 C1219.66011,150.9351 1224.61751,157.71761 1231.60562,160.450671 C1231.36231,161.835069 1231.21124,163.252894 1231.21124,164.707607 C1231.21124,178.246114 1242.19041,189.222161 1255.7342,189.222161 C1261.17593,189.222161 1266.18523,187.428554 1270.25355,184.430371 C1273.46393,185.15888 1276.80115,185.556563 1280.23178,185.556563 C1289.76951,185.556563 1298.60613,182.576823 1305.87906,177.508384 C1316.66105,180.837393 1328.47625,182.465011 1341.72598,181.334208 C1364.07755,179.426483 1376.23986,170.904543 1388.0885,160.834522 C1390.30371,161.126156 1392.55928,161.290992 1394.85405,161.290992 C1411.36951,161.290992 1426.05723,153.498714 1435.45658,141.396475 C1437.76404,142.408549 1440.30905,142.98029 1442.99128,142.98029 C1447.27409,142.98029 1451.2098,141.531342 1454.36944,139.11758 C1462.65831,144.849976 1472.70227,148.227399 1483.54652,148.227399 C1491.46868,148.227399 1498.96995,146.433791 1505.66977,143.233885 C1510.55914,146.353102 1516.36295,148.167458 1522.59344,148.167458 C1527.3502,148.167458 1531.85903,147.10697 1535.90198,145.221147 C1545.70494,156.370099 1560.06746,163.414273 1576.08245,163.414273 C1588.02335,163.414273 1599.0475,159.49969 1607.94868,152.888933 C1611.29629,155.566665 1615.53528,157.178145 1620.15481,157.178145 C1630.9587,157.178145 1639.71805,148.422206 1639.71805,137.622523 C1660.70429,137.622523 1675.1187,123.214876 1675.1187,105.441334 C1675.1187,102.4639 1674.70587,99.5855984 1673.94825,96.8490793 C1688.63827,96.8490793 1701.86263,90.6936403 1711.22854,80.8380217 C1719.11957,97.1822107 1735.41593,108.704639 1754.50868,109.816998 C1763.03741,119.138915 1773.51841,127.730017 1787.99625,132.920643 C1808.13031,140.138875 1831.42746,139.129107 1853.50688,132.345444 C1854.22876,132.864161 1854.97023,133.358671 1855.71978,133.840501 C1870.89989,149.031986 1894.05175,158.745822 1919.99885,158.745822 L1919.99885,24.0973237 C1919.99885,11.4175805 1920.51777,108.640518 1919.99885,11.4175805 Z" id="Fill-1" fill="#7692CA" opacity="0.25390625"></path>
            <path d="M1919.84677,0.0131835938 L0.0108387785,0.0131835938 C0.0108387785,106.630371 0.0108387785,49.8708043 0.0108387785,89.7105574 C26.1265295,89.7105574 49.4022297,79.8664659 64.5765196,64.5043807 C65.1645809,64.1170721 65.745724,63.720542 66.3176425,63.3090267 C88.3941587,70.0926893 111.689461,71.1024579 131.821915,63.8842259 C146.299756,58.6936002 156.778779,50.1036505 165.307975,40.7805811 C184.399215,39.6682219 200.693128,28.1469461 208.584681,11.8027571 C217.948694,21.6583757 231.173157,27.8138147 245.843559,27.8138147 C245.104446,30.5491811 244.69165,33.4286355 244.69165,36.404917 C244.69165,54.1784589 259.104919,68.5861053 276.883975,68.5861053 C280.089486,79.3857884 288.846989,88.1417274 299.650022,88.1417274 C304.27034,88.1417274 308.508994,86.5314 311.855178,83.8525161 C320.75566,90.4644258 331.778929,94.3778556 343.720034,94.3778556 C359.733753,94.3778556 374.093981,87.3336819 383.896157,76.1847295 C387.939944,78.0717059 392.447262,79.1321935 397.204793,79.1321935 C403.433632,79.1321935 409.236991,77.3178375 414.125972,74.197468 C420.825259,77.3985268 428.327077,79.1921341 436.247457,79.1921341 C447.090848,79.1921341 457.134014,75.8147116 465.42222,70.0811623 C468.581609,72.4949243 472.517008,73.9450258 476.800631,73.9450258 C479.481499,73.9450258 482.026306,73.3732847 484.334735,72.3612106 C493.73334,84.4634491 508.419885,92.2557277 524.934032,92.2557277 C527.228625,92.2557277 529.48286,92.0897383 531.697891,91.7981042 C543.546752,101.868126 555.708092,110.390066 578.05673,112.297791 C591.30656,113.429746 603.120829,111.802128 613.901954,108.473119 C621.174313,113.540406 630.009071,116.520145 639.546043,116.520145 C642.977554,116.520145 646.313361,116.123615 649.523484,115.395106 C653.591485,118.392137 658.601538,120.185744 664.042835,120.185744 C677.58439,120.185744 688.562689,109.21085 688.562689,95.6711894 C688.562689,94.2176298 688.411638,92.7986512 688.168342,91.4142538 C695.157048,88.6811928 700.114059,81.8986829 700.114059,73.9450258 C700.114059,72.6943421 699.984916,71.4736286 699.751998,70.2921071 C716.547492,70.444264 728.43671,65.5856169 737.496314,57.5950733 C746.011674,74.2043842 763.296066,85.5804193 783.248643,85.5804193 C787.497675,85.5804193 791.610645,85.024816 795.557575,84.0507811 C802.748067,97.576609 820.196194,107.125608 840.592699,107.125608 C856.916592,107.125608 871.34831,101.00475 880.150782,91.6309622 C891.977734,101.211084 907.432218,107.783802 924.785794,109.528996 C937.223869,110.77968 949.198413,109.39874 959.958783,105.933712 C961.340151,106.692192 962.926763,107.125608 964.613692,107.125608 C965.986989,107.125608 967.292254,106.835127 968.475295,106.321021 C977.311206,114.861404 989.721607,120.185744 1003.47994,120.185744 C1020.08287,120.185744 1034.73367,112.438421 1043.48887,100.627816 C1045.87916,101.549979 1048.14954,101.724038 1050.20314,101.016278 C1051.72519,100.491797 1053.03622,99.5004719 1054.15007,98.133365 C1062.39331,102.467532 1072.49067,105.027687 1083.40901,105.027687 C1102.96263,105.027687 1119.89534,96.8388785 1128.20891,84.8911023 C1130.88747,85.3268244 1133.62599,85.5804193 1136.42793,85.5804193 C1156.38051,85.5804193 1173.6649,74.2043842 1182.18026,57.5950733 C1191.23871,65.5856169 1203.12908,70.444264 1216.16099,70.444264 C1219.69166,71.4736286 1219.56252,72.6943421 1219.56252,73.9450258 C1219.56252,81.8986829 1224.52068,88.6811928 1231.50708,91.4142538 C1231.26379,92.7986512 1231.11389,94.2176298 1231.11389,95.6711894 C1231.11389,109.21085 1242.09219,120.185744 1255.63489,120.185744 C1261.07504,120.185744 1266.08509,118.392137 1270.15194,115.395106 C1273.36321,116.123615 1276.69902,116.520145 1280.13053,116.520145 C1289.6675,116.520145 1298.50226,113.540406 1305.77577,108.473119 C1316.5569,111.802128 1328.37002,113.429746 1341.61869,112.297791 C1363.96964,110.390066 1376.13098,101.868126 1387.97868,91.7981042 C1390.19372,92.0897383 1392.44795,92.2557277 1394.74254,92.2557277 C1411.25669,92.2557277 1425.94324,84.4634491 1435.34299,72.3612106 C1437.65027,73.3732847 1440.19508,73.9450258 1442.87594,73.9450258 C1447.15957,73.9450258 1451.09497,72.4949243 1454.25436,70.0811623 C1462.54256,75.8147116 1472.58457,79.1921341 1483.42912,79.1921341 C1491.3495,79.1921341 1498.85132,77.3985268 1505.5506,74.197468 C1510.43959,77.3178375 1516.24294,79.1321935 1522.47294,79.1321935 C1527.22931,79.1321935 1531.73663,78.0717059 1535.78042,76.1847295 C1545.58259,87.3336819 1559.94282,94.3778556 1575.95654,94.3778556 C1587.89649,94.3778556 1598.92092,90.4644258 1607.8214,83.8525161 C1611.16874,86.5314 1615.40624,88.1417274 1620.02655,88.1417274 C1630.82959,88.1417274 1639.58709,79.3857884 1639.58709,68.5861053 C1660.57281,68.5861053 1674.98493,54.1784589 1674.98493,36.404917 C1674.98493,33.4286355 1674.57213,30.5491811 1673.81572,27.812662 C1688.50342,27.8138147 1701.72788,21.6583757 1711.09189,11.8027571 C1718.98345,28.1469461 1735.27851,39.6682219 1754.3686,40.7805811 C1762.89664,50.1036505 1773.37682,58.6936002 1787.85351,63.8842259 C1807.98711,71.1024579 1831.28242,70.0926893 1853.35893,63.3090267 C1854.0819,63.8277435 1854.82332,64.3222534 1855.57166,64.8040837 C1870.75171,79.9967214 1893.90058,89.7105574 1919.84677,89.7105574 C1919.84677,63.150722 1919.84677,33.2515974 1919.84677,0.0131835938 Z" id="Fill-4" fill="#FFFFFF"></path>
            <g id="boobsils" transform="translate(0.000000, 36.000000)" fill="#FFFFFF">
                <path d="M1785.98756,12.2088244 C1785.40089,6.71503648 1789.37911,1.78631736 1794.87403,1.1996463 C1800.36782,0.612975232 1805.29654,4.59119627 1805.88321,10.0849842 C1806.46988,15.5787722 1802.49166,20.5086282 1796.99787,21.0952993 C1791.50408,21.6819704 1786.57423,17.7037493 1785.98756,12.2088244" id="Fill-7"></path>
                <path d="M1835.98316,56.0836262 C1836.30707,52.5074898 1839.4697,49.8708064 1843.04708,50.1947145 C1846.62446,50.5198178 1849.25998,53.6824036 1848.93607,57.2585399 C1848.61096,60.8370668 1845.44833,63.472555 1841.87215,63.1474517 C1838.29477,62.8235436 1835.65924,59.6609578 1835.98316,56.0836262" id="Fill-9"></path>
                <path d="M1852.10645,75.9872563 C1851.10817,75.5130059 1850.68446,74.3204732 1851.15768,73.3224752 C1851.63207,72.3233262 1852.82608,71.8997238 1853.82435,72.3728232 C1854.82147,72.8470737 1855.24634,74.0419086 1854.77196,75.0387554 C1854.29758,76.0367533 1853.10472,76.4615068 1852.10645,75.9872563" id="Fill-11"></path>
                <path d="M1840.80788,24.9648167 C1839.8074,25.4345474 1838.6158,25.0028096 1838.14722,24.0034804 C1837.67749,23.0029999 1838.10923,21.8114035 1839.10856,21.342824 C1840.11019,20.8730933 1841.30063,21.3036798 1841.76921,22.3041603 C1842.23894,23.3057921 1841.80836,24.4962372 1840.80788,24.9648167" id="Fill-13"></path>
                <path d="M221.057779,12.2088244 C221.644451,6.71503648 217.66623,1.78631736 212.172442,1.1996463 C206.677517,0.612975232 201.748798,4.59119627 201.162127,10.0849842 C200.575456,15.5787722 204.553677,20.5086282 210.047465,21.0952993 C215.542389,21.6819704 220.471108,17.7037493 221.057779,12.2088244" id="Fill-15"></path>
                <path d="M425.395286,52.4059544 C422.486811,48.718045 417.139814,48.0853768 413.451876,50.9949678 C409.763939,53.902283 409.132404,59.2503774 412.040879,62.9382868 C414.949354,66.6250583 420.296351,67.2577265 423.984288,64.3492734 C427.672225,61.4396824 428.303761,56.0927259 425.395286,52.4059544" id="Fill-17"></path>
                <path d="M316.164536,67.7163514 C316.187248,64.125865 313.292128,61.1963437 309.701319,61.1736342 C306.109315,61.1533152 303.17953,64.0469795 303.158014,67.6386611 C303.136498,71.2279522 306.029227,74.1586688 309.621231,74.180183 C313.213236,74.2016973 316.14302,71.308033 316.164536,67.7163514" id="Fill-19"></path>
                <path d="M141.046557,45.0779046 C140.721453,41.500573 137.558865,38.8650848 133.982726,39.1889928 C130.405391,39.5140961 127.768706,42.6754868 128.093809,46.2528184 C128.418913,49.83015 131.581501,52.4668334 135.157641,52.1417301 C138.73378,51.817822 141.370465,48.654041 141.046557,45.0779046" id="Fill-21"></path>
                <path d="M613.479104,90.4940853 C611.713953,87.367622 607.748636,86.2621256 604.62108,88.0285296 C601.493523,89.7925433 600.389258,93.7579887 602.153214,96.8868423 C603.918366,100.013306 607.884877,101.118802 611.012433,99.352398 C614.13999,97.5883843 615.244255,93.6217437 613.479104,90.4940853" id="Fill-23"></path>
                <path d="M802.417793,64.7159765 C802.440505,61.1242986 799.54658,58.1947804 795.954576,58.1720709 C792.362572,58.1517519 789.432787,61.0454132 789.411271,64.6370911 C789.389755,68.2275737 792.282484,71.157092 795.874488,71.1786062 C799.466492,71.2013156 802.396277,68.3076544 802.417793,64.7159765" id="Fill-25"></path>
                <path d="M885.762104,72.9450711 C884.803162,71.9502372 883.219695,71.9206982 882.224886,72.8796632 C881.230076,73.8386282 881.200538,75.4221337 882.159479,76.4159127 C883.117366,77.4107466 884.700833,77.4402857 885.696697,76.4823756 C886.690452,75.5234106 886.71999,73.939905 885.762104,72.9450711" id="Fill-27"></path>
                <path d="M604.099262,100.182104 C606.026796,100.023985 607.46156,98.3350901 607.304561,96.4067254 C607.147562,94.4795064 605.457246,93.0449772 603.529711,93.2019505 C601.602177,93.3600695 600.167413,95.0501099 600.324412,96.9773288 C600.481411,98.9045478 602.171728,100.339077 604.099262,100.182104" id="Fill-29"></path>
                <path d="M690.933263,91.5997375 C691.988562,89.3480015 691.019648,86.6678637 688.768968,85.6126178 C686.518288,84.5573719 683.838018,85.5274043 682.782719,87.777973 C681.726254,90.0285417 682.696334,92.7086796 684.947015,93.7639255 C687.197695,94.8191714 689.877965,93.8503062 690.933263,91.5997375" id="Fill-31"></path>
                <path d="M1056.12347,76.591647 C1057.17876,74.339673 1056.20985,71.6592518 1053.95917,70.6050618 C1051.70849,69.5497044 1049.02822,70.5186719 1047.97292,72.7694785 C1046.91646,75.0202852 1047.88654,77.7007063 1050.13722,78.7560638 C1052.3879,79.8114212 1055.06817,78.8424537 1056.12347,76.591647" id="Fill-33"></path>
                <path d="M224.737933,28.8540386 C225.676166,26.8538792 224.813774,24.4708147 222.81376,23.5325137 C220.813746,22.595436 218.430854,23.4566667 217.492621,25.4580494 C216.554388,27.4569854 217.415557,29.8412732 219.415571,30.7783509 C221.416808,31.716652 223.7997,30.8554213 224.737933,28.8540386" id="Fill-35"></path>
                <path d="M864.595953,106.294762 C869.622719,104.003023 871.841681,98.0713279 869.549966,93.0445065 C867.259389,88.017685 861.32776,85.7998359 856.299857,88.0893019 C851.273091,90.3810414 849.055267,96.3138729 851.345844,101.340694 C853.636422,106.366379 859.569188,108.585365 864.595953,106.294762" id="Fill-37"></path>
                <path d="M0,98.1928088 C4.05775746,98.1371043 7.85390999,95.6656432 9.36015509,91.6912973 C11.3216158,86.5164626 8.65946877,80.7538885 3.41354092,78.8190096 C2.28875499,78.4040678 1.13631038,78.1983022 0,78.1823867 C0,82.3011095 0,98.1928088 0,98.1928088" id="Fill-39"></path>
                <path d="M1920,98.1928088 C1915.94334,98.1371043 1912.14713,95.6656432 1910.63971,91.6912973 C1908.67822,86.5164626 1911.34156,80.7538885 1916.58756,78.8190096 C1917.71236,78.4040678 1918.86483,78.1983022 1920,78.1823867 L1920,98.1928088 Z" id="Fill-41"></path>
                <path d="M972.652579,101.292157 C977.679468,99.0004172 979.897347,93.0687224 977.606713,88.0419009 C975.31608,83.0150795 969.383169,80.7972304 964.35628,83.0866963 C959.329391,85.3784358 957.111512,91.3112674 959.402146,96.3380889 C961.692779,101.363774 967.62569,103.582759 972.652579,101.292157" id="Fill-43"></path>
                <path d="M868.834042,119.185096 C871.033842,118.974664 872.646376,117.019602 872.435939,114.821075 C872.225502,112.621324 870.270396,111.007602 868.070596,111.218034 C865.870796,111.428467 864.258261,113.383529 864.468698,115.584503 C864.679135,117.78303 866.634241,119.396752 868.834042,119.185096" id="Fill-45"></path>
                <path d="M233.311091,66.3275334 C232.841928,67.3271213 233.273136,68.5186131 234.273664,68.987829 C235.273138,69.4570448 236.464493,69.0268424 236.933656,68.0251457 C237.402818,67.0255579 236.972665,65.834066 235.971082,65.3648502 C234.971609,64.8966888 233.780253,65.3268911 233.311091,66.3275334" id="Fill-47"></path>
                <path d="M505.836835,68.5876065 C506.892192,66.335744 505.923225,63.6554556 503.672418,62.6001504 C501.421612,61.5460126 498.741191,62.5149322 497.685833,64.7656273 C496.630476,67.0163225 497.599443,69.6966109 499.85025,70.7519161 C502.101056,71.8072213 504.781478,70.8383017 505.836835,68.5876065" id="Fill-49"></path>
                <path d="M794.890064,79.4783361 C795.605126,80.3201984 796.868287,80.422696 797.710011,79.7075161 C798.552886,78.9911846 798.655367,77.728967 797.939153,76.8871048 C797.224091,76.0452425 795.962081,75.9415932 795.119206,76.6567731 C794.277482,77.3731046 794.17385,78.6364738 794.890064,79.4783361" id="Fill-51"></path>
                <path d="M73.2463605,51.6417292 C77.6976737,50.0165795 80.0920092,45.128223 78.595408,40.7221311 C77.0976747,36.3172126 72.2773056,34.0631241 67.8259925,35.6871004 C63.3758114,37.3122502 60.9814759,42.2006067 62.4780771,46.6055251 C63.9746783,51.011617 68.7961795,53.2657055 73.2463605,51.6417292" id="Fill-53"></path>
                <path d="M953.526347,103.357534 C951.958737,103.893421 951.121664,105.599996 951.657608,107.167437 C952.192465,108.734878 953.899225,109.571861 955.467921,109.037061 C957.035531,108.500088 957.872604,106.794599 957.33666,105.227158 C956.800715,103.657544 955.093956,102.821648 953.526347,103.357534" id="Fill-55"></path>
                <path d="M77.5863329,58.5858455 C76.7100702,57.1789286 74.8586119,56.7494601 73.451808,57.6257932 C72.045004,58.5021263 71.6155701,60.3537334 72.4918328,61.7606503 C73.3691827,63.1675672 75.2195538,63.5959484 76.6263578,62.7207026 C78.0331617,61.8432822 78.4625956,59.9927624 77.5863329,58.5858455" id="Fill-57"></path>
                <path d="M17.4853094,81.1838448 C18.8669172,81.196382 19.9965258,80.0868331 20.0103168,78.7052253 C20.022854,77.3248712 18.9145589,76.1940089 17.5329511,76.1814716 C16.1513433,76.1676806 15.0217348,77.2772296 15.0079438,78.6575836 C14.9941527,80.0391915 16.1037016,81.1700538 17.4853094,81.1838448" id="Fill-59"></path>
                <path d="M304.309371,79.99403 C305.309852,80.4625359 306.501448,80.0320169 306.970028,79.0316935 C307.439758,78.0313702 307.008021,76.841112 306.008691,76.371455 C305.00706,75.9017979 303.816615,76.3323169 303.348035,77.3326403 C302.878304,78.3341148 303.308891,79.524373 304.309371,79.99403" id="Fill-61"></path>
                <path d="M413.931518,71.4520526 C414.634535,69.9512938 413.988581,68.1640785 412.487822,67.4610614 C410.987063,66.7580444 409.200989,67.4028571 408.496831,68.9047571 C407.793814,70.4043746 408.439768,72.1904487 409.940526,72.8957482 C411.441285,73.5987652 413.227359,72.95167 413.931518,71.4520526" id="Fill-63"></path>
                <path d="M726.529741,47.9773546 C727.530242,48.4458605 728.720712,48.0153416 729.190453,47.0150182 C729.659042,46.0146948 729.228446,44.8244366 728.227945,44.3547796 C727.227444,43.8851226 726.036974,44.3156415 725.567234,45.3159649 C725.098644,46.3174394 725.52924,47.5076976 726.529741,47.9773546" id="Fill-65"></path>
                <path d="M145.933835,54.9762581 C146.931989,54.5030847 147.356809,53.3092141 146.882484,52.3122113 C146.408159,51.3129059 145.214289,50.888086 144.217286,51.3624107 C143.219132,51.8367353 142.794312,53.0306059 143.268636,54.02876 C143.742961,55.0257628 144.93568,55.4505828 145.933835,54.9762581" id="Fill-67"></path>
                <path d="M690.510981,103.005463 C691.511483,103.475194 692.701952,103.043456 693.171693,102.044127 C693.640282,101.043646 693.209687,99.8520497 692.209185,99.3834702 C691.208684,98.9137395 690.018214,99.344326 689.548474,100.344806 C689.079885,101.346438 689.51048,102.536883 690.510981,103.005463" id="Fill-69"></path>
                <path d="M1055.70118,87.9974663 C1056.70169,88.4671749 1057.89216,88.0366087 1058.3619,87.0361755 C1058.83049,86.0357422 1058.39989,84.8453533 1057.39939,84.3756447 C1056.39889,83.9059361 1055.20842,84.3365023 1054.73868,85.3369355 C1054.27009,86.33852 1054.70068,87.528909 1055.70118,87.9974663" id="Fill-71"></path>
                <path d="M359.050145,79.0408987 C359.801231,79.3923 360.694488,79.0690644 361.04589,78.3193187 C361.397291,77.5682318 361.075397,76.6749748 360.32431,76.3235734 C359.574564,75.9721721 358.681307,76.2940665 358.328565,77.0451534 C357.977163,77.7948991 358.300399,78.688156 359.050145,79.0408987" id="Fill-73"></path>
                <path d="M493.407806,79.99403 C494.408239,80.4625359 495.599779,80.0320169 496.068337,79.0316935 C496.538045,78.0313702 496.107479,76.841112 495.107046,76.371455 C494.105461,75.9017979 492.915072,76.3323169 492.446515,77.3326403 C491.976806,78.3341148 492.407373,79.524373 493.407806,79.99403" id="Fill-75"></path>
                <path d="M166.237922,24.9648167 C167.238424,25.4345474 168.428894,25.0028096 168.898634,24.0034804 C169.367223,23.0029999 168.936628,21.8114035 167.936127,21.342824 C166.935625,20.8730933 165.745155,21.3036798 165.275415,22.3041603 C164.806826,23.3057921 165.237421,24.4962372 166.237922,24.9648167" id="Fill-77"></path>
                <path d="M645.365922,120.366408 C643.797251,120.902343 642.961279,122.609074 643.497214,124.176657 C644.032062,125.744241 645.738793,126.5813 647.306377,126.045365 C648.875048,125.50943 649.712107,123.803786 649.176171,122.236202 C648.640236,120.666444 646.933505,119.830472 645.365922,120.366408" id="Fill-79"></path>
                <path d="M1017.56032,112.362248 C1015.99165,112.897096 1015.15568,114.603827 1015.69052,116.171411 C1016.22646,117.740081 1017.93319,118.577141 1019.50077,118.041205 C1021.06944,117.504183 1021.9065,115.798539 1021.36948,114.230956 C1020.83463,112.662285 1019.1279,111.826313 1017.56032,112.362248" id="Fill-81"></path>
                <path d="M1580.64953,64.4121406 C1583.558,60.7243076 1588.905,60.0916525 1592.59294,63.0011832 C1596.28088,65.9084381 1596.91241,71.2564217 1594.00394,74.9442547 C1591.09546,78.6320877 1585.74846,79.2636049 1582.06053,76.3552121 C1578.37259,73.4456814 1577.74105,68.0988357 1580.64953,64.4121406" id="Fill-83"></path>
                <path d="M1691.88131,67.7163514 C1691.85979,64.125865 1694.75372,61.1963437 1698.34572,61.1736342 C1701.93772,61.1533152 1704.86631,64.0469795 1704.88783,67.6386611 C1704.91054,71.2279522 1702.01662,74.1586688 1698.42461,74.180183 C1694.83261,74.2016973 1691.90402,71.308033 1691.88131,67.7163514" id="Fill-85"></path>
                <path d="M1394.56672,90.4940853 C1396.33179,87.367622 1400.29693,86.2621256 1403.42555,88.0285296 C1406.55177,89.7925433 1407.65718,93.7579887 1405.89211,96.8868423 C1404.12704,100.013306 1400.1607,101.118802 1397.03328,99.352398 C1393.90586,97.5883843 1392.80164,93.6217437 1394.56672,90.4940853" id="Fill-87"></path>
                <path d="M1204.62753,64.7159765 C1204.60601,61.1242986 1207.49994,58.1947804 1211.09195,58.1720709 C1214.68276,58.1517519 1217.61255,61.0454132 1217.63407,64.6370911 C1217.65558,68.2275737 1214.76285,71.157092 1211.17084,71.1786062 C1207.57883,71.2013156 1204.64905,68.3076544 1204.62753,64.7159765" id="Fill-89"></path>
                <path d="M1124.2848,62.9397981 C1125.24374,61.9450447 1126.8272,61.915508 1127.82201,62.8743954 C1128.81682,63.8332828 1128.84636,65.4166601 1127.88742,66.4103585 C1126.92953,67.4051119 1125.34607,67.4357035 1124.3502,66.4768161 C1123.35645,65.5179287 1123.32691,63.9345514 1124.2848,62.9397981" id="Fill-91"></path>
                <path d="M1402.946,100.182104 C1401.01851,100.023985 1399.58378,98.3350901 1399.74077,96.4067254 C1399.89777,94.4795064 1401.58805,93.0449772 1403.51669,93.2019505 C1405.44303,93.3600695 1406.87891,95.0501099 1406.72077,96.9773288 C1406.56377,98.9045478 1404.87349,100.339077 1402.946,100.182104" id="Fill-93"></path>
                <path d="M1316.11206,91.5997375 C1315.05679,89.3480015 1316.02568,86.6678637 1318.27631,85.6126178 C1320.52811,84.5573719 1323.20833,85.5274043 1324.26243,87.777973 C1325.31888,90.0285417 1324.34998,92.7086796 1322.09819,93.7639255 C1319.84755,94.8191714 1317.16734,93.8503062 1316.11206,91.5997375" id="Fill-95"></path>
                <path d="M1778.30551,38.8599342 C1777.3673,36.8587406 1778.22845,34.4759013 1780.22964,33.5376889 C1782.22961,32.6006998 1784.61245,33.4618491 1785.55066,35.4630427 C1786.48888,37.463013 1785.62773,39.8458523 1783.62653,40.7828415 C1781.62534,41.7222771 1779.24372,40.8611278 1778.30551,38.8599342" id="Fill-97"></path>
                <path d="M1142.44939,106.294762 C1137.42262,104.003023 1135.20365,98.0713279 1137.49537,93.0445065 C1139.78595,88.017685 1145.71759,85.7998359 1150.74436,88.0893019 C1155.77227,90.3810414 1157.99009,96.3138729 1155.69951,101.340694 C1153.40893,106.366379 1147.47616,108.585365 1142.44939,106.294762" id="Fill-99"></path>
                <path d="M1140.21244,117.184246 C1138.01269,116.973814 1136.39897,115.018755 1136.61063,112.820231 C1136.82106,110.61926 1138.7749,109.005541 1140.97587,109.217196 C1143.17562,109.427628 1144.78811,111.382687 1144.57768,113.582435 C1144.36725,115.782182 1142.41219,117.394678 1140.21244,117.184246" id="Fill-101"></path>
                <path d="M1775.73529,45.3165902 C1776.20445,46.3161781 1775.77324,47.5076699 1774.77272,47.9768858 C1773.77325,48.4461016 1772.5819,48.0158992 1772.11274,47.0142025 C1771.64358,46.0146147 1772.07373,44.8231228 1773.07426,44.353907 C1774.07478,43.8857456 1775.26613,44.3159479 1775.73529,45.3165902" id="Fill-103"></path>
                <path d="M1501.20847,68.5876065 C1500.15319,66.335744 1501.12208,63.6554556 1503.37272,62.6001504 C1505.62335,61.5460126 1508.30473,62.5149322 1509.35884,64.7656273 C1510.41528,67.0163225 1509.44639,69.6966109 1507.19459,70.7519161 C1504.94396,71.8072213 1502.26374,70.8383017 1501.20847,68.5876065" id="Fill-105"></path>
                <path d="M1212.15581,79.4783361 C1211.43955,80.3201984 1210.17745,80.422696 1209.33452,79.7075161 C1208.49274,78.9911846 1208.39025,77.728967 1209.10536,76.8871048 C1209.82163,76.0452425 1211.08372,75.9415932 1211.9255,76.6567731 C1212.76844,77.3731046 1212.87093,78.6364738 1212.15581,79.4783361" id="Fill-107"></path>
                <path d="M1709.68113,18.6245323 C1705.23094,16.9993814 1702.83661,12.1110213 1704.33321,7.70609961 C1705.82981,3.30000451 1710.65131,1.04591432 1715.10149,2.66989184 C1719.55281,4.29504277 1721.94714,9.18340287 1720.45054,13.5883246 C1718.95281,17.9944197 1714.13244,20.2485099 1709.68113,18.6245323" id="Fill-109"></path>
                <path d="M1687.3329,1.5561014 C1688.20916,0.149225371 1690.06062,-0.280230604 1691.46742,0.596077032 C1692.87422,1.47238467 1693.30366,3.3239379 1692.4274,4.7297267 C1691.55005,6.13660274 1689.69967,6.56714594 1688.29287,5.6908383 C1686.88607,4.81453067 1686.45663,2.96297744 1687.3329,1.5561014" id="Fill-111"></path>
                <path d="M1702.7355,79.99403 C1701.735,80.4625359 1700.54453,80.0320169 1700.07479,79.0316935 C1699.6062,78.0313702 1700.0368,76.841112 1701.0373,76.371455 C1702.0378,75.9017979 1703.22827,76.3323169 1703.69801,77.3326403 C1704.1666,78.3341148 1703.736,79.524373 1702.7355,79.99403" id="Fill-113"></path>
                <path d="M1601.11799,84.4588269 C1600.41497,82.9580682 1601.06092,81.1708528 1602.56168,80.4678358 C1604.06244,79.7648188 1605.84852,80.4096315 1606.55267,81.9115315 C1607.25569,83.411149 1606.60974,85.197223 1605.10898,85.9025226 C1603.60936,86.6055396 1601.82215,85.9584444 1601.11799,84.4588269" id="Fill-115"></path>
                <path d="M1280.51606,47.9773546 C1279.51558,48.4458605 1278.32398,48.0153416 1277.8554,47.0150182 C1277.38567,46.0146948 1277.81741,44.8244366 1278.81674,44.3547796 C1279.81837,43.8851226 1281.00882,44.3156415 1281.47739,45.3159649 C1281.94713,46.3174394 1281.51654,47.5076976 1280.51606,47.9773546" id="Fill-117"></path>
                <path d="M1314.9263,99.3433109 C1315.94866,98.9242177 1317.11724,99.4135435 1317.53632,100.435947 C1317.9554,101.45835 1317.46609,102.626975 1316.44373,103.046068 C1315.42136,103.46401 1314.25278,102.974684 1313.8337,101.953432 C1313.41578,100.931029 1313.90393,99.7612527 1314.9263,99.3433109" id="Fill-119"></path>
                <path d="M1648.99549,79.0408987 C1648.24441,79.3923 1647.35115,79.0690644 1646.99975,78.3193187 C1646.64835,77.5682318 1646.97158,76.6749748 1647.72133,76.3235734 C1648.47107,75.9721721 1649.36567,76.2940665 1649.71707,77.0451534 C1650.06847,77.7948991 1649.74658,78.688156 1648.99549,79.0408987" id="Fill-121"></path>
                <path d="M1521.64164,95.0018465 C1520.64116,95.4703524 1519.44957,95.0398335 1518.98099,94.0395101 C1518.51126,93.0391867 1518.943,91.8489285 1519.94232,91.3792715 C1520.94396,90.9096145 1522.1344,91.3401334 1522.60298,92.3404568 C1523.07271,93.3419313 1522.64213,94.5321895 1521.64164,95.0018465" id="Fill-123"></path>
                <path d="M1361.67949,120.366408 C1363.2471,120.902343 1364.08417,122.609074 1363.54823,124.176657 C1363.01228,125.744241 1361.30661,126.5813 1359.73792,126.045365 C1358.17031,125.50943 1357.33323,123.803786 1357.86918,122.236202 C1358.40512,120.666444 1360.11079,119.830472 1361.67949,120.366408" id="Fill-125"></path>
            </g>
        </g>
    </g>
</svg>