<?xml version="1.0" encoding="UTF-8"?>
<svg width="279px" height="433px" viewBox="0 0 279 433" version="1.1" xmlns="http://www.w3.org/2000/svg" xmlns:xlink="http://www.w3.org/1999/xlink">
    <!-- Generator: sketchtool 48.2 (47327) - http://www.bohemiancoding.com/sketch -->
    <title>5EC8D6A3-44E7-4750-83FB-25BD1814F6D6</title>
    <desc>Created with sketchtool.</desc>
    <defs>
        <path d="M87.0282626,3.59222818 C119.968532,-3.06768768 146.901938,0.074309904 154.418603,18.8624763 C161.936143,37.651517 144.687503,58.7144407 116.24342,76.613511 C64.1906435,104.011135 0.0139877466,80.6384851 0.0139877466,80.6384851" id="path-1"></path>
    </defs>
    <g id="el_archive" stroke="none" stroke-width="1" fill="none" fill-rule="evenodd" transform="translate(-1106.000000, -1659.000000)">
        <g id="Group-6" transform="translate(1103.000000, 1655.000000)">
            <g id="Page-1" transform="translate(145.817254, 210.950392) rotate(-95.000000) translate(-145.817254, -210.950392) translate(-54.682746, 82.450392)">
                <path d="M87.0278255,104.12872 C119.968969,97.4696783 146.901501,100.610802 154.41904,119.399842 C161.93658,138.188009 144.687066,159.250932 116.243857,177.150877 C64.1910806,204.547627 0.0144248637,181.174977 0.0144248637,181.174977 C0.0144248637,181.174977 20.8404311,128.537338 87.0278255,104.12872" id="Fill-1" fill="#E46825"></path>
                <g id="Group-5" transform="translate(0.000000, 100.536929)">
                    <mask id="mask-2" fill="white">
                        <use xlink:href="#path-1"></use>
                    </mask>
                    <g id="Clip-4"></g>
                    <path d="M87.0282626,3.59222818 C119.968532,-3.06768768 146.901938,0.074309904 154.418603,18.8624763 C161.936143,37.651517 144.687503,58.7144407 116.24342,76.613511 C64.1906435,104.011135 0.0139877466,80.6384851 0.0139877466,80.6384851 C0.0139877466,80.6384851 20.8408682,28.000846 87.0282626,3.59222818" id="Fill-3" mask="url(#mask-2)"></path>
                </g>
                <path d="M97.3043606,109.01429 C124.145098,103.284559 145.944127,105.255083 151.718443,119.690438 C157.494509,134.124918 143.136087,150.749355 119.749449,165.114771 C77.0439839,187.249506 17.7621652,174.464705 17.7621652,174.464705 C17.7621652,174.464705 43.1813978,129.076216 97.3043606,109.01429" id="Fill-7" fill="#EDC21A"></path>
                <path d="M140.390292,123.710254 C158.428366,168.79451 146.380545,219.246563 113.539938,256.82377 C125.784462,254.663538 138.152253,251.191954 150.391531,246.294494 C226.665839,215.778476 268.951671,142.185444 244.840293,81.9209866 C220.728041,21.6556545 139.350828,-2.46009494 63.0765195,28.0559228 C50.8372412,32.9533826 39.487059,38.9698621 29.1317554,45.8518334 C78.8293449,50.4074677 122.352219,78.625998 140.390292,123.710254" id="Fill-10" fill="#4A6AB2"></path>
                <path d="M112.175696,135.044088 C117.996347,149.593093 118.590826,164.745319 114.870085,177.901669 C114.877079,177.901669 114.884947,177.900795 114.891067,177.900795 C151.17703,181.771904 202.804055,182.911031 249.008204,164.42535 C348.60096,124.578631 377.321301,59.2838294 400.323276,19.7597029 C373.540238,12.382915 290.573668,-20.4568172 190.980912,19.3890276 C145.892285,37.4279753 105.617191,79.5074883 87.3290866,103.90037 C97.8942064,110.947572 106.81664,121.649946 112.175696,135.044088" id="Fill-13" fill="#FEFEFE"></path>
                <path d="M400.323276,19.7597029 C400.323276,19.7597029 288.534079,-22.8749489 190.980912,19.3890276 C145.892285,37.4279753 105.617191,79.5074883 87.3290866,103.90037 C105.830504,115.945568 112.175696,135.044088 112.175696,135.044088 L400.323276,19.7597029 Z" id="Fill-16" fill="#D6DDE1" opacity="0.196444746"></path>
                <path d="M359.345735,84.7440636 C378.239684,60.9718882 390.894224,38.7995613 400.328085,19.7727289 C388.023239,15.132294 361.192992,6.66271341 326.358258,2.29416529 L359.345735,84.7440636 Z" id="Fill-18" fill="#4A6AB2"></path>
                <path d="M288.530233,111.504634 C266.124485,120.469031 240.693014,109.572576 231.728616,87.1668287 C222.764219,64.7602071 233.660674,39.3296095 256.067296,30.3652123 C278.473043,21.4008152 303.903641,32.2972698 312.868912,54.7030172 C321.833309,77.1096389 310.93598,102.540236 288.530233,111.504634" id="Fill-21" fill="#7591CA"></path>
                <path d="M285.479855,103.881137 C267.306275,111.152142 246.67872,102.313635 239.407715,84.1400552 C232.136709,65.9656011 240.975216,45.3389203 259.148796,38.0679147 C277.322376,30.7960349 297.949931,39.6345423 305.220937,57.8089964 C312.491942,75.9825762 303.654309,96.6101313 285.479855,103.881137" id="Fill-23" fill="#D7DDE9"></path>
                <path d="M145.767969,136.930423 C107.831451,152.108002 71.7928964,151.200547 71.7928964,151.200547 C71.7928964,151.200547 97.2610861,125.685149 135.196729,110.50757 C173.132372,95.3299902 209.170927,96.2374453 209.170927,96.2374453 C209.170927,96.2374453 183.704486,121.752844 145.767969,136.930423" id="Fill-26" fill="#7591CA"></path>
                <path d="M71.7927215,151.200809 C71.7927215,151.200809 97.2609112,125.685411 135.196554,110.507832 C173.132197,95.3293782 209.171627,96.2368333 209.171627,96.2368333 L71.7927215,151.200809 Z" id="Fill-29" fill="#4A6AB2" opacity="0.429121377"></path>
                <path d="M366.922723,74.845285 L338.594913,4.04280847 C334.637255,3.40986293 330.558953,2.82062911 326.358258,2.29434014 L359.345735,84.7442384 C361.994665,81.4099093 364.509837,78.1114238 366.922723,74.845285" id="Fill-31" fill="#2F4989" opacity="0.122225996"></path>
            </g>
            <path d="M186.466234,4.07880608 L189.88001,8.95796348 C189.906561,8.99778917 189.948429,9.0253608 189.996424,9.03455135 L195.848757,10.134353 C196.010103,10.163967 196.055034,10.372286 195.921261,10.4662338 L191.040061,13.8800101 C191.001256,13.9065605 190.973685,13.9494498 190.964494,13.9964236 L189.865714,19.8487575 C189.8361,20.0101026 189.627781,20.0550341 189.533833,19.9212607 L186.120057,15.0400609 C186.092485,15.0012564 186.050617,14.9747059 186.003643,14.9655154 L180.150288,13.8657137 C179.989964,13.8360997 179.945033,13.6277807 180.078806,13.533833 L184.957963,10.1200566 C184.99881,10.092485 185.025361,10.050617 185.034551,10.0036431 L186.134353,4.15028808 C186.163967,3.98996416 186.372286,3.94503261 186.466234,4.07880608" id="Fill-16-Copy-9" fill="#7692CB" opacity="0.421082428"></path>
            <path d="M9.46623378,421.078806 L12.8800101,425.957963 C12.9065605,425.997789 12.9484286,426.025361 12.9964236,426.034551 L18.8487575,427.134353 C19.0101026,427.163967 19.0550341,427.372286 18.9212607,427.466234 L14.0400609,430.88001 C14.0012564,430.906561 13.9736848,430.94945 13.9644942,430.996424 L12.8657137,436.848757 C12.8360997,437.010103 12.6277807,437.055034 12.533833,436.921261 L9.12005664,432.040061 C9.09248501,432.001256 9.05061698,431.974706 9.00364309,431.965515 L3.15028808,430.865714 C2.98996416,430.8361 2.94503261,430.627781 3.07880608,430.533833 L7.95796348,427.120057 C7.99881034,427.092485 8.0253608,427.050617 8.03455135,427.003643 L9.13435305,421.150288 C9.16396702,420.989964 9.372286,420.945033 9.46623378,421.078806" id="Fill-16-Copy-10" fill="#7692CB" opacity="0.365658967"></path>
        </g>
    </g>
</svg>