<?xml version="1.0" encoding="UTF-8"?>
<svg width="72px" height="52px" viewBox="0 0 72 52" version="1.1" xmlns="http://www.w3.org/2000/svg" xmlns:xlink="http://www.w3.org/1999/xlink">
    <!-- Generator: sketchtool 48.2 (47327) - http://www.bohemiancoding.com/sketch -->
    <title>00D61A66-E35D-45C9-888C-0866E979D2E3</title>
    <desc>Created with sketchtool.</desc>
    <defs></defs>
    <g id="Main-page-" stroke="none" stroke-width="1" fill="none" fill-rule="evenodd" transform="translate(-1848.000000, -2591.000000)">
        <g id="Logo_of_the_Skolkovo_Foundation" transform="translate(1848.000000, 2590.000000)" fill-rule="nonzero">
            <g id="g3826" transform="translate(37.500000, 27.000000) scale(-1, 1) rotate(-180.000000) translate(-37.500000, -27.000000) ">
                <g id="g4151" transform="translate(0.219042, 0.281323)">
                    <polygon id="path4086" fill="#BFDF14" points="0.375428036 0.102230458 73.4618503 0.102230458 73.4618503 52.3253507 0.375428036 52.3253507"></polygon>
                    <path d="M13.0580424,14.3758427 C12.9330443,14.8325667 12.6850197,15.7176175 11.3810175,15.7176175 C10.6231426,15.7176175 9.47765532,15.175307 9.47765532,13.0411673 C9.47765532,11.6859826 10.0502018,10.4301887 11.3810175,10.4301887 C12.2567928,10.4301887 12.8711368,10.9590894 13.0580424,11.8859473 L14.6321509,11.8859473 C14.3202472,10.2392954 13.2469197,9.09472449 11.3522324,9.09472449 C9.34358797,9.09472449 7.90551839,10.4609525 7.90551839,13.0628597 C7.90551839,15.7085461 9.42678859,17.0503208 11.3719482,17.0503208 C13.6333491,17.0503208 14.5461901,15.4892554 14.6321509,14.3758427 L13.0580424,14.3758427 Z" id="path4088" fill="#5D6163"></path>
                    <polygon id="path4090" fill="#5D6163" points="16.558896 12.7698937 18.4094199 14.8953564 20.2118373 14.8953564 18.2445959 12.7304529 20.2646756 9.29200718 18.5036614 9.29200718 17.1689025 11.6986826 16.558896 11.0617142 16.558896 9.29200718 15.0900698 9.29200718 15.0900698 14.8953564 16.558896 14.8953564 16.558896 12.7698937"></polygon>
                    <path d="M25.6380953,12.1047647 C25.6380953,10.0850032 24.2836207,9.14512978 22.7840378,9.14512978 C21.2868209,9.14512978 19.9213054,10.0711989 19.9213054,12.0917492 C19.9213054,14.1138771 21.2868209,15.0411295 22.7840378,15.0411295 C24.2836207,15.0411295 25.6380953,14.1249206 25.6380953,12.1047647 M21.4315348,12.1047647 C21.4315348,11.3869428 21.6491971,10.3879082 22.7840378,10.3879082 C23.9192729,10.3879082 24.1274716,11.3758994 24.1274716,12.0917492 C24.1274716,12.8119375 23.9192729,13.8003231 22.7840378,13.8003231 C21.6491971,13.8003231 21.4315348,12.822981 21.4315348,12.1047647" id="path4092" fill="#5D6163"></path>
                    <path d="M31.1574119,14.8958297 L31.1574119,9.29208606 L29.6885856,9.29208606 L29.6885856,13.7165509 L28.116843,13.7165509 L28.116843,11.988651 C28.116843,9.84543997 27.4717424,9.16942529 26.4398181,9.16942529 C26.1831185,9.16942529 25.7635666,9.21083809 25.5462986,9.29208606 L25.5462986,10.3877505 C25.5766609,10.366058 25.7635666,10.3459433 25.9808346,10.3459433 C26.4220739,10.3459433 26.6503827,10.5636563 26.6503827,12.2698637 L26.6503827,14.8958297 L31.1574119,14.8958297 Z" id="path4094" fill="#5D6163"></path>
                    <polygon id="path4096" fill="#5D6163" points="33.3763449 12.7698937 35.2268688 14.8953564 37.0292861 14.8953564 35.0600732 12.7304529 37.0821245 9.29200718 35.3211103 9.29200718 33.9887173 11.6986826 33.3763449 11.0617142 33.3763449 9.29200718 31.9075187 9.29200718 31.9075187 14.8953564 33.3763449 14.8953564 33.3763449 12.7698937"></polygon>
                    <path d="M42.4554653,12.1047647 C42.4554653,10.0850032 41.1033566,9.14512978 39.6037737,9.14512978 C38.1041909,9.14512978 36.7410413,10.0711989 36.7410413,12.0917492 C36.7410413,14.1138771 38.1041909,15.0411295 39.6037737,15.0411295 C41.1033566,15.0411295 42.4554653,14.1249206 42.4554653,12.1047647 M38.251665,12.1047647 C38.251665,11.3869428 38.468933,10.3879082 39.6037737,10.3879082 C40.7338827,10.3879082 40.9495734,11.3758994 40.9495734,12.0917492 C40.9495734,12.8119375 40.7338827,13.8003231 39.6037737,13.8003231 C38.468933,13.8003231 38.251665,12.822981 38.251665,12.1047647" id="path4098" fill="#5D6163"></path>
                    <path d="M42.9315227,14.8954353 L45.460664,14.8954353 C46.7118279,14.8954353 47.6270348,14.3834942 47.6270348,13.4479593 C47.6270348,12.8027084 47.1684456,12.3877916 46.5840696,12.2406775 C47.1570104,12.1038181 47.7934361,11.7378078 47.7934361,10.8215989 C47.7934361,9.78351798 47.0079591,9.29129725 45.739051,9.29129725 L42.9315227,9.29129725 L42.9315227,14.8954353 Z M44.3975887,12.6268026 L45.3549874,12.6268026 C45.8423617,12.6268026 46.187388,12.8220344 46.187388,13.2614045 C46.187388,13.7185229 45.8553741,13.8849629 45.3660282,13.8849629 L44.3975887,13.8849629 L44.3975887,12.6268026 Z M44.3975887,10.3013752 L45.4776196,10.3013752 C46.0201981,10.3013752 46.3561551,10.4682096 46.3561551,11.0219579 C46.3561551,11.5114178 46.0024539,11.7378078 45.460664,11.7378078 L44.3975887,11.7378078 L44.3975887,10.3013752 Z" id="path4100" fill="#5D6163"></path>
                    <path d="M53.6723252,12.1047647 C53.6723252,10.0850032 52.3221881,9.14512978 50.8206336,9.14512978 C49.3230263,9.14512978 47.9555393,10.0711989 47.9555393,12.0917492 C47.9555393,14.1138771 49.3230263,15.0411295 50.8206336,15.0411295 C52.3221881,15.0411295 53.6723252,14.1249206 53.6723252,12.1047647 M49.466163,12.1047647 C49.466163,11.3869428 49.6873702,10.3879082 50.8206336,10.3879082 C51.9554744,10.3879082 52.1620959,11.3758994 52.1620959,12.0917492 C52.1620959,12.8119375 51.9554744,13.8003231 50.8206336,13.8003231 C49.6873702,13.8003231 49.466163,12.822981 49.466163,12.1047647" id="path4102" fill="#5D6163"></path>
                    <path d="M18.5822091,18.3170398 C19.8337673,18.3170398 22.9157393,18.5363305 25.2189376,20.218479 L25.2189376,18.9425703 L29.8659489,18.9425703 L29.8706807,24.5530189 L31.8111085,26.5621314 L36.035019,18.9425703 L41.6106438,18.9425703 L35.2116876,29.8297986 L41.4442426,36.6917026 L35.736518,36.6917026 L29.8706807,29.9591643 L29.8706807,42.8925794 L25.2189376,42.8925794 L25.2189376,40.8463926 C23.8025554,42.3676229 21.5064548,43.5181099 17.9260677,43.5181099 C10.1761857,43.5181099 8.72116054,38.8021779 8.72116054,36.1624076 C8.72116054,32.5350406 10.6706577,30.5192232 14.066505,29.6957 L18.8811004,28.5101107 C21.4204939,27.8822137 23.236318,27.4211512 23.236318,25.54101 C23.236318,23.0333663 20.5955853,22.4405716 18.2202272,22.4405716 C13.8665869,22.4405716 13.1422288,24.9793736 13.1422288,26.3314029 L8.35878435,26.3314029 C8.35878435,23.3630911 9.87571708,18.3170398 18.5822091,18.3170398 M21.7501419,32.5985402 L15.9150573,34.0195909 C14.9229588,34.249925 13.3725092,34.6474879 13.3725092,36.5248682 C13.3725092,38.6700513 15.6492884,39.3965502 17.5617199,39.3965502 C21.9149659,39.3965502 22.3124362,36.8541986 22.4417717,35.7672111 L25.2189376,35.7672111 L25.2189376,31.3029111 C24.2000257,31.8980723 22.9973626,32.2845917 21.7501419,32.5985402" id="path4104" fill="#5D6163"></path>
                </g>
            </g>
        </g>
    </g>
</svg>