<?xml version="1.0" encoding="UTF-8"?>
<svg width="1920px" height="318px" viewBox="0 0 1920 318" version="1.1" xmlns="http://www.w3.org/2000/svg" xmlns:xlink="http://www.w3.org/1999/xlink">
    <!-- Generator: sketchtool 48.2 (47327) - http://www.bohemiancoding.com/sketch -->
    <title>7363FA28-BF87-438B-8C19-3B050C7857A2</title>
    <desc>Created with sketchtool.</desc>
    <defs></defs>
    <g id="About" stroke="none" stroke-width="1" fill="none" fill-rule="evenodd" transform="translate(0.000000, -677.000000)">
        <g id="clouds" transform="translate(-6.000000, 677.000000)">
            <path d="M0.000675847298,0.71875 C0.000675847298,97.4725381 0.000675847298,157.018106 0.000675847298,179.355453 C18.606752,197.964336 44.3114776,209.475752 72.7038226,209.475752 C95.0811266,209.475752 115.771065,202.301677 132.651478,190.161628 C176.815846,203.736942 223.422276,205.760284 263.696016,191.312995 C292.660579,180.923655 313.625362,163.729759 330.686,145.071306 C368.880384,142.84518 401.478752,119.784044 417.264292,87.0726067 C435.998779,106.796806 462.455948,119.117108 491.803491,119.117108 C490.325638,124.592297 489.498851,130.355891 489.498851,136.313257 C489.498851,171.886213 518.33275,200.724462 553.900341,200.724462 C556.072063,200.724462 558.216752,200.614057 560.332154,200.404513 C560.316384,222.341319 577.834346,239.864177 599.447943,239.864177 C608.691281,239.864177 617.168659,236.639899 623.864053,231.281875 C641.670376,244.512455 663.725526,252.346707 687.612223,252.346707 C719.649638,252.346707 748.377653,238.246405 767.986236,215.93332 C776.076129,219.709623 785.094184,221.829851 794.610114,221.829851 C807.074991,221.829851 818.683795,218.19775 828.465558,211.954232 C841.86761,218.362231 856.873673,221.949269 872.720039,221.949269 C894.412485,221.949269 914.505425,215.192029 931.086212,203.716664 C937.405384,208.547448 945.279005,211.449523 953.848749,211.449523 C959.212724,211.449523 964.304107,210.304916 968.920144,208.279321 C987.724468,232.50309 1017.10355,248.097239 1050.14347,248.097239 C1054.73248,248.097239 1059.24263,247.766024 1063.67619,247.182454 C1087.37815,267.339261 1111.7064,284.393461 1156.42046,288.212574 C1182.92494,290.477004 1206.55932,287.218929 1228.12786,280.558576 C1242.6766,290.700068 1260.35451,296.664193 1279.43368,296.664193 C1286.29578,296.664193 1292.9709,295.868826 1299.3937,294.411029 C1307.5309,300.411205 1317.55372,303.998243 1328.43711,303.998243 C1355.52958,303.998243 1377.49236,282.032145 1377.49236,254.935592 C1377.49236,252.024504 1377.19274,249.185517 1376.70613,246.411872 C1390.6849,240.943443 1400.60184,227.368128 1400.60184,211.449523 C1400.60184,208.944005 1400.34501,206.503828 1399.87643,204.138006 C1402.3658,204.318259 1404.87319,204.442183 1407.40762,204.442183 C1433.4773,204.442183 1457.26487,194.717526 1475.38659,178.724567 C1492.42245,211.970004 1527.00105,234.735975 1566.91884,234.735975 C1576.63978,234.735975 1586.03406,233.357039 1594.94623,230.835748 C1625.24221,250.068758 1646.99098,265.270857 1673.13726,264.042882 C1716.89387,264.042882 1737.68743,245.706632 1762.85824,232.059216 C1781.58822,251.749618 1808.02061,264.042882 1837.33887,264.042882 C1839.72686,264.042882 1842.09458,263.955009 1844.44202,263.795034 C1848.42952,280.258905 1863.22382,292.502599 1880.91074,292.502599 C1888.52078,306.751609 1902.27878,317.019279 1918.47208,317.019279 C1926.82706,317.019279 1929.33636,313.770967 1926,307.274344 L1926,119.117108 L1926,1.75 L0.000675847298,0.71875 Z" id="Fill-1" fill-opacity="0.2" fill="#7591CA"></path>
            <path d="M4,0.49609375 C4,61.3559023 4,94.0308546 4,98.5209506 C22.1698264,116.699704 47.2764037,127.943666 75.0053836,127.943666 C96.8587396,127.943666 117.067462,120.936755 133.552101,109.077519 C176.686571,122.338588 222.204633,124.315127 261.540674,110.20214 C289.826126,100.053501 310.302946,83.2562973 326.965567,65.0302155 C364.267218,62.8553461 396.10553,40.3268543 411.522284,8.37092343 C429.818274,27.6404918 455.657051,39.6755204 484.323248,39.6755204 C482.879124,45.0259245 482.072577,50.6535399 482.072577,56.474978 C482.072577,91.2255597 510.231865,119.395189 544.96969,119.395189 C547.089691,119.395189 549.182656,119.287009 551.248587,119.081918 C551.232817,140.51058 568.346022,157.63007 589.451407,157.63007 C598.478871,157.63007 606.760617,154.479326 613.300853,149.243863 C630.691168,162.169124 652.229115,169.822861 675.558136,169.822861 C706.848988,169.822861 734.904642,156.047937 754.056742,134.251914 C761.957745,137.941304 770.764422,140.012501 780.059983,140.012501 C792.232528,140.012501 803.569238,136.465097 813.123886,130.366448 C826.21337,136.62286 840.870889,140.129696 856.346219,140.129696 C877.53271,140.129696 897.153419,133.52846 913.349684,122.318304 C919.522694,127.035404 927.211921,129.870623 935.581532,129.870623 C940.819578,129.870623 945.79178,128.755016 950.299879,126.776223 C968.66571,150.438351 997.358941,165.673706 1029.62531,165.673706 C1034.10863,165.673706 1038.51534,165.349166 1042.84321,164.778967 C1065.992,184.467733 1089.75358,201.127458 1133.42199,204.859669 C1159.30808,207.070598 1182.39153,203.888302 1203.45636,197.381724 C1217.66555,207.289212 1234.9297,213.115158 1253.56363,213.115158 C1260.26608,213.115158 1266.78604,212.339868 1273.05818,210.915497 C1281.00649,216.775249 1290.79544,220.279831 1301.42473,220.279831 C1327.88532,220.279831 1349.3354,198.821871 1349.3354,172.351569 C1349.3354,169.507336 1349.04027,166.735222 1348.5649,164.028468 C1362.21762,158.682571 1371.90293,145.423756 1371.90293,129.870623 C1371.90293,127.425303 1371.65286,125.040835 1371.19777,122.728487 C1373.62867,122.906533 1376.07535,123.025982 1378.55131,123.025982 C1404.0116,123.025982 1427.24374,113.528676 1444.94271,97.9056767 C1461.5828,130.37997 1495.35187,152.619982 1534.3387,152.619982 C1543.83252,152.619982 1553.00643,151.272239 1561.71172,148.811143 C1591.29936,167.598409 1612.54218,182.446118 1638.07681,181.247123 C1680.81026,181.247123 1701.12036,163.336566 1725.70426,150.005631 C1743.998,169.23914 1769.81199,181.247123 1798.4444,181.247123 C1800.77843,181.247123 1803.08992,181.163734 1805.3834,181.008226 C1809.2787,197.09099 1823.72445,209.051645 1840.99986,209.051645 C1848.43226,222.968556 1861.86869,233 1877.68421,233 C1889.92435,233 1900.73387,226.980232 1907.39802,217.764645 C1914.37007,220.225741 1920.57073,222.130912 1926,223.480157 L1926,28.703125 L1926,0.49609375 L4,0.49609375 Z" id="Fill-4" fill="#FEFEFE"></path>
            <path d="M436.885291,81.1236832 C438.058022,70.1394424 430.105724,60.2870353 419.121598,59.114292 C408.139745,57.9438215 398.287441,65.8962027 397.11471,76.8781707 C395.941979,87.8601387 403.894277,97.7148187 414.87613,98.8852892 C425.860256,100.058032 435.71256,92.1056512 436.885291,81.1236832" id="Fill-6" fill="#FEFEFE"></path>
            <path d="M836.347451,158.472991 C830.533531,151.101053 819.845107,149.838657 812.473074,155.652502 C805.101041,161.466348 803.838629,172.156909 809.652549,179.526572 C815.466469,186.89851 826.154893,188.160907 833.526926,182.349335 C840.898959,176.533215 842.161371,165.844929 836.347451,158.472991" id="Fill-8" fill="#FEFEFE"></path>
            <path d="M619.999771,188.575812 C620.041127,181.672336 614.47878,176.041581 607.57467,176.000229 C600.672857,175.958877 595.041585,181.520712 595.000229,188.424188 C594.958873,195.325367 600.518922,200.956122 607.423032,200.999771 C614.327143,201.041123 619.958415,195.479288 619.999771,188.575812" id="Fill-10" fill="#FEFEFE"></path>
            <path d="M278.948239,144.370692 C278.325654,137.494791 272.246838,132.429184 265.370837,133.05176 C258.497134,133.676633 253.429156,139.755361 254.051741,146.628965 C254.676623,153.504866 260.755439,158.57277 267.629143,157.947897 C274.505143,157.325321 279.570824,151.246593 278.948239,144.370692" id="Fill-12" fill="#FEFEFE"></path>
            <path d="M1202.38381,232.357493 C1198.99106,226.345923 1191.36942,224.223381 1185.35803,227.616232 C1179.34663,231.009082 1177.22414,238.630936 1180.6146,244.642507 C1184.00736,250.654077 1191.63129,252.776619 1197.64269,249.383768 C1203.65409,245.993215 1205.77657,238.369064 1202.38381,232.357493" id="Fill-14" fill="#FEFEFE"></path>
            <path d="M1571.99974,184.576955 C1572.0434,177.672852 1566.47876,172.041585 1559.57695,172.000229 C1552.67285,171.958873 1547.04158,177.521214 1547.00023,184.425317 C1546.95887,191.327122 1552.51892,196.958389 1559.42302,196.999745 C1566.32712,197.043398 1571.95839,191.47876 1571.99974,184.576955" id="Fill-16" fill="#FEFEFE"></path>
            <path d="M1728.60073,179.530824 C1726.68386,177.542193 1723.51859,177.483146 1721.53001,179.400077 C1719.54354,181.314899 1719.48239,184.480261 1721.39927,186.468892 C1723.31614,188.457524 1726.48141,188.516571 1728.46999,186.601749 C1730.45646,184.684818 1730.51761,181.519456 1728.60073,179.530824" id="Fill-18" fill="#FEFEFE"></path>
            <path d="M1185.02873,251.978192 C1188.60649,251.684654 1191.2696,248.54933 1190.97819,244.971572 C1190.68678,241.391687 1187.54933,238.728575 1183.97156,239.022113 C1180.3938,239.313524 1177.72856,242.450975 1178.0221,246.028733 C1178.31351,249.606491 1181.45096,252.269603 1185.02873,251.978192" id="Fill-20" fill="#FEFEFE"></path>
            <path d="M1354.1942,236.108221 C1356.18651,231.85915 1354.35729,226.79685 1350.10822,224.806751 C1345.85915,222.812244 1340.79685,224.643664 1338.80675,228.892735 C1336.81224,233.141805 1338.64366,238.201902 1342.89273,240.194204 C1347.14181,242.186507 1352.2019,240.357291 1354.1942,236.108221" id="Fill-24" fill="#FEFEFE"></path>
            <path d="M441.33619,111.970732 C442.977248,108.472607 441.470984,104.30481 437.970631,102.663793 C434.472418,101.022776 430.304517,102.529003 428.663459,106.029268 C427.022401,109.527393 428.530805,113.69519 432.029018,115.336207 C435.529371,116.977224 439.695133,115.470997 441.33619,111.970732" id="Fill-26" fill="#FEFEFE"></path>
            <path d="M1693.29198,265.195086 C1703.34052,260.613933 1707.77397,248.756563 1703.19509,238.708022 C1698.61621,228.659481 1686.75884,224.226033 1676.70802,228.804914 C1666.65948,233.383795 1662.22603,245.243437 1666.80491,255.291978 C1671.38379,265.340519 1683.24344,269.773967 1693.29198,265.195086" id="Fill-28" fill="#FEFEFE"></path>
            <path d="M1700.66748,287.967705 C1704.51504,287.599632 1707.33757,284.179978 1706.96737,280.332333 C1706.59931,276.484687 1703.18187,273.664222 1699.33218,274.032295 C1695.48463,274.400368 1692.66423,277.820022 1693.03229,281.667667 C1693.40036,285.515313 1696.81993,288.335778 1700.66748,287.967705" id="Fill-30" fill="#FEFEFE"></path>
            <path d="M458.379478,186.30263 C457.441683,188.302861 458.301504,190.684591 460.303539,191.620421 C462.301359,192.558358 464.682727,191.698407 465.620522,189.698175 C466.558317,187.697944 465.698496,185.316214 463.696461,184.378277 C461.698641,183.442447 459.317273,184.302398 458.379478,186.30263" id="Fill-32" fill="#FEFEFE"></path>
            <path d="M992.194204,191.107946 C994.186507,186.858636 992.357291,181.798256 988.108221,179.805841 C983.85915,177.813426 978.799054,179.642745 976.806751,183.892054 C974.812244,188.141364 976.643664,193.201744 980.892735,195.194159 C985.141805,197.186574 990.201902,195.357255 992.194204,191.107946" id="Fill-34" fill="#FEFEFE"></path>
            <path d="M1555.95212,210.589215 C1557.3815,212.272062 1559.9065,212.479253 1561.58907,211.049638 C1563.27395,209.617721 1563.4788,207.092299 1562.04712,205.409451 C1560.61774,203.726603 1558.09504,203.521715 1556.41016,204.95133 C1554.72759,206.380944 1554.52044,208.906367 1555.95212,210.589215" id="Fill-36" fill="#FEFEFE"></path>
            <path d="M147.416423,157.977288 C156.314412,154.824123 161.100589,145.339585 158.108946,136.793029 C155.115039,128.244196 145.479322,123.870745 136.581333,127.02391 C127.685606,130.174798 122.899429,139.659335 125.891073,148.205892 C128.882716,156.754725 138.520696,161.128176 147.416423,157.977288" id="Fill-38" fill="#FEFEFE"></path>
            <path d="M1896.05944,256.324119 C1892.92585,257.395431 1891.25258,260.804942 1892.32391,263.938476 C1893.39524,267.074184 1896.8048,268.74743 1899.94056,267.676118 C1903.07415,266.604805 1904.74742,263.195294 1903.67609,260.059587 C1902.60476,256.92388 1899.1952,255.252807 1896.05944,256.324119" id="Fill-40" fill="#FEFEFE"></path>
            <path d="M156.091847,163.826705 C154.340234,161.016614 150.639246,160.155983 147.827104,161.907671 C145.014961,163.65936 144.156541,167.360509 145.908153,170.172774 C147.661939,172.985038 151.360754,173.843496 154.172896,172.091807 C156.985039,170.340119 157.843459,166.63897 156.091847,163.826705" id="Fill-42" fill="#FEFEFE"></path>
            <path d="M599.302041,212.621332 C601.302209,213.558022 603.684458,212.69728 604.621245,210.69732 C605.558033,208.697359 604.697201,206.31766 602.699335,205.378668 C600.696865,204.441978 598.316918,205.30272 597.38013,207.30268 C596.441041,209.302641 597.301873,211.68234 599.302041,212.621332" id="Fill-44" fill="#FEFEFE"></path>
            <path d="M813.431859,196.546253 C814.837155,193.546546 813.545925,189.976553 810.545982,188.569085 C807.54604,187.161618 803.973485,188.455028 802.568189,191.454735 C801.162892,194.454442 802.454122,198.024436 805.451783,199.431903 C808.451726,200.837089 812.024281,199.54596 813.431859,196.546253" id="Fill-46" fill="#FEFEFE"></path>
            <path d="M1424.30165,150.621332 C1426.30147,151.558022 1428.68331,150.69728 1429.61994,148.69732 C1430.55886,146.697359 1429.69818,144.31766 1427.69835,143.378668 C1425.69623,142.441978 1423.31669,143.30272 1422.38006,145.30268 C1421.44114,147.302641 1422.30182,149.68234 1424.30165,150.621332" id="Fill-48" fill="#FEFEFE"></path>
            <path d="M287.715655,158.611965 C289.710923,157.66381 290.56012,155.279614 289.611965,153.284345 C288.66381,151.289077 286.277312,150.43988 284.284345,151.388035 C282.289077,152.33619 281.43988,154.722688 282.388035,156.715655 C283.33619,158.710923 285.720386,159.56012 287.715655,158.611965" id="Fill-50" fill="#FEFEFE"></path>
            <path d="M1352.30268,259.620295 C1354.30264,260.559267 1356.68234,259.696241 1357.62133,257.698624 C1358.55802,255.696404 1357.69728,253.316753 1355.69732,252.380083 C1353.69736,251.44111 1351.31766,252.301835 1350.37867,254.301754 C1349.44198,256.301673 1350.30272,258.683624 1352.30268,259.620295" id="Fill-52" fill="#FEFEFE"></path>
            <path d="M704.438932,211.763424 C705.690091,212.348831 707.178077,211.810346 707.763441,210.561329 C708.348805,209.310078 707.81036,207.821983 706.561435,207.236576 C705.312509,206.651169 703.824523,207.189654 703.236925,208.438671 C702.651561,209.687688 703.187772,211.178017 704.438932,211.763424" id="Fill-54" fill="#FEFEFE"></path>
            <path d="M952.301645,242.621332 C954.301469,243.558022 956.683309,242.69728 957.619935,240.69732 C958.558863,238.697359 957.698179,236.31766 955.698355,235.378668 C953.696229,234.441978 951.316691,235.30272 950.380065,237.30268 C949.441137,239.302641 950.301821,241.68234 952.301645,242.621332" id="Fill-56" fill="#FEFEFE"></path>
            <path d="M328.30268,106.621245 C330.302641,107.558033 332.68234,106.697201 333.621332,104.699335 C334.558022,102.696865 333.69728,100.316918 331.69732,99.3801301 C329.697359,98.4410407 327.31766,99.3018726 326.378668,101.302041 C325.441978,103.302209 326.30272,105.684458 328.30268,106.621245" id="Fill-58" fill="#FEFEFE"></path>
            <path d="M1145.32304,254.940563 C1146.39435,258.07415 1149.80603,259.747424 1152.93957,258.676094 C1156.07528,257.604764 1157.74852,254.195196 1156.67504,251.059437 C1155.6059,247.92585 1152.19421,246.252576 1149.06068,247.323906 C1145.92497,248.395236 1144.2539,251.806977 1145.32304,254.940563 Z" id="Fill-66" fill="#FEFEFE"></path>
        </g>
    </g>
</svg>