<svg id="Layer_1" data-name="Layer 1" xmlns="http://www.w3.org/2000/svg" xmlns:xlink="http://www.w3.org/1999/xlink" viewBox="0 0 547 536.7"><defs><style>.cls-1{fill:none;}.cls-2{fill:#7692cb;opacity:0.36;}.cls-3{fill:#1d2f5e;}.cls-4{clip-path:url(#clip-path);}.cls-10,.cls-16,.cls-18,.cls-22,.cls-23,.cls-24,.cls-27,.cls-32,.cls-33,.cls-34,.cls-35,.cls-5{fill:#1d305e;}.cls-5{opacity:0.08;}.cls-6{fill:#7691c9;}.cls-7{fill:#213f77;opacity:0.14;}.cls-8{fill:#345693;}.cls-9{clip-path:url(#clip-path-2);}.cls-10{opacity:0.06;}.cls-11{fill:#bac4d7;}.cls-12{fill:#d8deea;}.cls-13{fill:#d65e8f;}.cls-13,.cls-19,.cls-20{opacity:0.93;}.cls-14{fill:#ef6493;}.cls-15,.cls-18{opacity:0.3;}.cls-16{font-size:6.26px;}.cls-16,.cls-22,.cls-23,.cls-24{font-family:Raleway-SemiBold, Raleway;}.cls-16,.cls-22,.cls-23,.cls-24,.cls-27,.cls-32,.cls-33{font-weight:700;}.cls-17{letter-spacing:-0.02em;}.cls-19{fill:#6eb68f;}.cls-20{fill:#79c7a0;}.cls-21{fill:#a2b0cc;}.cls-22{font-size:4.59px;}.cls-23{font-size:3.82px;}.cls-24{font-size:4.75px;}.cls-25{fill:#6a86be;}.cls-26{fill:#7d9ed2;}.cls-27{font-size:5.75px;}.cls-27,.cls-32,.cls-33{font-family:Raleway-Bold, Raleway;}.cls-28{letter-spacing:-0.02em;}.cls-29{letter-spacing:-0.01em;}.cls-30{letter-spacing:-0.03em;}.cls-31{fill:#6d849c;}.cls-32,.cls-33{font-size:5.43px;}.cls-32{letter-spacing:-0.03em;}.cls-34{font-size:4.59px;font-family:GothamPro-Medium, Gotham Pro;}.cls-35{opacity:0.01;}</style><clipPath id="clip-path"><ellipse class="cls-1" cx="273.5" cy="268.35" rx="251" ry="244.5"/></clipPath><clipPath id="clip-path-2"><path class="cls-1" d="M215.92,303.92c5.39,2.33,20.23,8.75,36.47,2.89,2-.7,22.1-8.28,23.57-24.1,1.2-12.93-10.83-23.37-19.28-27.76-11.73-6.09-21.12-2.9-22.82-7.33-2.11-5.49,9.62-17.15,23.53-20.39,18.63-4.34,37.78,7.45,47.55,19.42,12.72,15.57,11.6,33.3,11.14,40.61-1.9,30.23-24.05,48.86-27.08,51.32-1,.8-2.14,1.29-3.14,2-18.81,13.83-39.06,15.48-50.55,16.37-3.25.24-8.21.48-15.71.35a110.08,110.08,0,0,1-29.69-5,24.29,24.29,0,0,0,4.21,7.6c3.87,4.58,9.83,7.29,15.93,8.62s12.41,14.2,18.66,14.39c19.24.59,38.43-10.47,57.43-7.62a15.23,15.23,0,0,0,6.41.06c2.59-.74,4.45-2.8,6.12-4.79a159.19,159.19,0,0,0,35.63-78.76c1.37-9.33,1.82-19.09-1.73-27.9-1.86-4.6-4.74-8.78-7.61-12.91-4.44-6.42-8.94-12.88-14.66-18.36a37.61,37.61,0,0,0-12.71-8.39c-4.48-1.66-32.71-125.54-37.54-125.63-20.56-.38-82.75-41.1-90.06-36.5-3.8,2.39-62.86,144.45-65.67,147.83-2.09,2.5,55.25,29.45,70.66,42.85,2.88,5.75,9.35,12.56,11.76,21.23A56.08,56.08,0,0,0,215.92,303.92Z"/></clipPath></defs><title>Artboard 1</title><ellipse class="cls-2" cx="273.5" cy="268.35" rx="273" ry="267.5"/><ellipse class="cls-3" cx="273.5" cy="268.35" rx="251" ry="244.5"/><g class="cls-4"><path class="cls-5" d="M261.8,563.67c26-15.08,28.5-12.86,52.52-26.09,19-10.46,56.85-33.57,92.23-72.32,15.52-17,35.5-38.89,50.46-73.44,19.79-45.7,18.46-85.05,17.63-103.44-1.19-26.45-2.41-53.44-19.49-83.47-23.54-41.42-61.29-60.56-72-65.84-4.66-2.29-87.21-41.22-166.13-1.95-14.61,7.27-48.51,24.74-65.95,62.65-16.35,35.55-8.42,67.73-6,77.06,3.71,14.15,10.51,40,36.61,58.71C210.19,356,242.43,354,252.56,353.18c12.06-.93,33.94-2.6,53.47-18.5,3-2.45,25.08-21,27-51.12.46-7.28,1.57-24.94-11.1-40.45-9.73-11.92-28.74-24-47.3-19.65-13.86,3.22-25.6,15.14-23.5,20.62,1.69,4.4,11,1.23,22.73,7.3,8.42,4.37,20.4,14.77,19.21,27.65-1.47,15.75-21.53,23.3-23.48,24-16.18,5.83-31-.56-36.33-2.89C211,290.54,204,270.28,203.11,267.58c-6.3-19.27,1.38-35.54,4.33-41.51,11.95-24.29,36.33-33.47,43.39-36.12,24.32-9.16,45.86-5.18,55.35-3.3,6.52,1.29,43,9.14,65.57,41.39,15.14,21.64,16.16,43,16.64,57.3,1.41,41.9-18.28,73-27.7,87.5-7.52,11.55-34.53,51.82-85.88,71.38-12.92,4.93-28.56,7.51-59.85,12.67-53.56,8.83-62.06,4.3-89.8,13.92C113,475,87.31,484.25,65.43,507.15c-12.12,12.69-29.08,30.45-27,52.82,2.84,30.06,38.09,46.91,46.55,51,49.67,23.74,103.91,1.15,108-.64C219,599,217.72,589.24,261.8,563.67Z"/><path class="cls-6" d="M244.35,567.46c26-15.08,28.51-12.86,52.52-26.1a364.8,364.8,0,0,0,92.23-72.31c15.52-17,35.5-38.9,50.46-73.44,19.8-45.7,18.46-85.05,17.63-103.44-1.19-26.46-2.41-53.44-19.48-83.47-23.55-41.42-61.29-60.56-72-65.84-4.66-2.29-87.22-41.22-166.14-2-14.6,7.27-48.51,24.74-66,62.65-16.34,35.54-8.41,67.73-6,77.06,3.72,14.15,10.52,40,36.61,58.71,28.52,20.42,60.76,18.41,70.9,17.64,12-.93,33.94-2.6,53.46-18.5,3-2.45,25.08-21,27-51.12.45-7.28,1.56-24.94-11.1-40.45-9.74-11.92-28.75-24-47.31-19.65-13.85,3.22-25.6,15.14-23.5,20.62,1.7,4.4,11,1.23,22.74,7.3,8.41,4.37,20.4,14.77,19.2,27.65-1.46,15.75-21.53,23.3-23.48,24-16.17,5.83-31-.56-36.33-2.89-22.22-9.61-29.23-29.87-30.12-32.58-6.3-19.26,1.39-35.53,4.33-41.5,11.95-24.29,36.33-33.47,43.39-36.12,24.32-9.16,45.87-5.18,55.36-3.3,6.52,1.29,43,9.14,65.57,41.39,15.13,21.64,16.15,43,16.63,57.29,1.41,41.91-18.28,73-27.7,87.51-7.52,11.55-34.53,51.82-85.88,71.38-12.92,4.93-28.56,7.51-59.85,12.67-53.56,8.83-62.06,4.3-89.8,13.92C95.53,478.82,69.87,488,48,510.94c-12.13,12.69-29.08,30.45-27,52.82,2.84,30,38.1,46.91,46.56,51,49.66,23.74,103.9,1.15,108-.64C201.56,602.82,200.27,593,244.35,567.46Z"/><path class="cls-7" d="M397,162.28c-4.51,9.33-1,25,9.81,39.09,11.25,14.75,26.78,23,37.8,21.17a138.47,138.47,0,0,0-6.85-13.84A157.61,157.61,0,0,0,397,162.28Z"/><ellipse class="cls-7" cx="376.6" cy="181.93" rx="5.56" ry="9.62" transform="translate(-30.25 278.88) rotate(-39.19)"/><ellipse class="cls-7" cx="299.64" cy="271.99" rx="2.78" ry="4.81" transform="translate(-104.47 250.51) rotate(-39.19)"/><ellipse class="cls-7" cx="395.08" cy="210.65" rx="8.02" ry="13.89" transform="translate(-44.24 297.02) rotate(-39.19)"/><path class="cls-7" d="M291.71,256.14c6.73,8.82,16.52,13.07,21.86,9.5.11-.07.19-.16.29-.23a48.86,48.86,0,0,0-9.4-18.51,60.94,60.94,0,0,0-15.29-13.15C283.86,237.34,285,247.35,291.71,256.14Z"/><ellipse class="cls-7" cx="196.4" cy="321.75" rx="8.05" ry="13.83" transform="translate(-151.11 175.69) rotate(-35.8)"/><ellipse class="cls-7" cx="243.27" cy="536.13" rx="14.34" ry="7.76" transform="translate(-248.36 212.22) rotate(-32.21)"/><path class="cls-7" d="M164.46,167.53c3.21,2.94,10.41.95,16.08-4.43,5.4-5.13,7.41-11.44,4.83-14.58A148.12,148.12,0,0,0,163,164.62,4.76,4.76,0,0,0,164.46,167.53Z"/><ellipse class="cls-7" cx="420.52" cy="225.09" rx="2.94" ry="5.09" transform="translate(-47.64 316.34) rotate(-39.19)"/><ellipse class="cls-7" cx="192.88" cy="341.45" rx="2.94" ry="5.09" transform="translate(-172.37 198.67) rotate(-39.19)"/><ellipse class="cls-7" cx="264.87" cy="518.74" rx="5.3" ry="2.82" transform="translate(-184.72 148.45) rotate(-23.48)"/><ellipse class="cls-7" cx="195.36" cy="157.5" rx="5.25" ry="3.91" transform="translate(-53.46 124.92) rotate(-31.41)"/><path class="cls-7" d="M180,340.56c6.2-5.89,3.32-17.87-6.42-26.77s-22.65-11.34-28.84-5.46a10.67,10.67,0,0,0-3.2,6.87,85.13,85.13,0,0,0,22.73,24.13c2.27,1.62,4.57,3.06,6.87,4.41A12.77,12.77,0,0,0,180,340.56Z"/><path class="cls-8" d="M288.74,190.44a113.83,113.83,0,0,1,48.05,22.62c-.68,3.09.92,7.88,7.21,15.48,5,6,10.18,8.79,14.1,9.26a86.6,86.6,0,0,1,7.78,17.28c-2.84,2.5-4.41,8.23-2.66,20.29,1.2,8.48,4.38,14.11,7.73,16.9a129.08,129.08,0,0,1-.78,15.32c-4.14-.06-8.85,3.89-13.28,18.43-3.66,11.85-1.46,19.84,2.16,22.12-2.33,5.3-4.79,10.09-7.17,14.35-3.78-.85-9.45,2-18.41,14.15-7.38,10-8.49,18.05-6.33,21.51-3.64,4.23-7.85,8.75-12.65,13.34-2.92-.95-8.63.56-19.81,7.88C283.24,426.82,279.3,434,281,436.75A162.87,162.87,0,0,1,257.36,448c-12.92,4.93-29.11,7-59.85,12.67-22.11,2.46-34.66,4.76-34.66,4.76s15.43-1.23,46.86-4.93,46.92-7.74,59.85-12.66c51.34-19.57,78.35-59.84,85.87-71.39,9.42-14.46,29.11-45.59,27.7-87.5-.48-14.26-1.49-35.65-16.63-57.29-22.56-32.26-59.05-40.11-65.57-41.4a109.85,109.85,0,0,0-30.35-2.2A119.68,119.68,0,0,1,288.74,190.44Z"/><ellipse class="cls-7" cx="387.14" cy="447.57" rx="14.06" ry="7.92" transform="translate(-204.61 442.3) rotate(-48.63)"/><ellipse class="cls-7" cx="414.42" cy="389.19" rx="20.33" ry="15.43" transform="translate(-111.91 604.09) rotate(-65.41)"/><ellipse class="cls-7" cx="407.23" cy="349.67" rx="7.77" ry="5.9" transform="translate(-80.18 574.48) rotate(-65.41)"/><ellipse class="cls-7" cx="393" cy="423.27" rx="3.96" ry="2.27" transform="translate(-177.69 512.21) rotate(-55.98)"/><ellipse class="cls-7" cx="383.1" cy="414.21" rx="7.9" ry="4.53" transform="translate(-174.55 500.01) rotate(-55.98)"/><path class="cls-7" d="M331.09,520a21.52,21.52,0,0,0-5-6.8c-12.16-11.12-35.33-7.49-51.73,8.1-12.08,11.47-17.1,26.21-14.08,37.64,12.48-6.16,18.48-7.5,36.27-17.3A365.41,365.41,0,0,0,331.09,520Z"/><g class="cls-9"><path class="cls-10" d="M259.32,167.73C248,130.3,206.92,85.8,173.83,94.51s-45.69,67.33-34.34,104.76a79.74,79.74,0,0,0,23,36.36A68.89,68.89,0,0,1,185,279.07a149.28,149.28,0,0,0,5.47,26c13.26,43.75,43,74.21,66.39,68.05s31.62-46.61,18.36-90.36a152.39,152.39,0,0,0-9.92-24.79c-7.65-15.05-9.67-32.07-5.2-48A75.33,75.33,0,0,0,259.32,167.73Z"/><path class="cls-10" d="M272.85,165.17c-11.35-37.43-52.4-81.93-85.49-73.23S141.67,159.28,153,196.71a79.74,79.74,0,0,0,23,36.36,68.84,68.84,0,0,1,22.53,43.44,149.28,149.28,0,0,0,5.47,26c13.26,43.74,43,74.21,66.39,68s31.62-46.61,18.36-90.36a152.39,152.39,0,0,0-9.92-24.79c-7.65-15.05-9.67-32.07-5.2-48A75.33,75.33,0,0,0,272.85,165.17Z"/><path class="cls-11" d="M265.4,167.25C254.05,129.83,213,85.32,179.91,94s-45.69,67.34-34.34,104.76a79.68,79.68,0,0,0,23,36.36,68.89,68.89,0,0,1,22.53,43.45,149.18,149.18,0,0,0,5.47,25.95c13.26,43.75,43,74.22,66.39,68.06s31.62-46.62,18.36-90.36a151.67,151.67,0,0,0-9.92-24.79c-7.65-15-9.67-32.08-5.2-48A75.36,75.36,0,0,0,265.4,167.25Z"/><path class="cls-12" d="M261.71,167.25c-11.35-37.42-52.4-81.93-85.48-73.22s-45.69,67.34-34.34,104.76a79.75,79.75,0,0,0,23,36.36,68.85,68.85,0,0,1,22.53,43.45,150.11,150.11,0,0,0,5.47,25.95c13.27,43.75,43,74.22,66.4,68.06s31.62-46.62,18.35-90.36a152.55,152.55,0,0,0-9.91-24.79,66.21,66.21,0,0,1-5.2-48A75.46,75.46,0,0,0,261.71,167.25Z"/><path class="cls-10" d="M125.73,283.61c3.72,14.15,10.52,40,36.61,58.71,28.52,20.42,60.76,18.41,70.9,17.63,12-.92,33.94-2.6,53.46-18.49,3-2.46,25.08-21,27-51.13.45-7.28,1.57-24.93-11.1-40.45-9.74-11.91-28.75-24-47.31-19.65-13.85,3.23-25.6,15.15-23.49,20.63,1.69,4.4,11,1.23,22.73,7.3,8.42,4.37,20.4,14.77,19.2,27.65-1.46,15.75-21.53,23.3-23.48,24-16.17,5.84-30.95-.56-36.33-2.88-22.22-9.62-29.23-29.87-30.12-32.58C177.48,255.09,123.28,274.28,125.73,283.61Z"/><ellipse class="cls-10" cx="184.18" cy="120.21" rx="14.19" ry="13.22"/><ellipse class="cls-13" cx="182.07" cy="121.09" rx="14.19" ry="13.22"/><ellipse class="cls-14" cx="181.48" cy="120.38" rx="14.19" ry="13.22"/><g class="cls-15"><text class="cls-16" transform="matrix(1.03, -0.27, 0.29, 0.96, 175.81, 118.65)">ON</text></g><g class="cls-15"><text class="cls-16" transform="matrix(1.03, -0.27, 0.29, 0.96, 178.13, 130.56)">OF<tspan class="cls-17" x="8.33" y="0">F</tspan></text></g><path class="cls-18" d="M192,118.45l-20.63,5.41a.28.28,0,0,1-.34-.18l-.07-.25a.26.26,0,0,1,.19-.32l20.62-5.41a.28.28,0,0,1,.34.17l.08.26A.26.26,0,0,1,192,118.45Z"/><path class="cls-10" d="M160,134.53l4.88-1.68a5.13,5.13,0,0,1,6.47,2.76l1.82,4.55a4.62,4.62,0,0,1-3,6l-4.88,1.69a5.14,5.14,0,0,1-6.47-2.77l-1.82-4.55A4.62,4.62,0,0,1,160,134.53Z"/><path class="cls-19" d="M158.7,135l4.88-1.69a5.15,5.15,0,0,1,6.47,2.77l1.81,4.55a4.61,4.61,0,0,1-3,6L164,148.33a5.14,5.14,0,0,1-6.47-2.76L155.73,141A4.6,4.6,0,0,1,158.7,135Z"/><path class="cls-20" d="M158.29,134.75l4.88-1.69a5.15,5.15,0,0,1,6.47,2.76l1.81,4.55a4.6,4.6,0,0,1-3,6l-4.88,1.69a5.16,5.16,0,0,1-6.48-2.77l-1.81-4.54A4.6,4.6,0,0,1,158.29,134.75Z"/><g class="cls-15"><text class="cls-16" transform="matrix(1.03, -0.27, 0.29, 0.96, 161.26, 143.13)">M</text></g><path class="cls-10" d="M203.87,127.93l3.58-1.23a3.76,3.76,0,0,1,4.75,2l1.33,3.33a3.38,3.38,0,0,1-2.17,4.43l-3.59,1.24a3.78,3.78,0,0,1-4.75-2l-1.33-3.34A3.39,3.39,0,0,1,203.87,127.93Z"/><path class="cls-21" d="M202.9,128.27l3.58-1.24a3.78,3.78,0,0,1,4.75,2l1.33,3.34a3.37,3.37,0,0,1-2.17,4.42l-3.59,1.24a3.77,3.77,0,0,1-4.75-2l-1.33-3.33A3.38,3.38,0,0,1,202.9,128.27Z"/><path class="cls-11" d="M202.6,128.09l3.58-1.24a3.78,3.78,0,0,1,4.75,2l1.33,3.34a3.37,3.37,0,0,1-2.17,4.42l-3.59,1.24a3.77,3.77,0,0,1-4.75-2l-1.33-3.33A3.38,3.38,0,0,1,202.6,128.09Z"/><g class="cls-15"><text class="cls-22" transform="matrix(1.03, -0.27, 0.29, 0.96, 204.88, 134.21)">in</text></g><path class="cls-10" d="M215.45,138.33l3.58-1.24a3.77,3.77,0,0,1,4.75,2l1.33,3.33a3.38,3.38,0,0,1-2.18,4.43l-3.58,1.24a3.78,3.78,0,0,1-4.75-2l-1.33-3.34A3.38,3.38,0,0,1,215.45,138.33Z"/><path class="cls-21" d="M214.48,138.66l3.58-1.24a3.78,3.78,0,0,1,4.75,2l1.33,3.34a3.38,3.38,0,0,1-2.18,4.43l-3.58,1.23a3.77,3.77,0,0,1-4.75-2l-1.33-3.34A3.39,3.39,0,0,1,214.48,138.66Z"/><path class="cls-11" d="M214.18,138.48l3.58-1.24a3.78,3.78,0,0,1,4.75,2l1.33,3.34a3.38,3.38,0,0,1-2.18,4.43l-3.58,1.23a3.77,3.77,0,0,1-4.75-2L212,142.91A3.39,3.39,0,0,1,214.18,138.48Z"/><g class="cls-15"><text class="cls-22" transform="matrix(1.03, -0.27, 0.29, 0.96, 215.58, 144.84)">ou</text></g><path class="cls-10" d="M181.47,207.32l3.58-1.24a3.78,3.78,0,0,1,4.75,2l1.33,3.34a3.38,3.38,0,0,1-2.18,4.43l-3.58,1.23a3.77,3.77,0,0,1-4.75-2l-1.33-3.34A3.39,3.39,0,0,1,181.47,207.32Z"/><path class="cls-21" d="M180.5,207.66l3.58-1.24a3.78,3.78,0,0,1,4.75,2l1.33,3.34a3.37,3.37,0,0,1-2.18,4.42l-3.58,1.24a3.78,3.78,0,0,1-4.75-2l-1.33-3.34A3.37,3.37,0,0,1,180.5,207.66Z"/><path class="cls-11" d="M180.2,207.48l3.58-1.24a3.78,3.78,0,0,1,4.75,2l1.33,3.34a3.37,3.37,0,0,1-2.18,4.42l-3.58,1.24a3.78,3.78,0,0,1-4.75-2L178,211.9A3.37,3.37,0,0,1,180.2,207.48Z"/><g class="cls-15"><text class="cls-22" transform="matrix(1.03, -0.27, 0.29, 0.96, 182.38, 213.7)">tx</text></g><g class="cls-15"><text class="cls-22" transform="matrix(1.03, -0.27, 0.29, 0.96, 159.58, 286.03)">tx</text></g><path class="cls-10" d="M162.8,158.78l3.59-1.24a3.78,3.78,0,0,1,4.75,2l1.33,3.34a3.38,3.38,0,0,1-2.18,4.42l-3.59,1.24a3.78,3.78,0,0,1-4.75-2l-1.33-3.34A3.38,3.38,0,0,1,162.8,158.78Z"/><path class="cls-21" d="M161.83,159.11l3.58-1.24a3.78,3.78,0,0,1,4.75,2l1.33,3.34a3.38,3.38,0,0,1-2.17,4.43l-3.59,1.24a3.78,3.78,0,0,1-4.75-2l-1.33-3.34A3.39,3.39,0,0,1,161.83,159.11Z"/><path class="cls-11" d="M161.53,158.93l3.58-1.23a3.77,3.77,0,0,1,4.75,2l1.33,3.34a3.38,3.38,0,0,1-2.17,4.43l-3.59,1.24a3.78,3.78,0,0,1-4.75-2l-1.33-3.34A3.39,3.39,0,0,1,161.53,158.93Z"/><g class="cls-15"><text class="cls-22" transform="matrix(1.03, -0.27, 0.29, 0.96, 162.94, 165.29)">ou</text></g><path class="cls-10" d="M227.87,191.26l3-1a3.15,3.15,0,0,1,4,1.69l1.11,2.78a2.82,2.82,0,0,1-1.82,3.69l-3,1a3.14,3.14,0,0,1-4-1.69l-1.11-2.78A2.81,2.81,0,0,1,227.87,191.26Z"/><path class="cls-21" d="M227.06,191.54l3-1a3.15,3.15,0,0,1,4,1.69l1.11,2.78a2.82,2.82,0,0,1-1.82,3.69l-3,1a3.14,3.14,0,0,1-4-1.69l-1.11-2.78A2.82,2.82,0,0,1,227.06,191.54Z"/><path class="cls-11" d="M226.81,191.39l3-1a3.15,3.15,0,0,1,4,1.69l1.11,2.78a2.82,2.82,0,0,1-1.82,3.69l-3,1a3.15,3.15,0,0,1-4-1.69L225,195.07A2.82,2.82,0,0,1,226.81,191.39Z"/><g class="cls-15"><text class="cls-23" transform="matrix(1.03, -0.27, 0.29, 0.96, 229.27, 196.34)">a</text></g><path class="cls-10" d="M224.86,208.65l3-1a3.15,3.15,0,0,1,4,1.69l1.11,2.78a2.82,2.82,0,0,1-1.82,3.69l-3,1a3.15,3.15,0,0,1-4-1.69L223,212.34A2.82,2.82,0,0,1,224.86,208.65Z"/><path class="cls-21" d="M224.05,208.93l3-1a3.15,3.15,0,0,1,4,1.69l1.11,2.78a2.82,2.82,0,0,1-1.82,3.69l-3,1a3.16,3.16,0,0,1-4-1.69l-1.1-2.78A2.81,2.81,0,0,1,224.05,208.93Z"/><path class="cls-11" d="M223.8,208.78l3-1a3.15,3.15,0,0,1,4,1.69l1.11,2.78a2.82,2.82,0,0,1-1.82,3.69l-3,1a3.16,3.16,0,0,1-4-1.69l-1.1-2.78A2.81,2.81,0,0,1,223.8,208.78Z"/><g class="cls-15"><text class="cls-24" transform="matrix(1.03, -0.27, 0.29, 0.96, 226.54, 214.21)">?</text></g><ellipse class="cls-25" cx="201.62" cy="181" rx="15.75" ry="14.68"/><ellipse class="cls-10" cx="203.35" cy="180.28" rx="15.75" ry="14.68"/><ellipse class="cls-26" cx="201.03" cy="180.48" rx="15.75" ry="14.68"/><path class="cls-10" d="M219.31,164.24c-3,.79,2,5,3.53,10.09s-.38,11.11,2.64,10.32c6.05-1.59,14.33-8.7,12.62-14.33S225.36,162.65,219.31,164.24Z"/><path class="cls-25" d="M217.72,164.66c-3,.79,2,5,3.52,10.08s-.38,11.12,2.65,10.32c6.05-1.58,14.32-8.69,12.62-14.32S223.77,163.07,217.72,164.66Z"/><path class="cls-26" d="M217.61,164.31c-3,.79,2,5,3.53,10.09s-.38,11.11,2.64,10.32c6.05-1.59,14.33-8.69,12.62-14.33S223.66,162.72,217.61,164.31Z"/><path class="cls-10" d="M185.26,195.21c3-.8-2-5-3.53-10.09s.38-11.12-2.64-10.32c-6.05,1.58-14.33,8.69-12.62,14.32S179.21,196.79,185.26,195.21Z"/><path class="cls-25" d="M184.14,195.5c3-.79-2-5-3.53-10.09S181,174.3,178,175.09c-6,1.59-14.32,8.69-12.61,14.33S178.09,197.09,184.14,195.5Z"/><path class="cls-26" d="M184,195.15c3-.79-2-5-3.52-10.09s.37-11.11-2.65-10.32c-6.05,1.59-14.32,8.7-12.62,14.33S178,196.74,184,195.15Z"/><path class="cls-10" d="M219.88,194.37c-.86-2.82-5.36,1.85-10.83,3.29s-11.93-.36-11.08,2.46c1.71,5.64,9.33,13.35,15.38,11.76S221.58,200,219.88,194.37Z"/><path class="cls-25" d="M218.49,194.74c-.85-2.82-5.35,1.84-10.83,3.28s-11.93-.35-11.07,2.47c1.7,5.63,9.33,13.34,15.37,11.75S220.2,200.37,218.49,194.74Z"/><path class="cls-26" d="M218.1,194.69c-.85-2.82-5.35,1.84-10.83,3.28s-11.93-.35-11.07,2.47c1.7,5.63,9.32,13.34,15.37,11.75S219.81,200.32,218.1,194.69Z"/><path class="cls-10" d="M186.88,163.46c.86,2.82,5.36-1.84,10.83-3.28s11.93.35,11.08-2.47c-1.7-5.63-9.33-13.34-15.38-11.75S185.18,157.83,186.88,163.46Z"/><path class="cls-25" d="M185.1,163.74c.85,2.81,5.35-1.85,10.83-3.29s11.93.35,11.07-2.47c-1.7-5.63-9.32-13.34-15.37-11.75S183.39,158.1,185.1,163.74Z"/><path class="cls-26" d="M185,163.4c.85,2.82,5.35-1.85,10.82-3.29s11.93.36,11.08-2.46c-1.7-5.64-9.33-13.35-15.38-11.76S183.29,157.76,185,163.4Z"/><g class="cls-15"><text class="cls-27" transform="matrix(1.03, -0.27, 0.29, 0.96, 191.09, 185.73)">SEL<tspan class="cls-28" x="10.34" y="0">E</tspan><tspan class="cls-29" x="13.71" y="0">C</tspan><tspan class="cls-30" x="17.62" y="0">T</tspan></text></g><ellipse class="cls-31" cx="162.27" cy="117.22" rx="1.35" ry="1.26"/><path class="cls-21" d="M212.38,228.11c-2.63-8.68,9.78-3,19.77-8.53s8.78-18.92,16.41-11.62c4.33,4.62-2.41,13.38-12.4,18.94S214.05,233.64,212.38,228.11Z"/><path class="cls-10" d="M214.74,228.05c-2.63-8.69,9.78-3,19.77-8.53s8.78-18.93,16.41-11.63c4.32,4.63-2.41,13.38-12.4,18.94S216.41,233.57,214.74,228.05Z"/><path class="cls-11" d="M212.1,227.73c-2.62-8.69,9.78-3,19.77-8.53s8.78-18.93,16.41-11.63c4.33,4.63-2.41,13.38-12.4,18.94S213.77,233.25,212.1,227.73Z"/><path class="cls-21" d="M231.66,219.31l-.46.24,4.49,7.06.19-.1.26-.15Z"/><g class="cls-15"><text class="cls-32" transform="matrix(1.03, -0.27, 0.29, 0.96, 242.93, 215.22)">Y</text></g><g class="cls-15"><text class="cls-33" transform="matrix(1.03, -0.27, 0.29, 0.96, 216.42, 229.25)">N</text></g><path class="cls-10" d="M205.65,258.39l3.59-1.22a3.78,3.78,0,0,1,4.74,2.05l1.31,3.34a3.38,3.38,0,0,1-2.2,4.42l-3.59,1.22a3.77,3.77,0,0,1-4.74-2.05l-1.31-3.34A3.39,3.39,0,0,1,205.65,258.39Z"/><path class="cls-21" d="M204.68,258.72l3.59-1.22a3.79,3.79,0,0,1,4.74,2.05l1.31,3.34a3.39,3.39,0,0,1-2.2,4.42l-3.59,1.22a3.76,3.76,0,0,1-4.74-2l-1.31-3.34A3.39,3.39,0,0,1,204.68,258.72Z"/><path class="cls-11" d="M204.38,258.54l3.59-1.22a3.78,3.78,0,0,1,4.74,2.05l1.31,3.34a3.38,3.38,0,0,1-2.2,4.42l-3.59,1.22a3.76,3.76,0,0,1-4.74-2.05L202.18,263A3.39,3.39,0,0,1,204.38,258.54Z"/><path class="cls-10" d="M185.26,226.78l11.67-4a3.77,3.77,0,0,1,4.74,2l4.27,10.87a3.38,3.38,0,0,1-2.21,4.41l-11.66,4a3.76,3.76,0,0,1-4.74-2.05l-4.27-10.87A3.37,3.37,0,0,1,185.26,226.78Z"/><path class="cls-21" d="M183.54,227.36l11.67-4a3.79,3.79,0,0,1,4.74,2.05l4.27,10.87a3.39,3.39,0,0,1-2.21,4.42l-11.66,4a3.78,3.78,0,0,1-4.74-2l-4.27-10.87A3.39,3.39,0,0,1,183.54,227.36Z"/><path class="cls-11" d="M183,227l11.67-4a3.79,3.79,0,0,1,4.74,2.05L203.69,236a3.39,3.39,0,0,1-2.2,4.42l-11.67,4a3.78,3.78,0,0,1-4.74-2l-4.27-10.87A3.38,3.38,0,0,1,183,227Z"/><g class="cls-15"><text class="cls-34" transform="matrix(1.03, -0.27, 0.28, 0.96, 207.56, 264.29)">1</text></g><path class="cls-10" d="M224,254.14l3.59-1.23A3.78,3.78,0,0,1,232.3,255l1.31,3.35a3.37,3.37,0,0,1-2.2,4.41L227.82,264a3.79,3.79,0,0,1-4.74-2.05l-1.31-3.35A3.38,3.38,0,0,1,224,254.14Z"/><path class="cls-21" d="M223,254.47l3.59-1.23a3.79,3.79,0,0,1,4.74,2l1.31,3.35a3.37,3.37,0,0,1-2.2,4.41l-3.59,1.23a3.78,3.78,0,0,1-4.74-2l-1.31-3.35A3.37,3.37,0,0,1,223,254.47Z"/><path class="cls-11" d="M222.7,254.29l3.59-1.23a3.79,3.79,0,0,1,4.74,2.05l1.31,3.35a3.37,3.37,0,0,1-2.2,4.41l-3.59,1.23a3.79,3.79,0,0,1-4.74-2.05l-1.31-3.35A3.37,3.37,0,0,1,222.7,254.29Z"/><g class="cls-15"><text class="cls-34" transform="matrix(1.03, -0.27, 0.28, 0.96, 225.41, 260.33)">2</text></g><path class="cls-10" d="M242.29,249.88l3.59-1.22a3.76,3.76,0,0,1,4.74,2.05l1.32,3.34a3.39,3.39,0,0,1-2.21,4.42l-3.58,1.22a3.78,3.78,0,0,1-4.74-2.05l-1.32-3.34A3.39,3.39,0,0,1,242.29,249.88Z"/><path class="cls-21" d="M241.32,250.21l3.59-1.22a3.76,3.76,0,0,1,4.74,2l1.31,3.34a3.39,3.39,0,0,1-2.2,4.42L245.17,260a3.78,3.78,0,0,1-4.74-2l-1.31-3.34A3.38,3.38,0,0,1,241.32,250.21Z"/><path class="cls-11" d="M241,250l3.59-1.22a3.76,3.76,0,0,1,4.74,2.05l1.31,3.34a3.39,3.39,0,0,1-2.2,4.42l-3.59,1.22a3.79,3.79,0,0,1-4.74-2l-1.31-3.34A3.39,3.39,0,0,1,241,250Z"/><g class="cls-15"><text class="cls-34" transform="matrix(1.03, -0.27, 0.28, 0.96, 243.76, 256.24)">3</text></g><path class="cls-10" d="M209.69,273.48l3.59-1.22a3.78,3.78,0,0,1,4.74,2.05l1.31,3.34a3.38,3.38,0,0,1-2.2,4.42l-3.59,1.22a3.76,3.76,0,0,1-4.74-2.05l-1.31-3.34A3.39,3.39,0,0,1,209.69,273.48Z"/><path class="cls-21" d="M208.72,273.82l3.58-1.23a3.78,3.78,0,0,1,4.74,2.05l1.32,3.35a3.38,3.38,0,0,1-2.2,4.41l-3.59,1.23a3.78,3.78,0,0,1-4.74-2.05l-1.31-3.35A3.37,3.37,0,0,1,208.72,273.82Z"/><path class="cls-11" d="M208.42,273.63l3.59-1.22a3.78,3.78,0,0,1,4.73,2l1.32,3.34a3.39,3.39,0,0,1-2.2,4.42l-3.59,1.22a3.76,3.76,0,0,1-4.74-2.05l-1.31-3.34A3.39,3.39,0,0,1,208.42,273.63Z"/><g class="cls-15"><text class="cls-34" transform="matrix(1.03, -0.27, 0.28, 0.96, 210.97, 279.72)">4</text></g><path class="cls-10" d="M228,269.23,231.6,268a3.78,3.78,0,0,1,4.74,2.05l1.31,3.35a3.37,3.37,0,0,1-2.2,4.41L231.86,279a3.79,3.79,0,0,1-4.74-2.05l-1.31-3.35A3.37,3.37,0,0,1,228,269.23Z"/><path class="cls-21" d="M227,269.56l3.59-1.22a3.77,3.77,0,0,1,4.74,2.05l1.31,3.34a3.39,3.39,0,0,1-2.2,4.42l-3.59,1.22a3.78,3.78,0,0,1-4.74-2.05L224.84,274A3.37,3.37,0,0,1,227,269.56Z"/><path class="cls-11" d="M226.74,269.38l3.59-1.23a3.79,3.79,0,0,1,4.74,2.05l1.31,3.35a3.37,3.37,0,0,1-2.2,4.41l-3.59,1.23a3.78,3.78,0,0,1-4.74-2.05l-1.31-3.35A3.37,3.37,0,0,1,226.74,269.38Z"/><g class="cls-15"><text class="cls-34" transform="matrix(1.03, -0.27, 0.28, 0.96, 229.43, 275.43)">5</text></g><path class="cls-10" d="M246.33,265l3.59-1.22a3.76,3.76,0,0,1,4.74,2.05l1.31,3.34a3.38,3.38,0,0,1-2.2,4.42l-3.58,1.22a3.77,3.77,0,0,1-4.74-2l-1.32-3.34A3.39,3.39,0,0,1,246.33,265Z"/><path class="cls-21" d="M245.36,265.3l3.59-1.22a3.78,3.78,0,0,1,4.74,2.05l1.31,3.34a3.39,3.39,0,0,1-2.2,4.42l-3.59,1.22a3.77,3.77,0,0,1-4.74-2.05l-1.31-3.34A3.39,3.39,0,0,1,245.36,265.3Z"/><path class="cls-11" d="M245.06,265.12l3.59-1.22a3.76,3.76,0,0,1,4.74,2.05l1.31,3.34a3.39,3.39,0,0,1-2.2,4.42l-3.59,1.22a3.78,3.78,0,0,1-4.74-2.05l-1.31-3.34A3.38,3.38,0,0,1,245.06,265.12Z"/><g class="cls-15"><text class="cls-34" transform="matrix(1.03, -0.27, 0.28, 0.96, 247.67, 271.19)">6</text></g><path class="cls-10" d="M214.08,289.9l3.59-1.22a3.76,3.76,0,0,1,4.74,2.05l1.31,3.34a3.37,3.37,0,0,1-2.2,4.41l-3.59,1.23a3.79,3.79,0,0,1-4.74-2l-1.31-3.35A3.38,3.38,0,0,1,214.08,289.9Z"/><path class="cls-21" d="M213.11,290.23,216.7,289a3.77,3.77,0,0,1,4.74,2.05l1.31,3.34a3.39,3.39,0,0,1-2.2,4.42L217,300a3.77,3.77,0,0,1-4.74-2.05l-1.31-3.34A3.38,3.38,0,0,1,213.11,290.23Z"/><path class="cls-11" d="M212.81,290.05l3.59-1.22a3.77,3.77,0,0,1,4.74,2.05l1.31,3.34a3.39,3.39,0,0,1-2.2,4.42l-3.59,1.22a3.79,3.79,0,0,1-4.74-2.05l-1.31-3.34A3.38,3.38,0,0,1,212.81,290.05Z"/><path class="cls-21" d="M222,305.52l40.37-11.46a3.74,3.74,0,0,1,4.61,2.29l1.11,3.4a3.4,3.4,0,0,1-2.46,4.3l-40.36,11.46a3.75,3.75,0,0,1-4.61-2.29l-1.12-3.41A3.41,3.41,0,0,1,222,305.52Z"/><path class="cls-11" d="M221.4,305.55l40.37-11.46a3.75,3.75,0,0,1,4.61,2.29l1.11,3.41a3.41,3.41,0,0,1-2.45,4.3l-40.37,11.45a3.74,3.74,0,0,1-4.61-2.29l-1.11-3.4A3.41,3.41,0,0,1,221.4,305.55Z"/><g class="cls-15"><text class="cls-34" transform="matrix(1.03, -0.27, 0.28, 0.96, 215.53, 296.09)">7</text></g><path class="cls-10" d="M232.4,285.64l3.59-1.22a3.77,3.77,0,0,1,4.74,2.05l1.32,3.34a3.39,3.39,0,0,1-2.21,4.42l-3.58,1.22a3.77,3.77,0,0,1-4.74-2.05l-1.32-3.34A3.39,3.39,0,0,1,232.4,285.64Z"/><path class="cls-21" d="M231.43,286l3.59-1.22a3.77,3.77,0,0,1,4.74,2.05l1.31,3.34a3.38,3.38,0,0,1-2.2,4.42l-3.59,1.22a3.77,3.77,0,0,1-4.74-2l-1.31-3.34A3.39,3.39,0,0,1,231.43,286Z"/><path class="cls-11" d="M231.13,285.79l3.59-1.22a3.77,3.77,0,0,1,4.74,2.05l1.31,3.34a3.38,3.38,0,0,1-2.2,4.42L235,295.6a3.77,3.77,0,0,1-4.74-2.05l-1.31-3.34A3.39,3.39,0,0,1,231.13,285.79Z"/><g class="cls-15"><text class="cls-34" transform="matrix(1.03, -0.27, 0.28, 0.96, 233.8, 291.85)">8</text></g><g class="cls-15"><text class="cls-34" transform="matrix(1.03, -0.27, 0.28, 0.96, 240.09, 307.83)">0</text></g><path class="cls-10" d="M250.73,281.39l3.58-1.23a3.78,3.78,0,0,1,4.74,2l1.32,3.35a3.38,3.38,0,0,1-2.2,4.41l-3.59,1.22a3.76,3.76,0,0,1-4.74-2.05l-1.31-3.34A3.37,3.37,0,0,1,250.73,281.39Z"/><path class="cls-21" d="M249.75,281.72l3.59-1.23a3.78,3.78,0,0,1,4.74,2.05l1.31,3.35a3.37,3.37,0,0,1-2.2,4.41l-3.58,1.23a3.78,3.78,0,0,1-4.74-2l-1.32-3.35A3.38,3.38,0,0,1,249.75,281.72Z"/><path class="cls-11" d="M249.45,281.54l3.59-1.23a3.78,3.78,0,0,1,4.74,2.05l1.32,3.35a3.38,3.38,0,0,1-2.21,4.41l-3.58,1.23a3.78,3.78,0,0,1-4.74-2.05L247.25,286A3.38,3.38,0,0,1,249.45,281.54Z"/></g><g class="cls-15"><text class="cls-34" transform="matrix(1.03, -0.27, 0.28, 0.96, 252.07, 287.6)">9</text></g><path class="cls-18" d="M198.29,230.8a.29.29,0,0,0-.21.32l-.35.12-.16-.39a1.07,1.07,0,0,0-1.1-.65,5.73,5.73,0,0,0-5.84-1.85l0-.1a.27.27,0,0,0-.35-.16l-.24.09-.25.08a.25.25,0,0,0-.16.33l0,.1a5.09,5.09,0,0,0-3.08,4.92.94.94,0,0,0-.38,1.16l.15.39-.35.12a.33.33,0,0,0-.38-.12.29.29,0,0,0-.19.38.32.32,0,0,0,.41.18.27.27,0,0,0,.2-.3l.36-.13.18.44a1.06,1.06,0,0,0,1,.65,4.92,4.92,0,0,0,2.59,2,1.87,1.87,0,0,0,.32.08.8.8,0,0,0-.17.85l0,.06a1,1,0,0,0,.1.17l-.08,0a.23.23,0,0,0-.14.29v0a.24.24,0,0,0,.3.13l.71-.25,5.88-2,.71-.24a.22.22,0,0,0,.14-.29h0a.25.25,0,0,0-.31-.14l-.08,0a.65.65,0,0,0,0-.19l0-.06a.93.93,0,0,0-.68-.53,3,3,0,0,0,.22-.28,4.43,4.43,0,0,0,.55-3.11,1,1,0,0,0,.34-1.13l-.18-.43.36-.13a.32.32,0,0,0,.37.11.29.29,0,0,0,.19-.38A.32.32,0,0,0,198.29,230.8Zm-2,4.6a5.87,5.87,0,0,1-2.73,1.67,6.15,6.15,0,0,1-3.24.38,4.17,4.17,0,0,1-2.73-2.6c-.76-1.93.35-4.11,2.51-5.09h0l.23-.1h0l.24-.1h0l.25-.08h0l.24-.06c2.32-.57,4.7.42,5.46,2.35A3.8,3.8,0,0,1,196.25,235.4Z"/><path class="cls-35" d="M209.86,245.42a64.45,64.45,0,0,0,17.59-8.1,17.34,17.34,0,0,1,3.34-2,1.13,1.13,0,0,1,.93-.06,1,1,0,0,1,.4.75c.44,2.82-1.05,5.67-3.27,7.62a21.39,21.39,0,0,1-8,4,83.35,83.35,0,0,1-25.22,4c-3.47.1-6.23,2.6-7.13,1.19-.23-2.68,3.07-3,5-3.35,3.52-.68,7-1.47,10.49-2.34C206,246.56,207.92,246,209.86,245.42Z"/></g></svg>