<svg id="Layer_1" data-name="Layer 1" xmlns="http://www.w3.org/2000/svg" xmlns:xlink="http://www.w3.org/1999/xlink" viewBox="0 0 547 536.7"><defs><style>.cls-1,.cls-15,.cls-16,.cls-17,.cls-18,.cls-19,.cls-24,.cls-30,.cls-31,.cls-32,.cls-34,.cls-8,.cls-9{fill:none;}.cls-2{fill:#7692cb;opacity:0.36;}.cls-3{fill:#1d2f5e;}.cls-4{clip-path:url(#clip-path);}.cls-5{fill:#7483b2;}.cls-6{fill:#b9c6da;}.cls-7{fill:#a5adc9;}.cls-8{stroke:#7483b2;}.cls-15,.cls-16,.cls-17,.cls-18,.cls-19,.cls-24,.cls-30,.cls-31,.cls-32,.cls-8,.cls-9{stroke-miterlimit:10;}.cls-9{stroke:#a5adc9;}.cls-10,.cls-13,.cls-29,.cls-35{fill:#213f77;}.cls-10{opacity:0.16;}.cls-11,.cls-33{fill:#d8deea;}.cls-12{fill:#c3cadc;}.cls-13{opacity:0.07;}.cls-14{fill:#acb8d1;}.cls-15{stroke:#7780a7;}.cls-16{stroke:#848eb9;}.cls-17{stroke:#7987b2;}.cls-18,.cls-24{stroke:#8e9dc3;}.cls-19{stroke:#9cafd0;}.cls-20,.cls-22,.cls-28,.cls-36,.cls-37{fill:#fff;}.cls-21{fill:#808ab9;}.cls-22{opacity:0.4;}.cls-23{fill:#b0bfdc;}.cls-24,.cls-34{stroke-linecap:round;}.cls-25{fill:#8e9dc3;}.cls-26{fill:#e9e9e9;}.cls-27{fill:#c6d0e0;}.cls-28{opacity:0.3;}.cls-29{opacity:0.04;}.cls-30{stroke:#b9c6da;}.cls-31,.cls-32{stroke:#c3cadc;}.cls-32{stroke-width:2px;}.cls-33{opacity:0.66;}.cls-34{stroke:#d8deea;stroke-linejoin:round;}.cls-35{opacity:0.05;}.cls-36{opacity:0.09;}.cls-37{opacity:0.59;}.cls-38{fill:#e56825;}.cls-39{fill:#e77a53;}.cls-40{fill:#7691c9;opacity:0.25;}</style><clipPath id="clip-path"><ellipse class="cls-1" cx="273.5" cy="268.8" rx="251" ry="244.5"/></clipPath></defs><title>Artboard 1</title><ellipse class="cls-2" cx="273.5" cy="268.35" rx="273" ry="267.5"/><ellipse class="cls-3" cx="273.5" cy="268" rx="251" ry="244.5"/><g class="cls-4"><polygon class="cls-5" points="342.76 470.36 344.85 444.92 343.73 444.92 341.64 470.26 342.76 470.36"/><polygon class="cls-6" points="184.92 472.25 182.83 446.81 183.95 446.81 186.03 472.15 184.92 472.25"/><polygon class="cls-6" points="207.98 472.25 205.88 446.81 207.01 446.81 209.09 472.15 207.98 472.25"/><polygon class="cls-6" points="231.03 471.02 228.94 445.58 230.06 445.58 232.15 470.93 231.03 471.02"/><polygon class="cls-6" points="254.05 471.33 251.96 445.89 253.08 445.89 255.16 471.24 254.05 471.33"/><polygon class="cls-6" points="277.1 471.33 275.01 445.89 276.14 445.89 278.22 471.24 277.1 471.33"/><polygon class="cls-7" points="184.92 472.25 182.83 446.81 183.95 446.81 186.03 472.15 184.92 472.25"/><polygon class="cls-7" points="207.98 472.25 205.88 446.81 207.01 446.81 209.09 472.15 207.98 472.25"/><polygon class="cls-7" points="231.03 471.02 228.94 445.58 230.06 445.58 232.15 470.93 231.03 471.02"/><polygon class="cls-7" points="254.05 471.33 251.96 445.89 253.08 445.89 255.16 471.24 254.05 471.33"/><polygon class="cls-7" points="277.1 471.33 275.01 445.89 276.14 445.89 278.22 471.24 277.1 471.33"/><polygon class="cls-5" points="362.76 470.36 364.85 444.92 363.73 444.92 361.65 470.26 362.76 470.36"/><polygon class="cls-5" points="385.44 470.36 387.53 444.92 386.4 444.92 384.32 470.26 385.44 470.36"/><polygon class="cls-5" points="406.78 470.36 408.87 444.92 407.74 444.92 405.66 470.26 406.78 470.36"/><polygon class="cls-5" points="429.03 470.36 431.12 444.92 430 444.92 427.92 470.26 429.03 470.36"/><polygon class="cls-5" points="449.46 470.36 451.55 444.92 450.42 444.92 448.34 470.26 449.46 470.36"/><line class="cls-8" x1="331.75" y1="445.46" x2="465.13" y2="444.11"/><line class="cls-9" x1="171.3" y1="446.93" x2="331.75" y2="445.46"/><g id="box"><path class="cls-6" d="M356.29,302l-82.07,14-28.54,70.12,81.61-14.55Z"/><polygon class="cls-6" points="245.68 386.11 327.29 371.56 349.04 385.18 274.7 398.4 245.68 386.11"/><polygon class="cls-10" points="245.68 386.11 327.29 371.56 349.04 385.18 274.7 398.4 245.68 386.11"/><polygon class="cls-11" points="356.29 302 365.37 313.22 349.04 385.18 327.29 371.56 356.29 302"/><polygon class="cls-12" points="356.29 302 365.37 313.22 349.04 385.18 327.29 371.56 356.29 302"/><polygon class="cls-13" points="339.37 379.12 338.4 378.5 360.58 307.79 361.65 308.13 339.37 379.12"/><polygon class="cls-13" points="272.19 392.71 338.4 378.5 339.37 379.12 272.36 393.79 272.19 392.71"/></g><polygon class="cls-14" points="333.32 450.05 277.13 450.05 276.03 403.26 327.37 400.46 333.32 450.05"/><polygon class="cls-5" points="333.32 450.05 277.13 450.05 276.03 403.26 327.37 400.46 333.32 450.05"/><path class="cls-6" d="M272,391.65c.74,4.79,1.4,9.2,2,13.86a2.64,2.64,0,0,0,3.16,2.22,155.1,155.1,0,0,1,49.8-2.2,2.63,2.63,0,0,0,3-2.62c-.06-4.09-.23-8.22-.24-12.28a2.68,2.68,0,0,0-.79-1.87c-2.75-2.77-6.71-4.11-10.58-4.91a82.44,82.44,0,0,0-34.23.24A26.45,26.45,0,0,0,273,389.18,2.65,2.65,0,0,0,272,391.65Z"/><path class="cls-13" d="M272,391.65c.74,4.79,1.4,9.2,2,13.86a2.64,2.64,0,0,0,3.16,2.22c7.36-1.54,16-3.18,25.48-3.18,10.09-6,17.79-20.26,15.67-20.7a82.6,82.6,0,0,0-34.23.24A26.45,26.45,0,0,0,273,389.18,2.65,2.65,0,0,0,272,391.65Z"/><path class="cls-5" d="M228.34,350c18.88,7.46,43.46,7.1,67.18-2.79,33-13.75,54.1-41.67,54-68q-14.9,10.24-30.65,20.25A908.79,908.79,0,0,1,228.34,350Z"/><g id="lines"><line class="cls-15" x1="221.15" y1="354.71" x2="255.23" y2="379.02"/><line class="cls-16" x1="175.33" y1="370.08" x2="189.3" y2="390.75"/><line class="cls-17" x1="175.33" y1="370.08" x2="218.91" y2="388.23"/><line class="cls-18" x1="297.13" y1="360.02" x2="276.46" y2="328.18"/><line class="cls-18" x1="324.37" y1="344.1" x2="276.46" y2="328.18"/><line class="cls-15" x1="214.93" y1="354.61" x2="218.91" y2="388.23"/><line class="cls-19" x1="336.79" y1="336.84" x2="276.46" y2="328.18"/><line class="cls-16" x1="333.72" y1="292.98" x2="336.79" y2="336.84"/><line class="cls-19" x1="382.32" y1="253.87" x2="336.79" y2="336.84"/><line class="cls-18" x1="400.48" y1="279.85" x2="382.32" y2="253.87"/><line class="cls-16" x1="432.33" y1="200.24" x2="400.48" y2="279.85"/><line class="cls-16" x1="175.33" y1="370.08" x2="275.94" y2="369.62"/><line class="cls-19" x1="416.4" y1="217.84" x2="400.48" y2="279.85"/><line class="cls-18" x1="333.72" y1="292.98" x2="324.37" y2="344.1"/><line class="cls-18" x1="276.46" y1="328.18" x2="275.94" y2="369.62"/><line class="cls-16" x1="221.15" y1="354.71" x2="324.37" y2="344.1"/><line class="cls-16" x1="175.33" y1="370.08" x2="255.23" y2="379.02"/><line class="cls-16" x1="165.64" y1="387.04" x2="204.35" y2="369.52"/><line class="cls-19" x1="275.94" y1="369.62" x2="165.64" y2="387.04"/><line class="cls-19" x1="189.3" y1="390.75" x2="214.93" y2="354.61"/><line class="cls-18" x1="275.94" y1="369.62" x2="333.72" y2="292.98"/><line class="cls-16" x1="382.32" y1="253.87" x2="373.94" y2="306.95"/><line class="cls-16" x1="221.15" y1="354.71" x2="275.94" y2="369.62"/><line class="cls-16" x1="312.49" y1="308.06" x2="324.37" y2="344.1"/><line class="cls-19" x1="275.94" y1="369.62" x2="312.49" y2="308.06"/><line class="cls-18" x1="333.72" y1="292.98" x2="373.94" y2="306.95"/><line class="cls-16" x1="324.37" y1="344.1" x2="382.32" y2="253.87"/><line class="cls-19" x1="353.35" y1="277.34" x2="324.37" y2="344.1"/><line class="cls-19" x1="218.91" y1="388.23" x2="221.15" y2="354.71"/><line class="cls-16" x1="416.4" y1="217.84" x2="373.94" y2="306.95"/><line class="cls-19" x1="353.35" y1="277.34" x2="373.94" y2="306.95"/><line class="cls-19" x1="333.72" y1="292.98" x2="400.48" y2="279.85"/><line class="cls-19" x1="312.49" y1="308.06" x2="373.94" y2="306.95"/><line class="cls-16" x1="418.64" y1="250.8" x2="344.87" y2="296.85"/><line class="cls-19" x1="276.46" y1="328.18" x2="255.23" y2="379.02"/><line class="cls-19" x1="218.91" y1="388.23" x2="276.46" y2="328.18"/><line class="cls-19" x1="400.48" y1="279.85" x2="363.05" y2="271.81"/><path class="cls-19" d="M142.37,379.29c18.7,8.84,44.42,11.46,44.42,11.46l32.12-2.52L255.23,379l41.9-19,39.66-23.18L373.94,307l26.54-27.1,18.16-29.05,13.69-50.56"/></g><rect class="cls-13" x="261.82" y="435.51" width="64.86" height="10.06" rx="4.5" ry="4.5" transform="translate(552.31 -22.12) rotate(62.89)"/><rect class="cls-13" x="282.67" y="433.78" width="63.57" height="10.06" rx="4.5" ry="4.5" transform="translate(830.04 278.79) rotate(108.38)"/><circle class="cls-20" cx="281.29" cy="416.12" r="7.73"/><circle class="cls-20" cx="323.07" cy="414.09" r="7.73"/><rect class="cls-21" x="311" y="438.85" width="132.74" height="10.06" rx="4.5" ry="4.5" transform="translate(260.11 -126.81) rotate(28.76)"/><rect class="cls-21" x="188.08" y="438.31" width="105.86" height="10.06" rx="4.5" ry="4.5" transform="translate(688.91 675.74) rotate(145.95)"/><rect class="cls-22" x="188.08" y="438.31" width="105.86" height="10.06" rx="4.5" ry="4.5" transform="translate(688.91 675.74) rotate(145.95)"/><circle class="cls-6" cx="206.64" cy="472.17" r="12.15"/><circle class="cls-22" cx="206.64" cy="472.17" r="12.15"/><circle class="cls-6" cx="419.78" cy="470.44" r="12.15"/><path class="cls-23" d="M344.06,470.73c0,18-75.73,18.14-75.75.09s16.91-32.7,37.83-32.73S344,452.68,344.06,470.73Z"/><path class="cls-13" d="M306.14,438.09A42.69,42.69,0,0,0,289,441.68c15.33,7.6,24.05,23.38,20,38.36a7.1,7.1,0,0,1-3.52,4.27c19.18.09,38.63-4.44,38.61-13.58C344,452.68,327.06,438.06,306.14,438.09Z"/><rect class="cls-13" x="310.68" y="438.25" width="1.12" height="25.13" transform="translate(-10.48 7.42) rotate(-1.34)"/><line class="cls-24" x1="465.13" y1="444.11" x2="310.94" y2="438.25"/><polygon class="cls-11" points="310.78 463.38 310.38 438.26 311.14 438.24 311.53 463.36 310.78 463.38"/><rect class="cls-11" x="172.34" y="446.84" width="1.12" height="25.37" transform="translate(-37.3 15.82) rotate(-4.73)"/><rect class="cls-11" x="195.4" y="445.61" width="1.12" height="25.37" transform="translate(-37.12 17.72) rotate(-4.73)"/><rect class="cls-11" x="218.46" y="443.78" width="1.12" height="25.37" transform="translate(-36.88 19.6) rotate(-4.73)"/><rect class="cls-11" x="241.51" y="442.37" width="1.12" height="25.37" transform="translate(-36.68 21.5) rotate(-4.73)"/><rect class="cls-11" x="264.49" y="440.96" width="1.12" height="25.37" transform="translate(-36.5 23.4) rotate(-4.73)"/><rect class="cls-11" x="287.62" y="439.42" width="1.12" height="25.37" transform="translate(-36.3 25.3) rotate(-4.73)"/><polygon class="cls-13" points="310.78 463.38 310.38 438.26 311.14 438.24 311.53 463.36 310.78 463.38"/><rect class="cls-13" x="172.34" y="446.84" width="1.12" height="25.37" transform="translate(-37.3 15.82) rotate(-4.73)"/><rect class="cls-13" x="195.4" y="445.61" width="1.12" height="25.37" transform="translate(-37.12 17.72) rotate(-4.73)"/><rect class="cls-13" x="218.46" y="443.78" width="1.12" height="25.37" transform="translate(-36.88 19.6) rotate(-4.73)"/><rect class="cls-13" x="241.51" y="442.37" width="1.12" height="25.37" transform="translate(-36.68 21.5) rotate(-4.73)"/><rect class="cls-13" x="264.49" y="440.96" width="1.12" height="25.37" transform="translate(-36.5 23.4) rotate(-4.73)"/><rect class="cls-13" x="287.62" y="439.42" width="1.12" height="25.37" transform="translate(-36.3 25.3) rotate(-4.73)"/><rect class="cls-25" x="319.89" y="451.55" width="25.37" height="1.12" transform="translate(-145.41 746.27) rotate(-85.27)"/><rect class="cls-25" x="341.23" y="452.16" width="25.37" height="1.12" transform="translate(-126.44 768.1) rotate(-85.27)"/><rect class="cls-25" x="362.57" y="453.09" width="25.37" height="1.12" transform="translate(-107.79 790.22) rotate(-85.27)"/><rect class="cls-25" x="383.91" y="454.07" width="25.37" height="1.12" transform="translate(-89.18 812.38) rotate(-85.27)"/><rect class="cls-25" x="405.25" y="454.97" width="25.37" height="1.12" transform="translate(-70.51 834.48) rotate(-85.27)"/><rect class="cls-25" x="426.59" y="455.73" width="25.37" height="1.12" transform="matrix(0.08, -1, 1, 0.08, -51.68, 856.45)"/><rect class="cls-25" x="447.93" y="456.46" width="25.37" height="1.12" transform="translate(-32.83 878.38) rotate(-85.27)"/><g id="bottom"><polygon class="cls-26" points="316.33 517.82 171.72 517.76 174.58 477.16 311.53 468.67 316.33 517.82"/><polygon class="cls-6" points="311.53 469.79 174.49 478.46 171.72 477.52 172.13 472.97 311.53 464.49 311.53 469.79"/><polygon class="cls-11" points="311.53 468.67 171.72 477.52 172.13 471.86 311.53 463.37 311.53 468.67"/><polygon class="cls-11" points="311.53 468.66 461.26 475.1 471.74 517.83 312.31 517.82 311.53 468.66"/><polygon class="cls-6" points="311.53 464.41 461.63 470.44 463.48 475.19 461.66 476.15 311.53 469.71 311.53 464.41"/><polygon class="cls-27" points="311.53 464.41 461.63 470.44 463.48 475.19 461.66 476.15 311.53 469.71 311.53 464.41"/><polygon class="cls-13" points="311.53 464.41 461.63 470.44 463.48 475.19 461.66 476.15 311.53 469.71 311.53 464.41"/><polygon class="cls-27" points="311.53 463.37 461.26 469.39 463.48 475.19 311.53 468.67 311.53 463.37"/></g><path class="cls-11" d="M170.2,447.13a.54.54,0,0,1-.55-.52.55.55,0,0,1,.52-.59l140.74-8.33a.56.56,0,0,1,.07,1.12l-140.74,8.32Z"/><path class="cls-13" d="M170.2,447.15a.54.54,0,0,1-.55-.52.55.55,0,0,1,.52-.59l140.74-8.33a.56.56,0,0,1,.07,1.12l-140.74,8.32Z"/><ellipse class="cls-11" cx="272.78" cy="260.97" rx="207.53" ry="65.78" transform="translate(-97.3 186.41) rotate(-32.34)"/><ellipse class="cls-28" cx="268.52" cy="254.33" rx="200.52" ry="57.89" transform="translate(-94.4 183.1) rotate(-32.34)"/><ellipse class="cls-28" cx="268.52" cy="254.24" rx="200.52" ry="57.89" transform="translate(-94.36 183.08) rotate(-32.34)"/><path class="cls-29" d="M393.32,210.6c-.86-.21-2.21.66-2.88,1.12a10.54,10.54,0,0,0-1.37,1.13l-.58-.42-.28.38-.14-.15c-10.41,9.17-24.53,12.88-37,15.3-26.85,5.22-46.08,4.3-65.94-3.18a2.27,2.27,0,0,0-1.69-1.75,7.8,7.8,0,0,0-4.4-1.55s-.62,2.32-4.32,1.76a1.37,1.37,0,0,0,1.29.6c.51,0,1-.17,1.52-.15a.77.77,0,0,1,.34.08.49.49,0,0,1,.13.12h0c0,.05.05.16.06.16.27.89,0,2.3-3.71,3.74,4.88,0,7.7-.51,9.22-1.21a100.14,100.14,0,0,0,37.09,6.92,161.77,161.77,0,0,0,30.84-3.35,115.64,115.64,0,0,0,22.16-6.24c-2.09,1.58-4.45,3.32-7,5.18-23.47,13.27-65.49,31-86.94,38.59a.54.54,0,0,0-.05-.11l-.78.29a1,1,0,0,1,0,.1c-6.07,2.12-10.37,3.37-11.94,3.38v.84c1.61,0,6-1.31,12.27-3.49a6.45,6.45,0,0,0,3,2.89,22.78,22.78,0,0,0-6.62,3.29,54.25,54.25,0,0,0-8,7,49.22,49.22,0,0,0-3.91,5.27c-1.67,2.48,4,7.71,4.85,7.51,1.63-.37,2.87.43,4.43-.11a29.34,29.34,0,0,0,4.74-2.24C328.87,274.76,369,234,380.43,221.43a2,2,0,0,0,.79.62c-23.12,29.41-50.19,51.72-78.85,64.83-33.62,15.38-69.13,18.53-105.62,9.42a.61.61,0,0,0-.06-.4.93.93,0,0,0-.42-.31,5.39,5.39,0,0,0-3.41-.31c-.42-.11-1.5.55-1.5.55-.38.19-.76.38-1.15.54a8.66,8.66,0,0,1-2.52.54c-.52,0-1.56-.15-1.84.41a8.46,8.46,0,0,0,4.28.78,17.39,17.39,0,0,0,3.22-.39A168.76,168.76,0,0,0,237,303.62a158.06,158.06,0,0,0,66.31-14.7c29.47-13.49,57.27-36.55,80.87-67l.43-.19a.13.13,0,0,1,.06,0l0,0a16,16,0,0,0,8.68-8.76C393.64,212.24,394.34,210.85,393.32,210.6ZM280.07,268.41c19.9-7,57-22.61,81.1-35.4-20.7,14.58-50.72,33.65-68.1,37.82a7.46,7.46,0,0,0-3.7-.63,23.24,23.24,0,0,0-5.85,1A5.77,5.77,0,0,1,280.07,268.41Zm1.24,21.71,3.08-1.95a29.82,29.82,0,0,0,8.88-8.15,10.38,10.38,0,0,0,1.94-4.42,5,5,0,0,0-1.23-4.09c19.77-5,53.55-27.62,73-41.67a123.06,123.06,0,0,0,10.64-6.61C364.2,237.5,327.56,273.05,281.31,290.12ZM374,224.7l2.95-2.22,1-.46C376.73,222.87,375.42,223.77,374,224.7Z"/><path class="cls-11" d="M277.55,225.53a2.24,2.24,0,0,1-1.67-.75l-71.23-79.89a2.23,2.23,0,0,1,3.34-3l71.23,79.89a2.23,2.23,0,0,1-1.67,3.72Z"/><path class="cls-13" d="M208,141.92l71.23,79.89A2.24,2.24,0,0,1,279,225c-.25.21-41.59-48.71-64.06-68.35C200.33,139.38,207.64,141.53,208,141.92Z"/><line class="cls-30" x1="222.99" y1="144.52" x2="281.7" y2="267.95"/><path class="cls-28" d="M208.85,224.61c-77.15,54.44-125,112.85-109.75,137,3.63,5.74,10.56,9.08,20.09,10.21C106.44,345.75,144.12,284.79,208.85,224.61Z"/><path class="cls-20" d="M188.87,295.55h0a2.23,2.23,0,0,1-2.2-2.27l1.9-123.53a11.84,11.84,0,0,0-.29-2.85l-2.14-9.76a2.22,2.22,0,0,1,1.7-2.66h0a2.24,2.24,0,0,1,2.66,1.7l2.2,10a14.18,14.18,0,0,1,.34,3.37l-1.9,123.79A2.23,2.23,0,0,1,188.87,295.55Z"/><line class="cls-31" x1="207.16" y1="149.34" x2="268.52" y2="274.7"/><line class="cls-32" x1="171.52" y1="105.82" x2="194.56" y2="139.65"/><path class="cls-33" d="M192.7,166.19l-2.2-10a2.24,2.24,0,0,0-2.66-1.7,2,2,0,0,0-.5.18,2.22,2.22,0,0,1,1.2,1.52l2.21,10a14.72,14.72,0,0,1,.34,3.37l-1.91,123.79c0,.87-.65,2.2-.31,2.2h0a2.23,2.23,0,0,0,2.27-2.2L193,169.56A14.18,14.18,0,0,0,192.7,166.19Z"/><path class="cls-11" d="M388.65,214.65,223.33,147a9.79,9.79,0,0,1-3.06-2l-7.39-7a2.23,2.23,0,0,1-.09-3.16h0a2.23,2.23,0,0,1,3.16-.09l6.78,6.41a10.09,10.09,0,0,0,3.06,2l164.55,67.29a2.23,2.23,0,0,1,1.23,2.91h0A2.25,2.25,0,0,1,388.65,214.65Z"/><line class="cls-34" x1="192.08" y1="168.86" x2="262.41" y2="284.45"/><rect class="cls-11" x="182.99" y="128.97" width="25.61" height="23.03" rx="1.43" ry="1.43" transform="translate(-45.15 136.72) rotate(-34.76)"/><path class="cls-35" d="M211.57,143.54l-18.42,12.79a1.59,1.59,0,0,1-2.22-.4s3.22-19.8-1.81-24.83c2.54-1.91,9.32-6.47,9.32-6.47a1.6,1.6,0,0,1,2.22.4L212,141.33A1.57,1.57,0,0,1,211.57,143.54Z"/><rect class="cls-6" x="182.2" y="137.83" width="39.5" height="23.03" rx="1.43" ry="1.43" transform="translate(-49.11 141.81) rotate(-34.76)"/><path class="cls-35" d="M223.43,148.45,199.58,165s3.93-8.47-5.34-18.7c.54-.36-9.83,1.47-9.32.86,4.2-2.92,15.66-10.83,19.66-13.65,1.22-.43,6.32-6.37,7.93-3.57l11.32,16.3A1.6,1.6,0,0,1,223.43,148.45Z"/><path class="cls-11" d="M288.33,273c6.39,9.06-21.49,28.71-27.88,19.65s-5.32-20.8,2.38-26.23S282,263.89,288.33,273Z"/><path class="cls-29" d="M288.33,273c-6.28-8.91-17.43-11.9-25.12-6.84-.13.09,17.22,8.12,13.52,25.05C284.81,286.33,291.89,278,288.33,273Z"/><line class="cls-31" x1="202.53" y1="161.26" x2="272.37" y2="293.01"/><path class="cls-11" d="M283.27,223a7.82,7.82,0,0,0-4.4-1.55,2.47,2.47,0,0,1-1.86,1.73,6.72,6.72,0,0,1-2.49,0,12.56,12.56,0,0,0-.83,4.48C279.25,228.57,283.25,224.05,283.27,223Z"/><path class="cls-20" d="M194.54,295.67a7.31,7.31,0,0,0-3.35-3,2.38,2.38,0,0,1-2.3,1,6.16,6.16,0,0,1-2.23-.83,13.09,13.09,0,0,0-2.37,3.88C188.94,299.42,194.15,296.61,194.54,295.67Z"/><path class="cls-33" d="M194.58,295.69a7.55,7.55,0,0,0-3.4-3.05,1.66,1.66,0,0,1-.2.22,2.49,2.49,0,0,1-2.13.76,6.16,6.16,0,0,1-2.23-.83,1.32,1.32,0,0,0,.94,1c.47.16,1,.2,1.43.4a.87.87,0,0,1,.28.19.46.46,0,0,1,.07.16h0a.67.67,0,0,1,0,.17c-.08.94-.89,2.16-4.7,2.23l.18.09.56.25C189.75,299,194.21,296.57,194.58,295.69Z"/><path class="cls-13" d="M283.27,223a7.71,7.71,0,0,0-4.37-1.56,1.11,1.11,0,0,1-.11.27,2.52,2.52,0,0,1-1.74,1.45,6.35,6.35,0,0,1-2.38,0,1.31,1.31,0,0,0,1.23.62c.5,0,1-.14,1.48-.11a.74.74,0,0,1,.33.09.34.34,0,0,1,.12.12h0a.58.58,0,0,1,.05.17c.25.91-.09,2.33-3.65,3.7l.21,0,.61,0C279.75,228,283.23,224,283.27,223Z"/><path class="cls-11" d="M237.47,335,199.22,166a18.3,18.3,0,0,0-.77-2.59l-5.39-14.23a2.22,2.22,0,0,1,1.59-2.95h0a2.21,2.21,0,0,1,2.56,1.36l5.32,13.71a19.69,19.69,0,0,1,.83,2.74l38.47,170a2.22,2.22,0,0,1-1.18,2.48h0A2.21,2.21,0,0,1,237.47,335Z"/><path class="cls-36" d="M237.47,335,199.58,167.54a41.7,41.7,0,0,0-1.71-5.68l-4.81-12.72a2.22,2.22,0,0,1,1.59-2.95h0a2.21,2.21,0,0,1,2.56,1.36l4.69,12.1a42.63,42.63,0,0,1,1.84,6L241.83,334a2.22,2.22,0,0,1-1.18,2.48h0A2.21,2.21,0,0,1,237.47,335Z"/><path class="cls-37" d="M237.47,335,199.58,167.54a41.7,41.7,0,0,0-1.71-5.68l-4.81-12.72a2.22,2.22,0,0,1,1.59-2.95h0c2.92-3.16,46.92,189.83,46,190.28h0A2.21,2.21,0,0,1,237.47,335Z"/><path class="cls-6" d="M274.82,292.24c.69,1.42-3.68,3.54-4.37,2.12a2.46,2.46,0,1,1,4.37-2.12Z"/><path class="cls-20" d="M393.75,210.24a7.57,7.57,0,0,0-4.66,0,2.48,2.48,0,0,1-1.13,2.31,6.48,6.48,0,0,1-2.31.88,13.51,13.51,0,0,0,.8,4.65C391.94,217,394.09,211.24,393.75,210.24Z"/><path class="cls-11" d="M393.79,210.23a7.72,7.72,0,0,0-4.73-.06,1.84,1.84,0,0,1,0,.31,2.58,2.58,0,0,1-1.14,2.05c-.68.47-1.45.13-2.3.87a1.35,1.35,0,0,0,1.42.15c.48-.19.9-.51,1.39-.66a.82.82,0,0,1,.35,0,.56.56,0,0,1,.16.07h0a.49.49,0,0,1,.11.14c.59.78.79,2.29-2.14,5l.2-.06.61-.19C392.3,216.14,394.11,211.16,393.79,210.23Z"/><circle class="cls-38" cx="171.52" cy="105.7" r="4.12"/><path class="cls-39" d="M170.53,109.7a4.12,4.12,0,0,1,2-8C174.72,102.24,172.74,110.25,170.53,109.7Z"/><path class="cls-40" d="M304.43,432.73l3.73,5.34a.22.22,0,0,0,.13.08l6.41,1.21a.2.2,0,0,1,.07.36l-5.34,3.73a.22.22,0,0,0-.08.13l-1.2,6.41a.21.21,0,0,1-.37.07l-3.73-5.34a.22.22,0,0,0-.13-.08l-6.4-1.2a.2.2,0,0,1-.08-.37l5.34-3.73a.22.22,0,0,0,.08-.13l1.21-6.4A.2.2,0,0,1,304.43,432.73Z"/></g></svg>